Jost-ThinItalic.ufo
<glyph name="exclam" format="2">
  <advance width="265"/>
  <unicode hex="0021"/>
  <outline>
    <contour>
      <point x="205" y="700" type="line"/>
      <point x="246" y="700" type="line"/>
      <point x="151" y="200" type="line"/>
      <point x="129" y="200" type="line"/>
    </contour>
    <contour>
      <point x="83" y="13" type="curve" smooth="yes"/>
      <point x="83" y="27"/>
      <point x="94" y="37"/>
      <point x="107" y="37" type="curve" smooth="yes"/>
      <point x="120" y="37"/>
      <point x="132" y="27"/>
      <point x="132" y="13" type="curve" smooth="yes"/>
      <point x="132" y="-1"/>
      <point x="120" y="-12"/>
      <point x="107" y="-12" type="curve" smooth="yes"/>
      <point x="94" y="-12"/>
      <point x="83" y="-1"/>
    </contour>
  </outline>
</glyph>
<glyph name="quotedbl" format="2">
  <advance width="409"/>
  <unicode hex="0022"/>
  <outline>
    <contour>
      <point x="223" y="700" type="line"/>
      <point x="262" y="700" type="line"/>
      <point x="152" y="415" type="line"/>
      <point x="130" y="414" type="line"/>
    </contour>
    <contour>
      <point x="398" y="700" type="line"/>
      <point x="437" y="700" type="line"/>
      <point x="326" y="415" type="line"/>
      <point x="305" y="414" type="line"/>
    </contour>
  </outline>
</glyph>
<glyph name="numbersign" format="1">
  <advance width="563"/>
  <unicode hex="0023"/>
  <outline>
    <contour>
      <point x="122.5" y="450" type="line"/>
      <point x="126.5" y="476.5" type="line"/>
      <point x="584" y="476.5" type="line"/>
      <point x="579.5" y="450" type="line"/>
      <point x="461.5" y="450" type="line"/>
      <point x="454.5" y="450" type="line"/>
      <point x="257.5" y="450" type="line"/>
      <point x="251" y="450" type="line"/>
    </contour>
    <contour>
      <point x="45.5" y="228.5" type="line"/>
      <point x="50" y="255" type="line"/>
      <point x="168.5" y="255" type="line"/>
      <point x="176.5" y="255" type="line"/>
      <point x="372.5" y="255" type="line"/>
      <point x="383" y="255" type="line"/>
      <point x="507.5" y="255" type="line"/>
      <point x="503.5" y="228.5" type="line"/>
    </contour>
    <contour>
      <point x="544" y="699.5" type="line"/>
      <point x="574.5" y="699.5" type="line"/>
      <point x="288.5" y="0" type="line"/>
      <point x="258.5" y="0" type="line"/>
      <point x="356.5" y="239" type="line"/>
      <point x="359.5" y="246" type="line"/>
      <point x="445.5" y="459" type="line"/>
      <point x="448" y="467" type="line"/>
    </contour>
    <contour>
      <point x="340" y="699.5" type="line"/>
      <point x="370.5" y="699.5" type="line"/>
      <point x="275" y="468" type="line"/>
      <point x="272.5" y="460" type="line"/>
      <point x="184" y="244" type="line"/>
      <point x="182.5" y="238" type="line"/>
      <point x="85" y="0.5" type="line"/>
      <point x="55.5" y="0" type="line"/>
    </contour>
  </outline>
</glyph>
<glyph name="dollar" format="2">
  <advance width="562"/>
  <unicode hex="0024"/>
  <outline>
    <contour>
      <point x="353" y="818" type="line"/>
      <point x="382" y="818" type="line"/>
      <point x="361" y="691" type="line"/>
      <point x="332" y="691" type="line"/>
    </contour>
    <contour>
      <point x="231" y="13" type="line"/>
      <point x="259" y="13" type="line"/>
      <point x="239" y="-112" type="line"/>
      <point x="210" y="-112" type="line"/>
    </contour>
    <contour>
      <point x="486" y="538" type="line"/>
      <point x="472" y="605"/>
      <point x="435" y="675"/>
      <point x="346" y="676" type="curve" smooth="yes"/>
      <point x="264" y="677"/>
      <point x="193" y="621"/>
      <point x="181" y="545" type="curve" smooth="yes"/>
      <point x="167" y="455"/>
      <point x="249" y="410"/>
      <point x="325" y="377" type="curve" smooth="yes"/>
      <point x="405" y="342"/>
      <point x="476" y="282"/>
      <point x="463" y="179" type="curve" smooth="yes"/>
      <point x="448" y="74"/>
      <point x="371" y="-9"/>
      <point x="245" y="-8" type="curve" smooth="yes"/>
      <point x="127" y="-7"/>
      <point x="75" y="91"/>
      <point x="55" y="190" type="curve"/>
      <point x="86" y="206" type="line"/>
      <point x="104" y="117"/>
      <point x="143" y="25"/>
      <point x="249" y="24" type="curve" smooth="yes"/>
      <point x="353" y="23"/>
      <point x="416" y="89"/>
      <point x="429" y="177" type="curve" smooth="yes"/>
      <point x="442" y="269"/>
      <point x="371" y="321"/>
      <point x="297" y="353" type="curve" smooth="yes"/>
      <point x="220" y="387"/>
      <point x="133" y="443"/>
      <point x="147" y="547" type="curve" smooth="yes"/>
      <point x="160" y="640"/>
      <point x="251" y="708"/>
      <point x="348" y="708" type="curve" smooth="yes"/>
      <point x="451" y="708"/>
      <point x="501" y="630"/>
      <point x="515" y="553" type="curve"/>
    </contour>
  </outline>
</glyph>
<glyph name="ampersand" format="1">
  <advance width="655"/>
  <unicode hex="0026"/>
  <outline>
    <contour>
      <point x="236" y="414.5" type="line" smooth="yes"/>
      <point x="207" y="458"/>
      <point x="175" y="506"/>
      <point x="183.5" y="570.5" type="curve" smooth="yes"/>
      <point x="195.5" y="650"/>
      <point x="265" y="711.5"/>
      <point x="357" y="710.5" type="curve" smooth="yes"/>
      <point x="445" y="709.5"/>
      <point x="490" y="639.5"/>
      <point x="479" y="568" type="curve" smooth="yes"/>
      <point x="466" y="491.5"/>
      <point x="395" y="438.5"/>
      <point x="311.5" y="391" type="curve" smooth="yes"/>
      <point x="227" y="342.5"/>
      <point x="98" y="299.5"/>
      <point x="80" y="177.5" type="curve" smooth="yes"/>
      <point x="66" y="82"/>
      <point x="133.5" y="20.5"/>
      <point x="229.5" y="19.5" type="curve" smooth="yes"/>
      <point x="396.5" y="18"/>
      <point x="509.5" y="191.5"/>
      <point x="616" y="315.5" type="curve"/>
      <point x="638.5" y="300" type="line"/>
      <point x="526" y="170.5"/>
      <point x="409.5" y="-10.5"/>
      <point x="226" y="-9.5" type="curve" smooth="yes"/>
      <point x="115.5" y="-9"/>
      <point x="33" y="64"/>
      <point x="48.5" y="176" type="curve" smooth="yes"/>
      <point x="67" y="312.5"/>
      <point x="204" y="362.5"/>
      <point x="291.5" y="410" type="curve" smooth="yes"/>
      <point x="367.5" y="452.5"/>
      <point x="436" y="501.5"/>
      <point x="448.5" y="568" type="curve" smooth="yes"/>
      <point x="457.5" y="623.5"/>
      <point x="426.5" y="680.5"/>
      <point x="355" y="682" type="curve" smooth="yes"/>
      <point x="280" y="683.5"/>
      <point x="225" y="632"/>
      <point x="215" y="570" type="curve" smooth="yes"/>
      <point x="207" y="514"/>
      <point x="233" y="473"/>
      <point x="260.5" y="432" type="curve" smooth="yes"/>
      <point x="561" y="0" type="line"/>
      <point x="525.5" y="0" type="line"/>
    </contour>
  </outline>
</glyph>
<glyph name="quotesingle" format="1">
  <advance width="233"/>
  <unicode hex="0027"/>
  <outline>
    <contour>
      <point x="223.5" y="699.5" type="line"/>
      <point x="261" y="699.5" type="line"/>
      <point x="151.5" y="414.5" type="line"/>
      <point x="130.5" y="414.5" type="line"/>
    </contour>
  </outline>
</glyph>
<glyph name="parenleft" format="1">
  <advance width="252"/>
  <unicode hex="0028"/>
  <outline>
    <contour>
      <point x="302" y="779.5" type="curve"/>
      <point x="327.5" y="779.5" type="line"/>
      <point x="235" y="627"/>
      <point x="174.5" y="463"/>
      <point x="147.5" y="290" type="curve" smooth="yes"/>
      <point x="123" y="125.5"/>
      <point x="129.5" y="-38.5"/>
      <point x="176" y="-200" type="curve"/>
      <point x="151.5" y="-200" type="line"/>
      <point x="98" y="-42.5"/>
      <point x="90" y="125.5"/>
      <point x="114.5" y="290" type="curve" smooth="yes"/>
      <point x="141.5" y="464"/>
      <point x="203" y="632.5"/>
    </contour>
  </outline>
</glyph>
<glyph name="parenright" format="1">
  <advance width="252"/>
  <unicode hex="0029"/>
  <outline>
    <contour>
      <point x="6" y="-199.5" type="curve"/>
      <point x="-19.5" y="-199.5" type="line"/>
      <point x="73" y="-47"/>
      <point x="133" y="117"/>
      <point x="160" y="290" type="curve" smooth="yes"/>
      <point x="184.5" y="454.5"/>
      <point x="178" y="618.5"/>
      <point x="131.5" y="780" type="curve"/>
      <point x="157" y="780" type="line"/>
      <point x="210.5" y="622.5"/>
      <point x="218" y="454.5"/>
      <point x="193.5" y="290" type="curve" smooth="yes"/>
      <point x="166.5" y="116"/>
      <point x="105" y="-52.5"/>
    </contour>
  </outline>
</glyph>
<glyph name="asterisk" format="1">
  <advance width="574"/>
  <unicode hex="002A"/>
  <outline>
    <contour>
      <point x="523.5" y="588.5" type="line"/>
      <point x="527" y="560" type="line"/>
      <point x="350" y="510.5" type="line"/>
      <point x="346.5" y="529" type="line"/>
    </contour>
    <contour>
      <point x="440" y="381.5" type="line"/>
      <point x="414.5" y="364.5" type="line"/>
      <point x="340" y="512.5" type="line"/>
      <point x="356" y="525" type="line"/>
    </contour>
    <contour>
      <point x="231" y="365.5" type="line"/>
      <point x="209.5" y="383" type="line"/>
      <point x="341.5" y="524.5" type="line"/>
      <point x="355" y="512" type="line"/>
    </contour>
    <contour>
      <point x="184.5" y="561" type="line"/>
      <point x="197" y="588.5" type="line"/>
      <point x="354.5" y="528" type="line"/>
      <point x="345" y="510.5" type="line"/>
    </contour>
    <contour>
      <point x="366.5" y="699.5" type="line"/>
      <point x="394.5" y="699.5" type="line"/>
      <point x="358" y="519.5" type="line"/>
      <point x="338.5" y="519.5" type="line"/>
    </contour>
  </outline>
</glyph>
<glyph name="plus" format="1">
  <advance width="551"/>
  <unicode hex="002B"/>
  <outline>
    <contour>
      <point x="77" y="240" type="line"/>
      <point x="81.5" y="270" type="line"/>
      <point x="502.5" y="270" type="line"/>
      <point x="497" y="240" type="line"/>
    </contour>
    <contour>
      <point x="313" y="485.5" type="line"/>
      <point x="345.5" y="485.5" type="line"/>
      <point x="265.5" y="24.5" type="line"/>
      <point x="234" y="24.5" type="line"/>
    </contour>
  </outline>
</glyph>
<glyph name="comma" format="1">
  <advance width="276"/>
  <unicode hex="002C"/>
  <outline>
    <contour>
      <point x="152" y="98" type="line"/>
      <point x="181" y="85" type="line"/>
      <point x="30.5" y="-163" type="line"/>
      <point x="10" y="-155" type="line"/>
    </contour>
  </outline>
</glyph>
<glyph name="hyphen" format="1">
  <advance width="203"/>
  <unicode hex="002D"/>
  <outline>
    <contour>
      <point x="20" y="246" type="line"/>
      <point x="24.5" y="275" type="line"/>
      <point x="219.5" y="275" type="line"/>
      <point x="214" y="246" type="line"/>
    </contour>
  </outline>
</glyph>
<glyph name="period" format="1">
  <advance width="263"/>
  <unicode hex="002E"/>
  <outline>
    <contour>
      <point x="83" y="12" type="curve" smooth="yes"/>
      <point x="83" y="25.5"/>
      <point x="93.5" y="36.5"/>
      <point x="106.5" y="36.5" type="curve" smooth="yes"/>
      <point x="119.5" y="36.5"/>
      <point x="130.5" y="25.5"/>
      <point x="130.5" y="12" type="curve" smooth="yes"/>
      <point x="130.5" y="-1.5"/>
      <point x="119.5" y="-11.5"/>
      <point x="106.5" y="-11.5" type="curve" smooth="yes"/>
      <point x="93.5" y="-11.5"/>
      <point x="83" y="-1.5"/>
    </contour>
  </outline>
</glyph>
<glyph name="slash" format="1">
  <advance width="472"/>
  <unicode hex="002F"/>
  <outline>
    <contour>
      <point x="519" y="699.5" type="line"/>
      <point x="551.5" y="699" type="line"/>
      <point x="-7" y="-149.5" type="line"/>
      <point x="-39" y="-149" type="line"/>
    </contour>
  </outline>
</glyph>
<glyph name="zero" format="1">
  <advance width="547"/>
  <unicode hex="0030"/>
  <outline>
    <contour>
      <point x="114" y="350" type="curve" smooth="yes"/>
      <point x="98" y="214.5"/>
      <point x="106" y="22"/>
      <point x="248.5" y="21" type="curve" smooth="yes"/>
      <point x="390.5" y="20"/>
      <point x="478" y="197"/>
      <point x="499.5" y="350" type="curve" smooth="yes"/>
      <point x="515.5" y="485.5"/>
      <point x="506.5" y="678"/>
      <point x="364" y="679" type="curve" smooth="yes"/>
      <point x="222" y="680"/>
      <point x="135.5" y="503"/>
    </contour>
    <contour>
      <point x="81" y="350" type="curve" smooth="yes"/>
      <point x="105" y="522.5"/>
      <point x="206" y="710.5"/>
      <point x="366.5" y="709.5" type="curve" smooth="yes"/>
      <point x="529" y="708.5"/>
      <point x="550" y="506"/>
      <point x="531.5" y="350" type="curve" smooth="yes"/>
      <point x="507.5" y="177.5"/>
      <point x="406.5" y="-10.5"/>
      <point x="246" y="-9.5" type="curve" smooth="yes"/>
      <point x="83.5" y="-8.5"/>
      <point x="62.5" y="194"/>
    </contour>
  </outline>
</glyph>
<glyph name="one" format="2">
  <advance width="408"/>
  <unicode hex="0031"/>
  <outline>
    <contour>
      <point x="167" y="626" type="line"/>
      <point x="173" y="661" type="line"/>
      <point x="374" y="707" type="line"/>
      <point x="253" y="0" type="line"/>
      <point x="220" y="0" type="line"/>
      <point x="334" y="665" type="line"/>
    </contour>
  </outline>
</glyph>
<glyph name="two" format="1">
  <advance width="514"/>
  <unicode hex="0032"/>
  <outline>
    <contour>
      <point x="6" y="0" type="line"/>
      <point x="370.5" y="340" type="line" smooth="yes"/>
      <point x="423" y="389"/>
      <point x="473" y="440"/>
      <point x="484.5" y="515" type="curve" smooth="yes"/>
      <point x="497" y="592"/>
      <point x="455.5" y="679.5"/>
      <point x="351.5" y="680" type="curve" smooth="yes"/>
      <point x="234" y="681"/>
      <point x="160.5" y="575.5"/>
      <point x="139.5" y="460.5" type="curve"/>
      <point x="107.5" y="460.5" type="line"/>
      <point x="130.5" y="594"/>
      <point x="217.5" y="711.5"/>
      <point x="354" y="710.5" type="curve" smooth="yes"/>
      <point x="477.5" y="709.5"/>
      <point x="532" y="606.5"/>
      <point x="517.5" y="514.5" type="curve" smooth="yes"/>
      <point x="506" y="435"/>
      <point x="452.5" y="375"/>
      <point x="395.5" y="322" type="curve" smooth="yes"/>
      <point x="79" y="31" type="line"/>
      <point x="463.5" y="30.5" type="line"/>
      <point x="458.5" y="0" type="line"/>
    </contour>
  </outline>
</glyph>
<glyph name="three" format="2">
  <advance width="531"/>
  <unicode hex="0033"/>
  <outline>
    <contour>
      <point x="280" y="357" type="curve"/>
      <point x="283" y="380" type="line"/>
      <point x="374" y="386"/>
      <point x="473" y="435"/>
      <point x="489" y="529" type="curve" smooth="yes"/>
      <point x="501" y="605"/>
      <point x="455" y="678"/>
      <point x="364" y="679" type="curve" smooth="yes"/>
      <point x="269" y="680"/>
      <point x="204" y="609"/>
      <point x="185" y="526" type="curve"/>
      <point x="154" y="527" type="line"/>
      <point x="175" y="630"/>
      <point x="252" y="710"/>
      <point x="366" y="710" type="curve" smooth="yes"/>
      <point x="475" y="710"/>
      <point x="536" y="622"/>
      <point x="522" y="530" type="curve" smooth="yes"/>
      <point x="505" y="420"/>
      <point x="391" y="362"/>
    </contour>
    <contour>
      <point x="254" y="-10" type="curve" smooth="yes"/>
      <point x="128" y="-10"/>
      <point x="63" y="77"/>
      <point x="73" y="185" type="curve"/>
      <point x="105" y="185" type="line"/>
      <point x="97" y="93"/>
      <point x="148" y="22"/>
      <point x="256" y="22" type="curve" smooth="yes"/>
      <point x="357" y="22"/>
      <point x="440" y="89"/>
      <point x="454" y="181" type="curve" smooth="yes"/>
      <point x="470" y="290"/>
      <point x="369" y="343"/>
      <point x="278" y="349" type="curve"/>
      <point x="281" y="371" type="line"/>
      <point x="392" y="366"/>
      <point x="505" y="305"/>
      <point x="487" y="178" type="curve" smooth="yes"/>
      <point x="471" y="68"/>
      <point x="372" y="-10"/>
    </contour>
  </outline>
</glyph>
<glyph name="four" format="1">
  <advance width="545"/>
  <unicode hex="0034"/>
  <outline>
    <contour>
      <point x="20" y="140.5" type="line"/>
      <point x="488" y="699.5" type="line"/>
      <point x="499.5" y="699.5" type="line"/>
      <point x="379" y="0" type="line"/>
      <point x="347" y="0" type="line"/>
      <point x="373.5" y="152" type="line"/>
      <point x="374.5" y="159" type="line"/>
      <point x="453.5" y="618" type="line"/>
      <point x="78.7188" y="170" type="line"/>
      <point x="388.5" y="169.5" type="line"/>
      <point x="394.5" y="169.5" type="line"/>
      <point x="514.5" y="169.5" type="line"/>
      <point x="509.5" y="140" type="line"/>
    </contour>
  </outline>
</glyph>
<glyph name="five" format="1">
  <advance width="542"/>
  <unicode hex="0035"/>
  <outline>
    <contour>
      <point x="503.5" y="230" type="curve" smooth="yes"/>
      <point x="485" y="87"/>
      <point x="375.5" y="-10"/>
      <point x="243" y="-9.5" type="curve" smooth="yes"/>
      <point x="138" y="-9.5"/>
      <point x="80" y="50.5"/>
      <point x="50.5" y="137.5" type="curve"/>
      <point x="79" y="154.5" type="line"/>
      <point x="104" y="76.5"/>
      <point x="154.5" y="21.5"/>
      <point x="245" y="21" type="curve" smooth="yes"/>
      <point x="361.5" y="20.5"/>
      <point x="454" y="108.5"/>
      <point x="471" y="230" type="curve" smooth="yes"/>
      <point x="484.5" y="331"/>
      <point x="429.5" y="420"/>
      <point x="327.5" y="422" type="curve" smooth="yes"/>
      <point x="246" y="423.5"/>
      <point x="180" y="383.5"/>
      <point x="120" y="328" type="curve"/>
      <point x="266.5" y="700" type="line"/>
      <point x="587.5" y="700" type="line"/>
      <point x="583" y="670.5" type="line"/>
      <point x="286.5" y="670" type="line"/>
      <point x="171.5" y="389.5" type="line"/>
      <point x="213" y="424"/>
      <point x="271" y="452"/>
      <point x="340" y="451.5" type="curve" smooth="yes"/>
      <point x="457" y="450.5"/>
      <point x="518" y="346"/>
    </contour>
  </outline>
</glyph>
<glyph name="six" format="1">
  <advance width="531"/>
  <unicode hex="0036"/>
  <outline>
    <contour>
      <point x="96" y="223" type="curve" smooth="yes"/>
      <point x="81" y="118"/>
      <point x="137.5" y="20.5"/>
      <point x="250.5" y="20" type="curve" smooth="yes"/>
      <point x="364.5" y="19.5"/>
      <point x="454" y="112.5"/>
      <point x="470" y="223" type="curve" smooth="yes"/>
      <point x="483.5" y="321.5"/>
      <point x="424" y="416.5"/>
      <point x="322" y="417.5" type="curve" smooth="yes"/>
      <point x="203" y="418.5"/>
      <point x="113" y="326"/>
    </contour>
    <contour>
      <point x="410.5" y="699" type="line"/>
      <point x="451" y="699" type="line"/>
      <point x="171.5" y="371.5" type="line"/>
      <point x="168.5" y="374.5" type="line"/>
      <point x="212.5" y="416"/>
      <point x="267" y="444"/>
      <point x="332" y="443" type="curve" smooth="yes"/>
      <point x="447.5" y="441.5"/>
      <point x="515" y="334"/>
      <point x="500.5" y="223" type="curve" smooth="yes"/>
      <point x="483" y="94"/>
      <point x="382" y="-10"/>
      <point x="248.5" y="-9.5" type="curve" smooth="yes"/>
      <point x="116" y="-9"/>
      <point x="48.5" y="98.5"/>
      <point x="65.5" y="223" type="curve" smooth="yes"/>
      <point x="74.5" y="280.5"/>
      <point x="105" y="337"/>
      <point x="139.5" y="378" type="curve" smooth="yes"/>
    </contour>
  </outline>
</glyph>
<glyph name="seven" format="1">
  <advance width="502"/>
  <unicode hex="0037"/>
  <outline>
    <contour>
      <point x="118.5" y="669.5" type="line"/>
      <point x="123" y="700" type="line"/>
      <point x="586.5" y="699.5" type="line"/>
      <point x="128" y="0" type="line"/>
      <point x="94" y="0" type="line"/>
      <point x="532.5" y="669" type="line"/>
    </contour>
  </outline>
</glyph>
<glyph name="eight" format="1">
  <advance width="509"/>
  <unicode hex="0038"/>
  <outline>
    <contour>
      <point x="145.5" y="538" type="curve" smooth="yes"/>
      <point x="160.5" y="629.5"/>
      <point x="247.5" y="710"/>
      <point x="347.5" y="709.5" type="curve" smooth="yes"/>
      <point x="446" y="709"/>
      <point x="507.5" y="625.5"/>
      <point x="494" y="537.5" type="curve" smooth="yes"/>
      <point x="479" y="441"/>
      <point x="386.5" y="364"/>
      <point x="290.5" y="364.5" type="curve" smooth="yes"/>
      <point x="196" y="365"/>
      <point x="132" y="444.5"/>
    </contour>
    <contour>
      <point x="175" y="535" type="curve" smooth="yes"/>
      <point x="164" y="458.5"/>
      <point x="219" y="387"/>
      <point x="291.5" y="386" type="curve" smooth="yes"/>
      <point x="365.5" y="385"/>
      <point x="449.5" y="455"/>
      <point x="462.5" y="535" type="curve" smooth="yes"/>
      <point x="475" y="609.5"/>
      <point x="428" y="679.5"/>
      <point x="345" y="680" type="curve" smooth="yes"/>
      <point x="261" y="680.5"/>
      <point x="188" y="613"/>
    </contour>
    <contour>
      <point x="64.5" y="186.5" type="curve" smooth="yes"/>
      <point x="81.5" y="294.5"/>
      <point x="184" y="377.5"/>
      <point x="290.5" y="377" type="curve" smooth="yes"/>
      <point x="395" y="376.5"/>
      <point x="469.5" y="291.5"/>
      <point x="454.5" y="186" type="curve" smooth="yes"/>
      <point x="437.5" y="78.5"/>
      <point x="346" y="-10"/>
      <point x="227" y="-9.5" type="curve" smooth="yes"/>
      <point x="109" y="-9"/>
      <point x="48" y="83"/>
    </contour>
    <contour>
      <point x="95.5" y="189.5" type="curve" smooth="yes"/>
      <point x="81" y="98.5"/>
      <point x="130" y="20.5"/>
      <point x="229" y="20" type="curve" smooth="yes"/>
      <point x="328.5" y="19.5"/>
      <point x="409.5" y="94.5"/>
      <point x="424.5" y="189.5" type="curve" smooth="yes"/>
      <point x="437.5" y="276.5"/>
      <point x="376.5" y="355"/>
      <point x="289.5" y="355.5" type="curve" smooth="yes"/>
      <point x="201" y="356"/>
      <point x="111" y="280.5"/>
    </contour>
  </outline>
</glyph>
<glyph name="nine" format="1">
  <advance width="531"/>
  <unicode hex="0039"/>
  <outline>
    <contour>
      <point x="509" y="477" type="curve" smooth="yes"/>
      <point x="524" y="582"/>
      <point x="467.5" y="679.5"/>
      <point x="354.5" y="680" type="curve" smooth="yes"/>
      <point x="240.5" y="680.5"/>
      <point x="151.5" y="587.5"/>
      <point x="135.5" y="477" type="curve" smooth="yes"/>
      <point x="122" y="378.5"/>
      <point x="181.5" y="283.5"/>
      <point x="283.5" y="282.5" type="curve" smooth="yes"/>
      <point x="402.5" y="281.5"/>
      <point x="492" y="374"/>
    </contour>
    <contour>
      <point x="194.5" y="0" type="line"/>
      <point x="154.5" y="0" type="line"/>
      <point x="433" y="328" type="line"/>
      <point x="436.5" y="325.5" type="line"/>
      <point x="392.5" y="284"/>
      <point x="338" y="256"/>
      <point x="273" y="257" type="curve" smooth="yes"/>
      <point x="157.5" y="258.5"/>
      <point x="90" y="366"/>
      <point x="104.5" y="477" type="curve" smooth="yes"/>
      <point x="122" y="606"/>
      <point x="223" y="710"/>
      <point x="356.5" y="709.5" type="curve" smooth="yes"/>
      <point x="489" y="709"/>
      <point x="556.5" y="601.5"/>
      <point x="539.5" y="477" type="curve" smooth="yes"/>
      <point x="530.5" y="419.5"/>
      <point x="500" y="363"/>
      <point x="465.5" y="322" type="curve" smooth="yes"/>
    </contour>
  </outline>
</glyph>
<glyph name="colon" format="1">
  <advance width="291"/>
  <unicode hex="003A"/>
  <outline>
    <contour>
      <point x="83" y="12" type="curve" smooth="yes"/>
      <point x="83" y="25.5"/>
      <point x="93.5" y="36.5"/>
      <point x="106.5" y="36.5" type="curve" smooth="yes"/>
      <point x="119.5" y="36.5"/>
      <point x="130.5" y="25.5"/>
      <point x="130.5" y="12" type="curve" smooth="yes"/>
      <point x="130.5" y="-1.5"/>
      <point x="119.5" y="-11.5"/>
      <point x="106.5" y="-11.5" type="curve" smooth="yes"/>
      <point x="93.5" y="-11.5"/>
      <point x="83" y="-1.5"/>
    </contour>
    <contour>
      <point x="144" y="370" type="curve" smooth="yes"/>
      <point x="144" y="383.5"/>
      <point x="154.5" y="393.5"/>
      <point x="167.5" y="393.5" type="curve" smooth="yes"/>
      <point x="180.5" y="393.5"/>
      <point x="191.5" y="383.5"/>
      <point x="191.5" y="370" type="curve" smooth="yes"/>
      <point x="191.5" y="356.5"/>
      <point x="180.5" y="346"/>
      <point x="167.5" y="346" type="curve" smooth="yes"/>
      <point x="154.5" y="346"/>
      <point x="144" y="356.5"/>
    </contour>
  </outline>
</glyph>
<glyph name="semicolon" format="1">
  <advance width="282"/>
  <unicode hex="003B"/>
  <outline>
    <contour>
      <point x="173" y="370" type="curve" smooth="yes"/>
      <point x="173" y="383.5"/>
      <point x="184" y="393.5"/>
      <point x="197" y="393.5" type="curve" smooth="yes"/>
      <point x="210" y="393.5"/>
      <point x="220.5" y="383.5"/>
      <point x="220.5" y="370" type="curve" smooth="yes"/>
      <point x="220.5" y="356.5"/>
      <point x="210" y="346"/>
      <point x="197" y="346" type="curve" smooth="yes"/>
      <point x="184" y="346"/>
      <point x="173" y="356.5"/>
    </contour>
    <contour>
      <point x="152" y="98" type="line"/>
      <point x="181" y="85" type="line"/>
      <point x="30.5" y="-163" type="line"/>
      <point x="10" y="-155" type="line"/>
    </contour>
  </outline>
</glyph>
<glyph name="less" format="1">
  <advance width="621"/>
  <unicode hex="003C"/>
  <outline>
    <contour>
      <point x="129.5" y="257" type="line"/>
      <point x="542.5" y="65.5" type="line"/>
      <point x="537.5" y="37" type="line"/>
      <point x="78" y="248.5" type="line"/>
      <point x="81" y="266" type="line"/>
      <point x="613" y="479" type="line"/>
      <point x="608" y="447" type="line"/>
    </contour>
  </outline>
</glyph>
<glyph name="equal" format="1">
  <advance width="596"/>
  <unicode hex="003D"/>
  <outline>
    <contour>
      <point x="65.5" y="172" type="line"/>
      <point x="70" y="201" type="line"/>
      <point x="541.5" y="201" type="line"/>
      <point x="536.5" y="172" type="line"/>
    </contour>
    <contour>
      <point x="88" y="304" type="line"/>
      <point x="92.5" y="333.5" type="line"/>
      <point x="564" y="333.5" type="line"/>
      <point x="559" y="304" type="line"/>
    </contour>
  </outline>
</glyph>
<glyph name="greater" format="1">
  <advance width="621"/>
  <unicode hex="003E"/>
  <outline>
    <contour>
      <point x="525.5" y="257.5" type="line"/>
      <point x="112" y="449.5" type="line"/>
      <point x="117.5" y="478" type="line"/>
      <point x="576.5" y="266" type="line"/>
      <point x="574" y="249" type="line"/>
      <point x="41.5" y="36" type="line"/>
      <point x="46.5" y="68" type="line"/>
    </contour>
  </outline>
</glyph>
<glyph name="question" format="1">
  <advance width="529"/>
  <unicode hex="003F"/>
  <outline>
    <contour>
      <point x="489" y="514" type="curve" smooth="yes"/>
      <point x="504.5" y="605"/>
      <point x="451" y="679.5"/>
      <point x="348" y="680" type="curve" smooth="yes"/>
      <point x="265.5" y="680.5"/>
      <point x="207" y="635.5"/>
      <point x="158.5" y="577.5" type="curve"/>
      <point x="135.5" y="594" type="line"/>
      <point x="190.5" y="658.5"/>
      <point x="254.5" y="710"/>
      <point x="353" y="709.5" type="curve" smooth="yes"/>
      <point x="470.5" y="708.5"/>
      <point x="536.5" y="620.5"/>
      <point x="519.5" y="514" type="curve" smooth="yes"/>
      <point x="500" y="404.44"/>
      <point x="389.329" y="332.544"/>
      <point x="270.875" y="323.041" type="curve"/>
      <point x="242" y="170.5" type="line"/>
      <point x="219" y="170.5" type="line"/>
      <point x="240" y="345" type="line"/>
      <point x="247" y="345" type="line"/>
      <point x="364" y="350"/>
      <point x="469.5" y="415"/>
    </contour>
    <contour>
      <point x="176.5" y="12" type="curve" smooth="yes"/>
      <point x="176.5" y="25"/>
      <point x="187.5" y="36.5"/>
      <point x="200.5" y="36.5" type="curve" smooth="yes"/>
      <point x="214" y="36.5"/>
      <point x="223.5" y="25"/>
      <point x="223.5" y="12" type="curve" smooth="yes"/>
      <point x="223.5" y="-1.5"/>
      <point x="213" y="-11.5"/>
      <point x="200" y="-11.5" type="curve" smooth="yes"/>
      <point x="186.5" y="-11.5"/>
      <point x="176.5" y="-1.5"/>
    </contour>
  </outline>
</glyph>
<glyph name="at" format="2">
  <advance width="747"/>
  <unicode hex="0040"/>
  <outline>
    <contour>
      <point x="252" y="320" type="curve" smooth="yes"/>
      <point x="243" y="255"/>
      <point x="268" y="194"/>
      <point x="335" y="192" type="curve" smooth="yes"/>
      <point x="418" y="190"/>
      <point x="492" y="279"/>
      <point x="505" y="370" type="curve" smooth="yes"/>
      <point x="513" y="430"/>
      <point x="492" y="497"/>
      <point x="426" y="499" type="curve" smooth="yes"/>
      <point x="343" y="502"/>
      <point x="265" y="418"/>
    </contour>
    <contour>
      <point x="221" y="319" type="curve" smooth="yes"/>
      <point x="236" y="436"/>
      <point x="331" y="531"/>
      <point x="429" y="528" type="curve" smooth="yes"/>
      <point x="510" y="526"/>
      <point x="532" y="442"/>
      <point x="522" y="368" type="curve" smooth="yes"/>
      <point x="507" y="264"/>
      <point x="425" y="162"/>
      <point x="328" y="163" type="curve" smooth="yes"/>
      <point x="247" y="164"/>
      <point x="211" y="236"/>
    </contour>
    <contour>
      <point x="61" y="320" type="curve" smooth="yes"/>
      <point x="95" y="530"/>
      <point x="272" y="710"/>
      <point x="495" y="709" type="curve" smooth="yes"/>
      <point x="687" y="708"/>
      <point x="779" y="547"/>
      <point x="753" y="390" type="curve" smooth="yes"/>
      <point x="737" y="259"/>
      <point x="636" y="146"/>
      <point x="539" y="152" type="curve" smooth="yes"/>
      <point x="471" y="156"/>
      <point x="469" y="220"/>
      <point x="484" y="284" type="curve"/>
      <point x="481" y="284" type="line"/>
      <point x="559" y="520" type="line"/>
      <point x="591" y="520" type="line"/>
      <point x="510" y="289" type="line" smooth="yes"/>
      <point x="507" y="280"/>
      <point x="504" y="266"/>
      <point x="502" y="256" type="curve" smooth="yes"/>
      <point x="497" y="225"/>
      <point x="499" y="184"/>
      <point x="545" y="180" type="curve" smooth="yes"/>
      <point x="624" y="171"/>
      <point x="711" y="283"/>
      <point x="724" y="390" type="curve" smooth="yes"/>
      <point x="749" y="533"/>
      <point x="668" y="679"/>
      <point x="493" y="681" type="curve" smooth="yes"/>
      <point x="285" y="683"/>
      <point x="122" y="516"/>
      <point x="90" y="320" type="curve" smooth="yes"/>
      <point x="65" y="154"/>
      <point x="143" y="21"/>
      <point x="322" y="19" type="curve" smooth="yes"/>
      <point x="412" y="18"/>
      <point x="488" y="43"/>
      <point x="555" y="75" type="curve"/>
      <point x="566" y="50" type="line"/>
      <point x="497" y="18"/>
      <point x="420" y="-8"/>
      <point x="320" y="-8" type="curve" smooth="yes"/>
      <point x="121" y="-6"/>
      <point x="33" y="138"/>
    </contour>
  </outline>
</glyph>
<glyph name="A" format="1">
  <advance width="599"/>
  <unicode hex="0041"/>
  <outline>
    <contour>
      <point x="146" y="254" type="line"/>
      <point x="159" y="284" type="line"/>
      <point x="483.5" y="284" type="line"/>
      <point x="488" y="254" type="line"/>
    </contour>
    <contour>
      <point x="384" y="645" type="line"/>
      <point x="174" y="273" type="line"/>
      <point x="170" y="265" type="line"/>
      <point x="20" y="0" type="line"/>
      <point x="-17" y="0" type="line"/>
      <point x="396" y="721.5" type="line"/>
      <point x="560.5" y="0" type="line"/>
      <point x="525" y="0" type="line"/>
      <point x="468" y="263" type="line"/>
      <point x="466" y="271" type="line"/>
    </contour>
  </outline>
</glyph>
<glyph name="B" format="2">
  <advance width="498"/>
  <unicode hex="0042"/>
  <outline>
    <contour>
      <point x="147" y="381" type="line"/>
      <point x="150" y="401" type="line"/>
      <point x="252" y="401" type="line"/>
      <point x="341" y="403"/>
      <point x="423" y="444"/>
      <point x="438" y="534" type="curve" smooth="yes"/>
      <point x="453" y="619"/>
      <point x="392" y="669"/>
      <point x="300" y="669" type="curve" smooth="yes"/>
      <point x="204" y="669" type="line"/>
      <point x="94" y="31" type="line"/>
      <point x="198" y="31" type="line" smooth="yes"/>
      <point x="311" y="31"/>
      <point x="401" y="91"/>
      <point x="419" y="203" type="curve" smooth="yes"/>
      <point x="435" y="304"/>
      <point x="354" y="371"/>
      <point x="259" y="371" type="curve" smooth="yes"/>
      <point x="145" y="372" type="line"/>
      <point x="148" y="391" type="line"/>
      <point x="267" y="391" type="line" smooth="yes"/>
      <point x="370" y="391"/>
      <point x="468" y="320"/>
      <point x="451" y="201" type="curve" smooth="yes"/>
      <point x="432" y="69"/>
      <point x="326" y="0"/>
      <point x="196" y="0" type="curve" smooth="yes"/>
      <point x="56" y="0" type="line"/>
      <point x="177" y="700" type="line"/>
      <point x="303" y="700" type="line" smooth="yes"/>
      <point x="414" y="700"/>
      <point x="489" y="639"/>
      <point x="472" y="535" type="curve" smooth="yes"/>
      <point x="455" y="432"/>
      <point x="364" y="383"/>
      <point x="258" y="381" type="curve"/>
    </contour>
  </outline>
</glyph>
<glyph name="C" format="1">
  <advance width="664"/>
  <unicode hex="0043"/>
  <outline>
    <contour>
      <point x="112.5" y="350" type="curve" smooth="yes"/>
      <point x="88" y="183.5"/>
      <point x="172" y="27.5"/>
      <point x="347.5" y="26" type="curve" smooth="yes"/>
      <point x="442" y="25.5"/>
      <point x="518" y="60.5"/>
      <point x="582.5" y="114" type="curve"/>
      <point x="575.5" y="70" type="line"/>
      <point x="510" y="21.5"/>
      <point x="439" y="-8.5"/>
      <point x="344.5" y="-8" type="curve" smooth="yes"/>
      <point x="148.5" y="-7"/>
      <point x="51" y="164.5"/>
      <point x="78" y="350" type="curve" smooth="yes"/>
      <point x="108.5" y="546"/>
      <point x="265.5" y="707.5"/>
      <point x="464" y="708.5" type="curve" smooth="yes"/>
      <point x="552.5" y="709"/>
      <point x="615" y="683"/>
      <point x="670.5" y="630" type="curve"/>
      <point x="663.5" y="586.5" type="line"/>
      <point x="614.5" y="646"/>
      <point x="546.5" y="675"/>
      <point x="461" y="674.5" type="curve" smooth="yes"/>
      <point x="283" y="673.5"/>
      <point x="141" y="528"/>
    </contour>
  </outline>
</glyph>
<glyph name="D" format="1">
  <advance width="628"/>
  <unicode hex="0044"/>
  <outline>
    <contour>
      <point x="176.5" y="699.5" type="line"/>
      <point x="209.5" y="699.5" type="line"/>
      <point x="89" y="0" type="line"/>
      <point x="57" y="0" type="line"/>
    </contour>
    <contour>
      <point x="228" y="0" type="curve" smooth="yes"/>
      <point x="73.5" y="0" type="line"/>
      <point x="79.5" y="32.5" type="line"/>
      <point x="231.5" y="32.5" type="line" smooth="yes"/>
      <point x="418.5" y="32.5"/>
      <point x="554" y="168"/>
      <point x="583.5" y="350" type="curve" smooth="yes"/>
      <point x="610" y="522.5"/>
      <point x="526" y="667.5"/>
      <point x="342" y="667.5" type="curve" smooth="yes"/>
      <point x="187.5" y="667.5" type="line"/>
      <point x="193" y="700" type="line"/>
      <point x="345" y="700" type="line" smooth="yes"/>
      <point x="545.5" y="700"/>
      <point x="645" y="539.5"/>
      <point x="616.5" y="350" type="curve" smooth="yes"/>
      <point x="585" y="151.5"/>
      <point x="432" y="0"/>
    </contour>
  </outline>
</glyph>
<glyph name="E" format="2">
  <advance width="505"/>
  <unicode hex="0045"/>
  <outline>
    <contour>
      <point x="73" y="0" type="line"/>
      <point x="78" y="31" type="line"/>
      <point x="411" y="31" type="line"/>
      <point x="406" y="0" type="line"/>
    </contour>
    <contour>
      <point x="187" y="669" type="line"/>
      <point x="192" y="700" type="line"/>
      <point x="525" y="700" type="line"/>
      <point x="520" y="669" type="line"/>
    </contour>
    <contour>
      <point x="136" y="371" type="line"/>
      <point x="141" y="402" type="line"/>
      <point x="455" y="402" type="line"/>
      <point x="449" y="371" type="line"/>
    </contour>
    <contour>
      <point x="176" y="700" type="line"/>
      <point x="210" y="700" type="line"/>
      <point x="90" y="0" type="line"/>
      <point x="57" y="0" type="line"/>
    </contour>
  </outline>
</glyph>
<glyph name="F" format="1">
  <advance width="450"/>
  <unicode hex="0046"/>
  <outline>
    <contour>
      <point x="187" y="668.5" type="line"/>
      <point x="192" y="700" type="line"/>
      <point x="485.5" y="700" type="line"/>
      <point x="480.5" y="668.5" type="line"/>
    </contour>
    <contour>
      <point x="134.5" y="363.5" type="line"/>
      <point x="140" y="394" type="line"/>
      <point x="423.5" y="394" type="line"/>
      <point x="418.5" y="363" type="line"/>
    </contour>
    <contour>
      <point x="176.5" y="699.5" type="line"/>
      <point x="209.5" y="699.5" type="line"/>
      <point x="89" y="0" type="line"/>
      <point x="57" y="0" type="line"/>
    </contour>
  </outline>
</glyph>
<glyph name="G" format="1">
  <advance width="744"/>
  <unicode hex="0047"/>
  <outline>
    <contour>
      <point x="430" y="314" type="line"/>
      <point x="435" y="344" type="line"/>
      <point x="726.5" y="343.5" type="line"/>
      <point x="692" y="163"/>
      <point x="554.5" y="-8"/>
      <point x="353" y="-8" type="curve" smooth="yes"/>
      <point x="155" y="-8"/>
      <point x="50.5" y="163"/>
      <point x="78" y="350" type="curve" smooth="yes"/>
      <point x="108.5" y="547"/>
      <point x="272" y="708.5"/>
      <point x="472.5" y="708.5" type="curve" smooth="yes"/>
      <point x="589" y="708.5"/>
      <point x="673" y="650"/>
      <point x="722.5" y="557.5" type="curve"/>
      <point x="695" y="537.5" type="line"/>
      <point x="656" y="621.5"/>
      <point x="576" y="676"/>
      <point x="470" y="676" type="curve" smooth="yes"/>
      <point x="288" y="676"/>
      <point x="141" y="529.5"/>
      <point x="112" y="350" type="curve" smooth="yes"/>
      <point x="87" y="182"/>
      <point x="176" y="24.5"/>
      <point x="356" y="24.5" type="curve" smooth="yes"/>
      <point x="528.855" y="24.5"/>
      <point x="645.72" y="164.648"/>
      <point x="686.981" y="313.5" type="curve"/>
    </contour>
  </outline>
</glyph>
<glyph name="H" format="1">
  <advance width="646"/>
  <unicode hex="0048"/>
  <outline>
    <contour>
      <point x="135.5" y="366.5" type="line"/>
      <point x="140" y="397" type="line"/>
      <point x="593" y="397" type="line"/>
      <point x="588" y="366.5" type="line"/>
    </contour>
    <contour>
      <point x="623" y="699.5" type="line"/>
      <point x="656" y="699.5" type="line"/>
      <point x="535" y="0" type="line"/>
      <point x="503.5" y="0" type="line"/>
    </contour>
    <contour>
      <point x="176.5" y="699.5" type="line"/>
      <point x="209.5" y="699.5" type="line"/>
      <point x="89" y="0" type="line"/>
      <point x="57" y="0" type="line"/>
    </contour>
  </outline>
</glyph>
<glyph name="I" format="1">
  <advance width="192"/>
  <unicode hex="0049"/>
  <outline>
    <contour>
      <point x="173.5" y="699.5" type="line"/>
      <point x="205.5" y="699.5" type="line"/>
      <point x="84.5" y="0" type="line"/>
      <point x="53.5" y="0" type="line"/>
    </contour>
  </outline>
</glyph>
<glyph name="J" format="2">
  <advance width="203"/>
  <unicode hex="004A"/>
  <outline>
    <contour>
      <point x="-158" y="-142" type="line"/>
      <point x="-137" y="-166"/>
      <point x="-107" y="-188"/>
      <point x="-68" y="-188" type="curve" smooth="yes"/>
      <point x="6" y="-188"/>
      <point x="40" y="-132"/>
      <point x="52" y="-50" type="curve" smooth="yes"/>
      <point x="181" y="700" type="line"/>
      <point x="213" y="700" type="line"/>
      <point x="83" y="-60" type="line" smooth="yes"/>
      <point x="68" y="-154"/>
      <point x="22" y="-221"/>
      <point x="-72" y="-220" type="curve" smooth="yes"/>
      <point x="-120" y="-220"/>
      <point x="-159" y="-192"/>
      <point x="-179" y="-166" type="curve"/>
    </contour>
  </outline>
</glyph>
<glyph name="K" format="1">
  <advance width="472"/>
  <unicode hex="004B"/>
  <outline>
    <contour>
      <point x="173.5" y="699.5" type="line"/>
      <point x="205.5" y="699.5" type="line"/>
      <point x="85" y="0" type="line"/>
      <point x="53.5" y="0" type="line"/>
    </contour>
    <contour>
      <point x="497" y="699" type="line"/>
      <point x="539.5" y="699" type="line"/>
      <point x="179.5" y="371" type="line"/>
      <point x="433" y="0" type="line"/>
      <point x="393" y="0" type="line"/>
      <point x="140.5" y="373" type="line"/>
    </contour>
  </outline>
</glyph>
<glyph name="L" format="1">
  <advance width="422"/>
  <unicode hex="004C"/>
  <outline>
    <contour>
      <point x="177" y="699.5" type="line"/>
      <point x="209" y="699.5" type="line"/>
      <point x="94" y="30.5" type="line"/>
      <point x="385" y="30.5" type="line"/>
      <point x="379.5" y="0" type="line"/>
      <point x="57" y="0" type="line"/>
    </contour>
  </outline>
</glyph>
<glyph name="M" format="1">
  <advance width="799"/>
  <unicode hex="004D"/>
  <outline>
    <contour>
      <point x="226.796" y="612.938" type="line"/>
      <point x="57" y="0" type="line"/>
      <point x="24.5" y="0" type="line"/>
      <point x="224.5" y="721" type="line"/>
      <point x="399" y="160.5" type="line"/>
      <point x="769" y="722.5" type="line"/>
      <point x="719.5" y="0" type="line"/>
      <point x="687.5" y="0" type="line"/>
      <point x="730.205" y="611.438" type="line"/>
      <point x="389" y="92.5" type="line"/>
    </contour>
  </outline>
</glyph>
<glyph name="N" format="1">
  <advance width="676"/>
  <unicode hex="004E"/>
  <outline>
    <contour>
      <point x="667" y="699.5" type="line"/>
      <point x="699.5" y="699.5" type="line"/>
      <point x="575.5" y="-20.5" type="line"/>
      <point x="170.5" y="629.914" type="line"/>
      <point x="61.5" y="0" type="line"/>
      <point x="29" y="0" type="line"/>
      <point x="153" y="720.5" type="line"/>
      <point x="557.5" y="66.6714" type="line"/>
    </contour>
  </outline>
</glyph>
<glyph name="P" format="2">
  <advance width="484"/>
  <unicode hex="0050"/>
  <outline>
    <contour>
      <point x="176" y="700" type="line"/>
      <point x="210" y="700" type="line"/>
      <point x="90" y="0" type="line"/>
      <point x="57" y="0" type="line"/>
    </contour>
    <contour>
      <point x="189" y="669" type="line"/>
      <point x="195" y="700" type="line"/>
      <point x="316" y="700" type="line" smooth="yes"/>
      <point x="438" y="700"/>
      <point x="517" y="616"/>
      <point x="498" y="495" type="curve" smooth="yes"/>
      <point x="478" y="371"/>
      <point x="374" y="290"/>
      <point x="248" y="290" type="curve" smooth="yes"/>
      <point x="125" y="290" type="line"/>
      <point x="130" y="321" type="line"/>
      <point x="251" y="321" type="line"/>
      <point x="360" y="322"/>
      <point x="447" y="388"/>
      <point x="465" y="495" type="curve" smooth="yes"/>
      <point x="482" y="599"/>
      <point x="419" y="668"/>
      <point x="313" y="668" type="curve" smooth="yes"/>
    </contour>
  </outline>
</glyph>
<glyph name="Q" format="1">
  <advance width="753"/>
  <unicode hex="0051"/>
  <outline>
    <contour>
      <point x="112" y="350" type="curve" smooth="yes"/>
      <point x="87" y="182.5"/>
      <point x="173.5" y="24.5"/>
      <point x="354" y="24" type="curve" smooth="yes"/>
      <point x="536.5" y="23.5"/>
      <point x="680.5" y="173"/>
      <point x="709" y="350" type="curve" smooth="yes"/>
      <point x="734" y="517.5"/>
      <point x="648.5" y="675.5"/>
      <point x="468" y="676" type="curve" smooth="yes"/>
      <point x="285.5" y="676.5"/>
      <point x="140.5" y="527"/>
    </contour>
    <contour>
      <point x="78" y="350" type="curve" smooth="yes"/>
      <point x="108.5" y="546"/>
      <point x="270.5" y="709"/>
      <point x="470.5" y="708.5" type="curve" smooth="yes"/>
      <point x="668" y="708"/>
      <point x="770.5" y="536.5"/>
      <point x="743.5" y="350" type="curve" smooth="yes"/>
      <point x="713" y="154"/>
      <point x="551" y="-9"/>
      <point x="351" y="-8.5" type="curve" smooth="yes"/>
      <point x="153.5" y="-8"/>
      <point x="51" y="163.5"/>
    </contour>
    <contour>
      <point x="406.5" y="300" type="line"/>
      <point x="447.5" y="300" type="line"/>
      <point x="702" y="0" type="line"/>
      <point x="661" y="0" type="line"/>
    </contour>
  </outline>
</glyph>
<glyph name="R" format="1">
  <advance width="479"/>
  <unicode hex="0052"/>
  <outline>
    <contour>
      <point x="223" y="325.5" type="line"/>
      <point x="258.5" y="325.5" type="line"/>
      <point x="426" y="0" type="line"/>
      <point x="388" y="0" type="line"/>
    </contour>
    <contour>
      <point x="176.5" y="699.5" type="line"/>
      <point x="209.5" y="699.5" type="line"/>
      <point x="89" y="0" type="line"/>
      <point x="57" y="0" type="line"/>
    </contour>
    <contour>
      <point x="186" y="670" type="line"/>
      <point x="191" y="700" type="line"/>
      <point x="308.5" y="700" type="line" smooth="yes"/>
      <point x="433.5" y="700"/>
      <point x="525.5" y="626"/>
      <point x="506" y="502" type="curve" smooth="yes"/>
      <point x="486" y="375.5"/>
      <point x="373.5" y="305.5"/>
      <point x="243.5" y="304" type="curve" smooth="yes"/>
      <point x="123.5" y="304" type="line"/>
      <point x="128.5" y="333.5" type="line"/>
      <point x="245.5" y="333.5" type="line" smooth="yes"/>
      <point x="359.5" y="335"/>
      <point x="455.5" y="392.5"/>
      <point x="474" y="502" type="curve" smooth="yes"/>
      <point x="492" y="609.5"/>
      <point x="414.5" y="668"/>
      <point x="306" y="670" type="curve"/>
    </contour>
  </outline>
</glyph>
<glyph name="S" format="1">
  <advance width="490"/>
  <unicode hex="0053"/>
  <outline>
    <contour>
      <point x="73.5" y="205.5" type="line"/>
      <point x="90.5" y="119.5"/>
      <point x="127.5" y="24"/>
      <point x="234" y="23" type="curve" smooth="yes"/>
      <point x="338.5" y="22"/>
      <point x="403" y="89"/>
      <point x="417.5" y="177.5" type="curve" smooth="yes"/>
      <point x="431.5" y="269.5"/>
      <point x="362.5" y="320.5"/>
      <point x="288.5" y="353" type="curve" smooth="yes"/>
      <point x="211.5" y="387"/>
      <point x="126" y="442"/>
      <point x="141.5" y="545" type="curve" smooth="yes"/>
      <point x="156.5" y="640.5"/>
      <point x="246.5" y="708.5"/>
      <point x="345" y="708" type="curve" smooth="yes"/>
      <point x="448.5" y="707.5"/>
      <point x="496.5" y="629"/>
      <point x="509.5" y="552.5" type="curve"/>
      <point x="480.5" y="538" type="line"/>
      <point x="467.5" y="605"/>
      <point x="431" y="675.5"/>
      <point x="341.5" y="676" type="curve" smooth="yes"/>
      <point x="260.5" y="676.5"/>
      <point x="187.5" y="620"/>
      <point x="175" y="544" type="curve" smooth="yes"/>
      <point x="160" y="456"/>
      <point x="240.5" y="409.5"/>
      <point x="316" y="376" type="curve" smooth="yes"/>
      <point x="395.5" y="341"/>
      <point x="465" y="282"/>
      <point x="451" y="179.5" type="curve" smooth="yes"/>
      <point x="434.5" y="74.5"/>
      <point x="356" y="-8.5"/>
      <point x="230.5" y="-8" type="curve" smooth="yes"/>
      <point x="113" y="-7.5"/>
      <point x="63" y="92"/>
      <point x="44.5" y="190.5" type="curve"/>
    </contour>
  </outline>
</glyph>
<glyph name="T" format="1">
  <advance width="427"/>
  <unicode hex="0054"/>
  <outline>
    <contour>
      <point x="103.5" y="668.5" type="line"/>
      <point x="108.5" y="700" type="line"/>
      <point x="504" y="700" type="line"/>
      <point x="499" y="668.5" type="line"/>
      <point x="317" y="668.5" type="line"/>
      <point x="202.5" y="0" type="line"/>
      <point x="170" y="0" type="line"/>
      <point x="285" y="668.5" type="line"/>
    </contour>
  </outline>
</glyph>
<glyph name="U" format="1">
  <advance width="572"/>
  <unicode hex="0055"/>
  <outline>
    <contour>
      <point x="172.5" y="699.5" type="line"/>
      <point x="204.5" y="699.5" type="line"/>
      <point x="122.5" y="223" type="line" smooth="yes"/>
      <point x="108.5" y="116"/>
      <point x="146.5" y="22.5"/>
      <point x="262" y="22" type="curve" smooth="yes"/>
      <point x="380.5" y="21.5"/>
      <point x="454" y="110.5"/>
      <point x="472.5" y="223" type="curve" smooth="yes"/>
      <point x="554.5" y="699.5" type="line"/>
      <point x="587" y="699.5" type="line"/>
      <point x="505.5" y="223" type="line" smooth="yes"/>
      <point x="484.5" y="94"/>
      <point x="401.5" y="-10"/>
      <point x="260" y="-9.5" type="curve" smooth="yes"/>
      <point x="123.5" y="-9"/>
      <point x="73.5" y="99.5"/>
      <point x="90.5" y="223" type="curve" smooth="yes"/>
    </contour>
  </outline>
</glyph>
<glyph name="V" format="1">
  <advance width="599"/>
  <unicode hex="0056"/>
  <outline>
    <contour>
      <point x="290" y="57" type="line"/>
      <point x="642" y="699.5" type="line"/>
      <point x="679.5" y="699.5" type="line"/>
      <point x="279" y="-21.5" type="line"/>
      <point x="102.5" y="700" type="line"/>
      <point x="138.5" y="700" type="line"/>
    </contour>
  </outline>
</glyph>
<glyph name="W" format="1">
  <advance width="933"/>
  <unicode hex="0057"/>
  <outline>
    <contour>
      <point x="669.361" y="72.8092" type="line"/>
      <point x="973" y="699.5" type="line"/>
      <point x="1008.5" y="699.5" type="line"/>
      <point x="656.5" y="-22" type="line"/>
      <point x="547" y="626" type="line"/>
      <point x="235.5" y="-22" type="line"/>
      <point x="107" y="700" type="line"/>
      <point x="142" y="700" type="line"/>
      <point x="249.639" y="72.8092" type="line"/>
      <point x="561" y="722" type="line"/>
    </contour>
  </outline>
</glyph>
<glyph name="X" format="1">
  <advance width="500"/>
  <unicode hex="0058"/>
  <outline>
    <contour>
      <point x="521.5" y="699" type="line"/>
      <point x="561.5" y="699" type="line"/>
      <point x="308.5" y="366" type="line"/>
      <point x="467.5" y="0" type="line"/>
      <point x="429.5" y="0" type="line"/>
      <point x="288" y="336.5" type="line"/>
      <point x="38" y="0" type="line"/>
      <point x="-2" y="0" type="line"/>
      <point x="276.5" y="368" type="line"/>
      <point x="131.5" y="700" type="line"/>
      <point x="169.5" y="700" type="line"/>
      <point x="297" y="396.5" type="line"/>
    </contour>
  </outline>
</glyph>
<glyph name="Y" format="2">
  <advance width="507"/>
  <unicode hex="0059"/>
  <outline>
    <contour>
      <point x="552" y="699" type="line"/>
      <point x="590" y="699" type="line"/>
      <point x="287" y="277" type="line"/>
      <point x="240" y="0" type="line"/>
      <point x="206" y="0" type="line"/>
      <point x="255" y="278" type="line"/>
      <point x="104" y="700" type="line"/>
      <point x="141" y="700" type="line"/>
      <point x="275" y="311" type="line"/>
    </contour>
  </outline>
</glyph>
<glyph name="Z" format="1">
  <advance width="521"/>
  <unicode hex="005A"/>
  <outline>
    <contour>
      <point x="123.5" y="668.5" type="line"/>
      <point x="129.5" y="700" type="line"/>
      <point x="599.5" y="700" type="line"/>
      <point x="52" y="32" type="line"/>
      <point x="472" y="32" type="line"/>
      <point x="466.5" y="0" type="line"/>
      <point x="-10.5" y="0" type="line"/>
      <point x="537.5" y="668.5" type="line"/>
    </contour>
  </outline>
</glyph>
<glyph name="bracketleft" format="1">
  <advance width="263"/>
  <unicode hex="005B"/>
  <outline>
    <contour>
      <point x="227" y="750" type="line"/>
      <point x="81.5" y="-190" type="line"/>
      <point x="198" y="-190" type="line"/>
      <point x="193.5" y="-220" type="line"/>
      <point x="45.5" y="-220" type="line"/>
      <point x="200" y="780" type="line"/>
      <point x="348" y="780" type="line"/>
      <point x="343.5" y="750.5" type="line"/>
    </contour>
  </outline>
</glyph>
<glyph name="backslash" format="1">
  <advance width="444"/>
  <unicode hex="005C"/>
  <outline>
    <contour>
      <point x="106.5" y="700" type="line"/>
      <point x="140" y="700" type="line"/>
      <point x="403" y="0" type="line"/>
      <point x="371" y="0" type="line"/>
    </contour>
  </outline>
</glyph>
<glyph name="bracketright" format="1">
  <advance width="263"/>
  <unicode hex="005D"/>
  <outline>
    <contour>
      <point x="89" y="-190" type="line"/>
      <point x="234" y="750" type="line"/>
      <point x="117.5" y="750" type="line"/>
      <point x="122.5" y="780" type="line"/>
      <point x="270" y="780" type="line"/>
      <point x="115.5" y="-220" type="line"/>
      <point x="-32" y="-220" type="line"/>
      <point x="-27.5" y="-190.5" type="line"/>
    </contour>
  </outline>
</glyph>
<glyph name="asciicircum" format="1">
  <advance width="494"/>
  <unicode hex="005E"/>
  <outline>
    <contour>
      <point x="335.5" y="671" type="line"/>
      <point x="148" y="461" type="line"/>
      <point x="113" y="461" type="line"/>
      <point x="335" y="709" type="line"/>
      <point x="346" y="709.5" type="line"/>
      <point x="483.5" y="460" type="line"/>
      <point x="451.5" y="460" type="line"/>
    </contour>
  </outline>
</glyph>
<glyph name="underscore" format="2">
  <advance width="485"/>
  <unicode hex="005F"/>
  <outline>
    <contour>
      <point x="-47" y="-116" type="line"/>
      <point x="-43" y="-92" type="line"/>
      <point x="443" y="-92" type="line"/>
      <point x="439" y="-116" type="line"/>
    </contour>
  </outline>
</glyph>
<glyph name="grave" format="1">
  <advance width="348"/>
  <unicode hex="0060"/>
  <outline>
    <contour>
      <point x="177" y="682.5" type="line"/>
      <point x="206" y="699.5" type="line"/>
      <point x="342" y="539.5" type="line"/>
      <point x="325.5" y="528.5" type="line"/>
    </contour>
  </outline>
</glyph>
<glyph name="b" format="1">
  <advance width="532"/>
  <unicode hex="0062"/>
  <outline>
    <contour>
      <point x="211.5" y="779.5" type="line"/>
      <point x="77" y="0" type="line"/>
      <point x="47" y="0" type="line"/>
      <point x="181" y="779.5" type="line"/>
    </contour>
    <contour>
      <point x="505.5" y="230" type="curve" smooth="yes"/>
      <point x="486" y="97"/>
      <point x="382" y="-11"/>
      <point x="254" y="-9.5" type="curve" smooth="yes"/>
      <point x="130" y="-8"/>
      <point x="87.5" y="113.5"/>
      <point x="103" y="230" type="curve" smooth="yes"/>
      <point x="121.5" y="354.5"/>
      <point x="209" y="469"/>
      <point x="333" y="469.5" type="curve" smooth="yes"/>
      <point x="460.5" y="470"/>
      <point x="523" y="356.5"/>
    </contour>
    <contour>
      <point x="474.5" y="230" type="curve" smooth="yes"/>
      <point x="490" y="340"/>
      <point x="438" y="440.5"/>
      <point x="326" y="440" type="curve" smooth="yes"/>
      <point x="221.5" y="439.5"/>
      <point x="134" y="335"/>
      <point x="117" y="230" type="curve" smooth="yes"/>
      <point x="103" y="132.5"/>
      <point x="148" y="22"/>
      <point x="251.5" y="20" type="curve" smooth="yes"/>
      <point x="363" y="17.5"/>
      <point x="456.5" y="113.5"/>
    </contour>
  </outline>
</glyph>
<glyph name="c" format="2">
  <advance width="469"/>
  <unicode hex="0063"/>
  <outline>
    <contour>
      <point x="85" y="230" type="curve" smooth="yes"/>
      <point x="70" y="120"/>
      <point x="133" y="21"/>
      <point x="248" y="20" type="curve" smooth="yes"/>
      <point x="317" y="20"/>
      <point x="376" y="54"/>
      <point x="412" y="87" type="curve"/>
      <point x="406" y="48" type="line"/>
      <point x="369" y="17"/>
      <point x="311" y="-10"/>
      <point x="246" y="-10" type="curve" smooth="yes"/>
      <point x="114" y="-10"/>
      <point x="37" y="103"/>
      <point x="54" y="230" type="curve" smooth="yes"/>
      <point x="72" y="362"/>
      <point x="183" y="470"/>
      <point x="317" y="470" type="curve" smooth="yes"/>
      <point x="378" y="470"/>
      <point x="432" y="445"/>
      <point x="462" y="412" type="curve"/>
      <point x="456" y="372" type="line"/>
      <point x="431" y="409"/>
      <point x="379" y="440"/>
      <point x="315" y="440" type="curve" smooth="yes"/>
      <point x="199" y="440"/>
      <point x="102" y="345"/>
    </contour>
  </outline>
</glyph>
<glyph name="d" format="2">
  <advance width="533"/>
  <unicode hex="0064"/>
  <outline>
    <contour>
      <point x="534" y="780" type="line"/>
      <point x="566" y="780" type="line"/>
      <point x="431" y="0" type="line"/>
      <point x="401" y="0" type="line"/>
    </contour>
    <contour>
      <point x="52" y="230" type="curve" smooth="yes"/>
      <point x="71" y="363"/>
      <point x="176" y="471"/>
      <point x="304" y="470" type="curve" smooth="yes"/>
      <point x="428" y="469"/>
      <point x="471" y="342"/>
      <point x="455" y="230" type="curve" smooth="yes"/>
      <point x="437" y="110"/>
      <point x="348" y="-10"/>
      <point x="224" y="-10" type="curve" smooth="yes"/>
      <point x="97" y="-10"/>
      <point x="35" y="104"/>
    </contour>
    <contour>
      <point x="84" y="230" type="curve" smooth="yes"/>
      <point x="68" y="120"/>
      <point x="120" y="19"/>
      <point x="232" y="20" type="curve" smooth="yes"/>
      <point x="336" y="21"/>
      <point x="424" y="125"/>
      <point x="441" y="230" type="curve" smooth="yes"/>
      <point x="455" y="327"/>
      <point x="409" y="438"/>
      <point x="306" y="440" type="curve" smooth="yes"/>
      <point x="194" y="442"/>
      <point x="102" y="346"/>
    </contour>
  </outline>
</glyph>
<glyph name="e" format="1">
  <advance width="490"/>
  <unicode hex="0065"/>
  <outline>
    <contour>
      <point x="77.6" y="222.8" type="line"/>
      <point x="81.1" y="250" type="line"/>
      <point x="438.112" y="250" type="line"/>
      <point x="454.999" y="344.029"/>
      <point x="405.589" y="440.5"/>
      <point x="302.2" y="441.5" type="curve" smooth="yes"/>
      <point x="196.5" y="442.5"/>
      <point x="108.95" y="352"/>
      <point x="90.95" y="241.2" type="curve"/>
      <point x="89.65" y="231.7" type="line"/>
      <point x="78.15" y="125.1"/>
      <point x="121.8" y="20.75"/>
      <point x="230.95" y="19.75" type="curve" smooth="yes"/>
      <point x="320.8" y="19.25"/>
      <point x="376.75" y="72.1"/>
      <point x="419.4" y="123.25" type="curve"/>
      <point x="442.45" y="106" type="line"/>
      <point x="394.05" y="47.7"/>
      <point x="333.05" y="-10"/>
      <point x="225.95" y="-9.5" type="curve" smooth="yes"/>
      <point x="102.45" y="-8.5"/>
      <point x="44.5" y="110.2"/>
      <point x="59" y="231.2" type="curve" smooth="yes"/>
      <point x="62.5" y="254.7"/>
      <point x="68.2" y="277.85"/>
      <point x="77.1" y="299.65" type="curve" smooth="yes"/>
      <point x="113.4" y="393.85"/>
      <point x="198.55" y="470"/>
      <point x="303.7" y="469.5" type="curve" smooth="yes"/>
      <point x="420.45" y="468.5"/>
      <point x="485.45" y="364"/>
      <point x="471.45" y="248" type="curve" smooth="yes"/>
      <point x="469.95" y="239.5"/>
      <point x="468.1" y="230.8"/>
      <point x="466.1" y="222.8" type="curve"/>
    </contour>
  </outline>
</glyph>
<glyph name="f" format="1">
  <advance width="271"/>
  <unicode hex="0066"/>
  <outline>
    <contour>
      <point x="97" y="460" type="line"/>
      <point x="296.5" y="460" type="line"/>
      <point x="291.5" y="430.5" type="line"/>
      <point x="91.5" y="430.5" type="line"/>
    </contour>
    <contour>
      <point x="364.5" y="718.5" type="line"/>
      <point x="350" y="738.5"/>
      <point x="331.5" y="757.5"/>
      <point x="303.5" y="758" type="curve" smooth="yes"/>
      <point x="240" y="759.5"/>
      <point x="211.5" y="695"/>
      <point x="202" y="641" type="curve" smooth="yes"/>
      <point x="92" y="0" type="line"/>
      <point x="61.5" y="0" type="line"/>
      <point x="171.5" y="644" type="line" smooth="yes"/>
      <point x="183.5" y="717"/>
      <point x="225.5" y="790.5"/>
      <point x="308" y="788" type="curve" smooth="yes"/>
      <point x="346" y="787"/>
      <point x="369" y="765"/>
      <point x="385" y="742.5" type="curve"/>
    </contour>
  </outline>
</glyph>
<glyph name="g" format="1">
  <advance width="532"/>
  <unicode hex="0067"/>
  <outline>
    <contour>
      <point x="21.5" y="-30" type="curve"/>
      <point x="51.5" y="-30" type="line"/>
      <point x="42" y="-122.5"/>
      <point x="85" y="-199"/>
      <point x="187.5" y="-200" type="curve" smooth="yes"/>
      <point x="295.5" y="-201"/>
      <point x="385" y="-113.5"/>
      <point x="403" y="10" type="curve" smooth="yes"/>
      <point x="480.5" y="459.5" type="line"/>
      <point x="510.5" y="459.5" type="line"/>
      <point x="433.5" y="10" type="line" smooth="yes"/>
      <point x="413" y="-129.5"/>
      <point x="314.5" y="-229.5"/>
      <point x="187" y="-229.5" type="curve" smooth="yes"/>
      <point x="67" y="-229.5"/>
      <point x="9.5" y="-139.5"/>
    </contour>
    <contour>
      <point x="52.5" y="230" type="curve" smooth="yes"/>
      <point x="72" y="363"/>
      <point x="176" y="471"/>
      <point x="304" y="469.5" type="curve" smooth="yes"/>
      <point x="428" y="468"/>
      <point x="470.5" y="346.5"/>
      <point x="455" y="230" type="curve" smooth="yes"/>
      <point x="436.5" y="105.5"/>
      <point x="348.5" y="-9"/>
      <point x="224.5" y="-9.5" type="curve" smooth="yes"/>
      <point x="97" y="-10"/>
      <point x="35" y="103.5"/>
    </contour>
    <contour>
      <point x="83.5" y="230" type="curve" smooth="yes"/>
      <point x="67.5" y="119.5"/>
      <point x="119" y="19.5"/>
      <point x="231" y="20" type="curve" smooth="yes"/>
      <point x="336.5" y="20.5"/>
      <point x="425" y="127"/>
      <point x="441.5" y="234" type="curve" smooth="yes"/>
      <point x="455.5" y="327.5"/>
      <point x="408" y="438"/>
      <point x="305.5" y="440" type="curve" smooth="yes"/>
      <point x="194" y="442.5"/>
      <point x="101.5" y="346.5"/>
    </contour>
  </outline>
</glyph>
<glyph name="h" format="1">
  <advance width="474"/>
  <unicode hex="0068"/>
  <outline>
    <contour>
      <point x="216.5" y="779.5" type="line"/>
      <point x="82" y="0" type="line"/>
      <point x="51.5" y="0" type="line"/>
      <point x="186" y="779.5" type="line"/>
    </contour>
    <contour>
      <point x="391.5" y="308" type="line" smooth="yes"/>
      <point x="400.5" y="378"/>
      <point x="383.5" y="439"/>
      <point x="303.5" y="440" type="curve" smooth="yes"/>
      <point x="215" y="441"/>
      <point x="148.5" y="360.5"/>
      <point x="129.5" y="281" type="curve"/>
      <point x="116" y="281" type="line"/>
      <point x="136" y="379"/>
      <point x="210" y="470"/>
      <point x="311.5" y="469.5" type="curve" smooth="yes"/>
      <point x="406" y="469"/>
      <point x="433" y="396.5"/>
      <point x="422" y="311" type="curve"/>
      <point x="368" y="0" type="line"/>
      <point x="338.5" y="0" type="line"/>
    </contour>
  </outline>
</glyph>
<glyph name="i" format="2">
  <advance width="204"/>
  <unicode hex="0069"/>
  <outline>
    <contour>
      <point x="168" y="681" type="curve" smooth="yes"/>
      <point x="168" y="694"/>
      <point x="178" y="705"/>
      <point x="192" y="705" type="curve" smooth="yes"/>
      <point x="206" y="705"/>
      <point x="216" y="694"/>
      <point x="216" y="681" type="curve" smooth="yes"/>
      <point x="216" y="668"/>
      <point x="206" y="658"/>
      <point x="192" y="658" type="curve" smooth="yes"/>
      <point x="178" y="658"/>
      <point x="168" y="668"/>
    </contour>
    <contour>
      <point x="139" y="460" type="line"/>
      <point x="170" y="460" type="line"/>
      <point x="91" y="0" type="line"/>
      <point x="60" y="0" type="line"/>
    </contour>
  </outline>
</glyph>
<glyph name="j" format="1">
  <advance width="194"/>
  <unicode hex="006A"/>
  <outline>
    <contour>
      <point x="158.5" y="682" type="curve" smooth="yes"/>
      <point x="158.5" y="695"/>
      <point x="168.5" y="705"/>
      <point x="182" y="705" type="curve" smooth="yes"/>
      <point x="195.5" y="705"/>
      <point x="205" y="695"/>
      <point x="205" y="682" type="curve" smooth="yes"/>
      <point x="205" y="669"/>
      <point x="195.5" y="658.5"/>
      <point x="182" y="658.5" type="curve" smooth="yes"/>
      <point x="168.5" y="658.5"/>
      <point x="158.5" y="669"/>
    </contour>
    <contour>
      <point x="-124" y="-150" type="line"/>
      <point x="-111" y="-169"/>
      <point x="-91" y="-189"/>
      <point x="-64.5" y="-189" type="curve" smooth="yes"/>
      <point x="-0.5" y="-189.5"/>
      <point x="29.5" y="-125"/>
      <point x="38" y="-72.5" type="curve" smooth="yes"/>
      <point x="129" y="459.5" type="line"/>
      <point x="159.5" y="459.5" type="line"/>
      <point x="68" y="-76" type="line" smooth="yes"/>
      <point x="56" y="-149"/>
      <point x="16" y="-220"/>
      <point x="-66.5" y="-219.5" type="curve" smooth="yes"/>
      <point x="-104.5" y="-219.5"/>
      <point x="-128.5" y="-196"/>
      <point x="-145" y="-173.5" type="curve"/>
    </contour>
  </outline>
</glyph>
<glyph name="k" format="1">
  <advance width="380"/>
  <unicode hex="006B"/>
  <outline>
    <contour>
      <point x="180.5" y="779.5" type="line"/>
      <point x="211.5" y="779.5" type="line"/>
      <point x="77" y="0" type="line"/>
      <point x="47.5" y="0" type="line"/>
    </contour>
    <contour>
      <point x="367" y="459" type="line"/>
      <point x="408" y="459" type="line"/>
      <point x="150.5" y="268" type="line"/>
      <point x="346.5" y="0" type="line"/>
      <point x="309.5" y="0" type="line"/>
      <point x="114" y="271" type="line"/>
    </contour>
  </outline>
</glyph>
<glyph name="l" format="2">
  <advance width="188"/>
  <unicode hex="006C"/>
  <outline>
    <contour>
      <point x="185" y="780" type="line"/>
      <point x="217" y="780" type="line"/>
      <point x="82" y="0" type="line"/>
      <point x="52" y="0" type="line"/>
    </contour>
  </outline>
</glyph>
<glyph name="m" format="1">
  <advance width="695"/>
  <unicode hex="006D"/>
  <outline>
    <contour>
      <point x="358.5" y="308" type="line" smooth="yes"/>
      <point x="366" y="373"/>
      <point x="357" y="438.5"/>
      <point x="286.5" y="440" type="curve" smooth="yes"/>
      <point x="208" y="442"/>
      <point x="146.5" y="358"/>
      <point x="129.5" y="281" type="curve"/>
      <point x="116" y="281" type="line"/>
      <point x="134" y="375.5"/>
      <point x="203.5" y="471"/>
      <point x="294.5" y="469.5" type="curve" smooth="yes"/>
      <point x="379.5" y="468.5"/>
      <point x="398.5" y="392"/>
      <point x="389" y="311" type="curve" smooth="yes"/>
      <point x="335" y="0" type="line"/>
      <point x="305" y="0" type="line"/>
    </contour>
    <contour>
      <point x="162" y="459.5" type="line"/>
      <point x="82" y="0" type="line"/>
      <point x="51.5" y="0" type="line"/>
      <point x="131.5" y="459.5" type="line"/>
    </contour>
    <contour>
      <point x="642" y="311" type="curve" smooth="yes"/>
      <point x="588.5" y="0" type="line"/>
      <point x="558" y="0" type="line"/>
      <point x="611.5" y="308" type="line" smooth="yes"/>
      <point x="619.5" y="373"/>
      <point x="610.5" y="438.5"/>
      <point x="540" y="440" type="curve" smooth="yes"/>
      <point x="461.5" y="442"/>
      <point x="400" y="357.5"/>
      <point x="383" y="281" type="curve"/>
      <point x="363.5" y="281" type="line"/>
      <point x="382.5" y="376"/>
      <point x="457" y="471"/>
      <point x="548.5" y="469.5" type="curve" smooth="yes"/>
      <point x="633.5" y="468.5"/>
      <point x="651.5" y="392"/>
    </contour>
  </outline>
</glyph>
<glyph name="n" format="1">
  <advance width="474"/>
  <unicode hex="006E"/>
  <outline>
    <contour>
      <point x="162" y="459.5" type="line"/>
      <point x="82" y="0" type="line"/>
      <point x="51.5" y="0" type="line"/>
      <point x="131.5" y="459.5" type="line"/>
    </contour>
    <contour>
      <point x="391.5" y="308" type="line" smooth="yes"/>
      <point x="400.5" y="378"/>
      <point x="383.5" y="439"/>
      <point x="303.5" y="440" type="curve" smooth="yes"/>
      <point x="215" y="441"/>
      <point x="148.5" y="360.5"/>
      <point x="129.5" y="281" type="curve"/>
      <point x="116" y="281" type="line"/>
      <point x="136" y="379"/>
      <point x="210" y="470"/>
      <point x="311.5" y="469.5" type="curve" smooth="yes"/>
      <point x="406" y="469"/>
      <point x="433" y="396.5"/>
      <point x="422" y="311" type="curve"/>
      <point x="368" y="0" type="line"/>
      <point x="338.5" y="0" type="line"/>
    </contour>
  </outline>
</glyph>
<glyph name="o" format="1">
  <advance width="536"/>
  <unicode hex="006F"/>
  <outline>
    <contour>
      <point x="58.5" y="230" type="curve" smooth="yes"/>
      <point x="77" y="362"/>
      <point x="188" y="470"/>
      <point x="322" y="469.5" type="curve" smooth="yes"/>
      <point x="454.5" y="469"/>
      <point x="531.5" y="356.5"/>
      <point x="514.5" y="230" type="curve" smooth="yes"/>
      <point x="496" y="98"/>
      <point x="384.5" y="-10"/>
      <point x="250.5" y="-9.5" type="curve" smooth="yes"/>
      <point x="118" y="-9"/>
      <point x="41.5" y="103.5"/>
    </contour>
    <contour>
      <point x="89.5" y="230" type="curve" smooth="yes"/>
      <point x="74" y="120.5"/>
      <point x="137.5" y="20.5"/>
      <point x="252.5" y="20" type="curve" smooth="yes"/>
      <point x="368.5" y="19.5"/>
      <point x="467.5" y="115"/>
      <point x="484.5" y="230" type="curve" smooth="yes"/>
      <point x="500" y="339.5"/>
      <point x="435" y="439.5"/>
      <point x="320" y="440" type="curve" smooth="yes"/>
      <point x="204" y="440.5"/>
      <point x="106.5" y="345"/>
    </contour>
  </outline>
</glyph>
<glyph name="p" format="2">
  <advance width="533"/>
  <unicode hex="0070"/>
  <outline>
    <contour>
      <point x="40" y="-220" type="line"/>
      <point x="9" y="-220" type="line"/>
      <point x="126" y="460" type="line"/>
      <point x="157" y="460" type="line"/>
    </contour>
    <contour>
      <point x="506" y="230" type="curve" smooth="yes"/>
      <point x="486" y="97"/>
      <point x="382" y="-11"/>
      <point x="254" y="-10" type="curve" smooth="yes"/>
      <point x="130" y="-9"/>
      <point x="87" y="118"/>
      <point x="103" y="230" type="curve" smooth="yes"/>
      <point x="121" y="350"/>
      <point x="209" y="470"/>
      <point x="333" y="470" type="curve" smooth="yes"/>
      <point x="460" y="470"/>
      <point x="523" y="356"/>
    </contour>
    <contour>
      <point x="474" y="230" type="curve" smooth="yes"/>
      <point x="490" y="340"/>
      <point x="438" y="441"/>
      <point x="326" y="440" type="curve" smooth="yes"/>
      <point x="222" y="439"/>
      <point x="134" y="335"/>
      <point x="117" y="230" type="curve" smooth="yes"/>
      <point x="103" y="133"/>
      <point x="149" y="22"/>
      <point x="252" y="20" type="curve" smooth="yes"/>
      <point x="364" y="18"/>
      <point x="456" y="114"/>
    </contour>
  </outline>
</glyph>
<glyph name="q" format="1">
  <advance width="532"/>
  <unicode hex="0071"/>
  <outline>
    <contour>
      <point x="363.5" y="-219.5" type="line"/>
      <point x="480.5" y="459.5" type="line"/>
      <point x="510.5" y="459.5" type="line"/>
      <point x="393" y="-219.5" type="line"/>
    </contour>
    <contour>
      <point x="52.5" y="230" type="curve" smooth="yes"/>
      <point x="72" y="363"/>
      <point x="176" y="471"/>
      <point x="304" y="469.5" type="curve" smooth="yes"/>
      <point x="428" y="468"/>
      <point x="470.5" y="346.5"/>
      <point x="455" y="230" type="curve" smooth="yes"/>
      <point x="436.5" y="105.5"/>
      <point x="348.5" y="-9"/>
      <point x="224.5" y="-9.5" type="curve" smooth="yes"/>
      <point x="97" y="-10"/>
      <point x="35" y="103.5"/>
    </contour>
    <contour>
      <point x="83.5" y="230" type="curve" smooth="yes"/>
      <point x="68" y="120"/>
      <point x="119" y="19.5"/>
      <point x="231" y="20" type="curve" smooth="yes"/>
      <point x="335.5" y="20.5"/>
      <point x="424" y="125"/>
      <point x="441" y="230" type="curve" smooth="yes"/>
      <point x="455" y="327.5"/>
      <point x="409" y="438"/>
      <point x="305.5" y="440" type="curve" smooth="yes"/>
      <point x="194" y="442.5"/>
      <point x="101.5" y="346.5"/>
    </contour>
  </outline>
</glyph>
<glyph name="r" format="1">
  <advance width="295"/>
  <unicode hex="0072"/>
  <outline>
    <contour>
      <point x="162" y="459.5" type="line"/>
      <point x="82" y="0" type="line"/>
      <point x="51.5" y="0" type="line"/>
      <point x="131.5" y="459.5" type="line"/>
    </contour>
    <contour>
      <point x="314" y="420.5" type="line"/>
      <point x="297.5" y="432"/>
      <point x="281.5" y="439.5"/>
      <point x="261" y="440" type="curve" smooth="yes"/>
      <point x="182.5" y="442"/>
      <point x="143.5" y="355"/>
      <point x="129.5" y="280.5" type="curve"/>
      <point x="115" y="280.5" type="line"/>
      <point x="131" y="372"/>
      <point x="176.5" y="471.5"/>
      <point x="269.5" y="469.5" type="curve" smooth="yes"/>
      <point x="294" y="469.5"/>
      <point x="315.5" y="459"/>
      <point x="334.5" y="444.5" type="curve"/>
    </contour>
  </outline>
</glyph>
<glyph name="s" format="1">
  <advance width="391"/>
  <unicode hex="0073"/>
  <outline>
    <contour>
      <point x="66.5" y="151" type="line"/>
      <point x="74.5" y="87.5"/>
      <point x="101" y="20"/>
      <point x="181.5" y="19.5" type="curve" smooth="yes"/>
      <point x="243.5" y="19"/>
      <point x="296.5" y="60.5"/>
      <point x="304.5" y="118.5" type="curve" smooth="yes"/>
      <point x="313" y="178.5"/>
      <point x="261.5" y="205.5"/>
      <point x="206.5" y="225.5" type="curve" smooth="yes"/>
      <point x="142.5" y="249"/>
      <point x="87.5" y="279.5"/>
      <point x="98.5" y="357.5" type="curve" smooth="yes"/>
      <point x="109" y="426"/>
      <point x="173" y="468.5"/>
      <point x="244.5" y="468" type="curve" smooth="yes"/>
      <point x="317.5" y="467.5"/>
      <point x="355" y="419"/>
      <point x="371" y="365.5" type="curve"/>
      <point x="343.5" y="354.5" type="line"/>
      <point x="329" y="399"/>
      <point x="301.5" y="438.5"/>
      <point x="242" y="439" type="curve" smooth="yes"/>
      <point x="187" y="439.5"/>
      <point x="136.5" y="409"/>
      <point x="128.5" y="356.5" type="curve" smooth="yes"/>
      <point x="118.5" y="292.5"/>
      <point x="174" y="268.5"/>
      <point x="230" y="248.5" type="curve" smooth="yes"/>
      <point x="290.5" y="225.5"/>
      <point x="344.5" y="188"/>
      <point x="335.5" y="120" type="curve" smooth="yes"/>
      <point x="325.5" y="42"/>
      <point x="260" y="-9.5"/>
      <point x="178" y="-9.5" type="curve" smooth="yes"/>
      <point x="84.5" y="-9.5"/>
      <point x="47.5" y="64.5"/>
      <point x="39" y="140" type="curve"/>
    </contour>
  </outline>
</glyph>
<glyph name="t" format="1">
  <advance width="198"/>
  <unicode hex="0074"/>
  <outline>
    <contour>
      <point x="65" y="460" type="line"/>
      <point x="241" y="460" type="line"/>
      <point x="235.5" y="430.5" type="line"/>
      <point x="59.5" y="430.5" type="line"/>
    </contour>
    <contour>
      <point x="163" y="619.5" type="line"/>
      <point x="194" y="619.5" type="line"/>
      <point x="87" y="0" type="line"/>
      <point x="57" y="0" type="line"/>
    </contour>
  </outline>
</glyph>
<glyph name="u" format="1">
  <advance width="474"/>
  <unicode hex="0075"/>
  <outline>
    <contour>
      <point x="338" y="0" type="line"/>
      <point x="417.5" y="459.5" type="line"/>
      <point x="448" y="459.5" type="line"/>
      <point x="368.5" y="0" type="line"/>
    </contour>
    <contour>
      <point x="109" y="159" type="line" smooth="yes"/>
      <point x="99.5" y="86"/>
      <point x="114" y="21"/>
      <point x="196" y="20" type="curve" smooth="yes"/>
      <point x="284.5" y="19"/>
      <point x="351" y="99"/>
      <point x="370" y="179" type="curve"/>
      <point x="384" y="179" type="line"/>
      <point x="364" y="81"/>
      <point x="289.5" y="-10"/>
      <point x="188" y="-9.5" type="curve" smooth="yes"/>
      <point x="91.5" y="-9"/>
      <point x="67" y="67"/>
      <point x="78.5" y="156" type="curve"/>
      <point x="131.5" y="459.5" type="line"/>
      <point x="161.5" y="459.5" type="line"/>
    </contour>
  </outline>
</glyph>
<glyph name="v" format="2">
  <advance width="412"/>
  <unicode hex="0076"/>
  <outline>
    <contour>
      <point x="61" y="460" type="line"/>
      <point x="95" y="460" type="line"/>
      <point x="197" y="49" type="line"/>
      <point x="426" y="460" type="line"/>
      <point x="462" y="460" type="line"/>
      <point x="186" y="-22" type="line"/>
    </contour>
  </outline>
</glyph>
<glyph name="w" format="1">
  <advance width="618"/>
  <unicode hex="0077"/>
  <outline>
    <contour>
      <point x="63.5" y="460" type="line"/>
      <point x="96" y="460" type="line"/>
      <point x="153.251" y="62.8826" type="line"/>
      <point x="360" y="482" type="line"/>
      <point x="429.624" y="62.0031" type="line"/>
      <point x="626" y="459.5" type="line"/>
      <point x="660" y="459.5" type="line"/>
      <point x="418" y="-22" type="line"/>
      <point x="347.147" y="396.5" type="line"/>
      <point x="138" y="-22" type="line"/>
    </contour>
  </outline>
</glyph>
<glyph name="x" format="1">
  <advance width="380"/>
  <unicode hex="0078"/>
  <outline>
    <contour>
      <point x="381.5" y="459" type="line"/>
      <point x="418" y="459" type="line"/>
      <point x="227" y="235.5" type="line"/>
      <point x="356" y="0" type="line"/>
      <point x="321.5" y="0" type="line"/>
      <point x="206.5" y="213" type="line"/>
      <point x="26" y="0" type="line"/>
      <point x="-11.5" y="0" type="line"/>
      <point x="193" y="239" type="line"/>
      <point x="70.5" y="460" type="line"/>
      <point x="105" y="460" type="line"/>
      <point x="213" y="261.5" type="line"/>
    </contour>
  </outline>
</glyph>
<glyph name="y" format="1">
  <advance width="416"/>
  <unicode hex="0079"/>
  <outline>
    <contour>
      <point x="462.5" y="459.5" type="line"/>
      <point x="54" y="-219.5" type="line"/>
      <point x="19.5" y="-219" type="line"/>
      <point x="173" y="34.5" type="line"/>
      <point x="58.5" y="460" type="line"/>
      <point x="92" y="460" type="line"/>
      <point x="200.5" y="43.5" type="line"/>
      <point x="183.5" y="45" type="line"/>
      <point x="428" y="459.5" type="line"/>
    </contour>
  </outline>
</glyph>
<glyph name="z" format="1">
  <advance width="425"/>
  <unicode hex="007A"/>
  <outline>
    <contour>
      <point x="391" y="430" type="line"/>
      <point x="86.5" y="430" type="line"/>
      <point x="91.5" y="459.5" type="line"/>
      <point x="454" y="459.5" type="line"/>
      <point x="52" y="30" type="line"/>
      <point x="380" y="30" type="line"/>
      <point x="375" y="0" type="line"/>
      <point x="-10.5" y="0" type="line"/>
    </contour>
  </outline>
</glyph>
<glyph name="braceleft" format="1">
  <advance width="281"/>
  <unicode hex="007B"/>
  <outline>
    <contour>
      <point x="234.5" y="646" type="curve" smooth="yes"/>
      <point x="204.5" y="447.5" type="line" smooth="yes"/>
      <point x="193" y="367.5"/>
      <point x="163.5" y="299.5"/>
      <point x="100" y="286.5" type="curve"/>
      <point x="101.5" y="294" type="line"/>
      <point x="159.5" y="277"/>
      <point x="164.5" y="207"/>
      <point x="155.5" y="132.5" type="curve" smooth="yes"/>
      <point x="124.5" y="-66" type="line" smooth="yes"/>
      <point x="118" y="-126"/>
      <point x="122" y="-172"/>
      <point x="179" y="-172" type="curve" smooth="yes"/>
      <point x="203" y="-172" type="line"/>
      <point x="199" y="-200" type="line"/>
      <point x="168.5" y="-200" type="line" smooth="yes"/>
      <point x="97" y="-200"/>
      <point x="87.5" y="-137.5"/>
      <point x="96" y="-60" type="curve" smooth="yes"/>
      <point x="128.5" y="150" type="line" smooth="yes"/>
      <point x="135.5" y="212"/>
      <point x="126" y="253.5"/>
      <point x="94" y="278" type="curve"/>
      <point x="98" y="302" type="line"/>
      <point x="137" y="322.5"/>
      <point x="162" y="365"/>
      <point x="171" y="430" type="curve" smooth="yes"/>
      <point x="203" y="640" type="line" smooth="yes"/>
      <point x="214" y="722.5"/>
      <point x="247.5" y="779.5"/>
      <point x="318" y="779.5" type="curve" smooth="yes"/>
      <point x="350" y="779.5" type="line"/>
      <point x="346" y="752.5" type="line"/>
      <point x="322.5" y="752.5" type="line" smooth="yes"/>
      <point x="265" y="752.5"/>
      <point x="243" y="710"/>
    </contour>
  </outline>
</glyph>
<glyph name="bar" format="2">
  <advance width="221"/>
  <unicode hex="007C"/>
  <outline>
    <contour>
      <point x="201" y="785" type="line"/>
      <point x="230" y="785" type="line"/>
      <point x="75" y="-215" type="line"/>
      <point x="46" y="-215" type="line"/>
    </contour>
  </outline>
</glyph>
<glyph name="braceright" format="1">
  <advance width="281"/>
  <unicode hex="007D"/>
  <outline>
    <contour>
      <point x="104" y="-66" type="curve" smooth="yes"/>
      <point x="134.5" y="132.5" type="line" smooth="yes"/>
      <point x="146.5" y="212.5"/>
      <point x="175.5" y="280.5"/>
      <point x="239" y="293.5" type="curve"/>
      <point x="237.5" y="286" type="line"/>
      <point x="179.5" y="303"/>
      <point x="174.5" y="373"/>
      <point x="183.5" y="447.5" type="curve" smooth="yes"/>
      <point x="214" y="646" type="line" smooth="yes"/>
      <point x="220.5" y="706"/>
      <point x="217" y="752"/>
      <point x="160" y="752" type="curve" smooth="yes"/>
      <point x="135.5" y="752.5" type="line"/>
      <point x="139.5" y="780" type="line"/>
      <point x="170" y="780" type="line" smooth="yes"/>
      <point x="241.5" y="780"/>
      <point x="251" y="717.5"/>
      <point x="242.5" y="640" type="curve" smooth="yes"/>
      <point x="210" y="430" type="line" smooth="yes"/>
      <point x="203" y="368"/>
      <point x="213" y="326.5"/>
      <point x="245" y="302" type="curve"/>
      <point x="241.5" y="278" type="line"/>
      <point x="202.5" y="257.5"/>
      <point x="176.5" y="215"/>
      <point x="167.5" y="150" type="curve" smooth="yes"/>
      <point x="135.5" y="-60" type="line" smooth="yes"/>
      <point x="124.5" y="-142.5"/>
      <point x="91" y="-200"/>
      <point x="20.5" y="-200" type="curve" smooth="yes"/>
      <point x="-11" y="-200" type="line"/>
      <point x="-7" y="-172.5" type="line"/>
      <point x="16.5" y="-172.5" type="line" smooth="yes"/>
      <point x="74" y="-172.5"/>
      <point x="95.5" y="-130"/>
    </contour>
  </outline>
</glyph>
<glyph name="asciitilde" format="2">
  <advance width="558"/>
  <unicode hex="007E"/>
  <outline>
    <contour>
      <point x="112" y="178" type="curve"/>
      <point x="83" y="181" type="line"/>
      <point x="83" y="189"/>
      <point x="82" y="198"/>
      <point x="83" y="206" type="curve" smooth="yes"/>
      <point x="88" y="235"/>
      <point x="101" y="263"/>
      <point x="121" y="285" type="curve" smooth="yes"/>
      <point x="144" y="310"/>
      <point x="178" y="326"/>
      <point x="214" y="326" type="curve" smooth="yes"/>
      <point x="263" y="326"/>
      <point x="292" y="292"/>
      <point x="319" y="259" type="curve" smooth="yes"/>
      <point x="340" y="233"/>
      <point x="364" y="202"/>
      <point x="401" y="202" type="curve" smooth="yes"/>
      <point x="450" y="201"/>
      <point x="480" y="244"/>
      <point x="487" y="291" type="curve" smooth="yes"/>
      <point x="489" y="300"/>
      <point x="489" y="311"/>
      <point x="487" y="321" type="curve"/>
      <point x="517" y="318" type="line"/>
      <point x="517" y="310"/>
      <point x="518" y="300"/>
      <point x="516" y="290" type="curve" smooth="yes"/>
      <point x="512" y="262"/>
      <point x="502" y="232"/>
      <point x="483" y="211" type="curve" smooth="yes"/>
      <point x="463" y="188"/>
      <point x="432" y="172"/>
      <point x="400" y="172" type="curve" smooth="yes"/>
      <point x="355" y="172"/>
      <point x="328" y="205"/>
      <point x="301" y="236" type="curve" smooth="yes"/>
      <point x="278" y="263"/>
      <point x="253" y="297"/>
      <point x="211" y="297" type="curve" smooth="yes"/>
      <point x="154" y="297"/>
      <point x="119" y="252"/>
      <point x="111" y="200" type="curve" smooth="yes"/>
      <point x="110" y="193"/>
      <point x="111" y="186"/>
    </contour>
  </outline>
</glyph>
<glyph name="exclamdown" format="1">
  <advance width="291"/>
  <unicode hex="00A1"/>
  <outline>
    <contour>
      <point x="109" y="-244.5" type="line"/>
      <point x="69.5" y="-244.5" type="line"/>
      <point x="164.5" y="254.5" type="line"/>
      <point x="186" y="254.5" type="line"/>
    </contour>
    <contour>
      <point x="230.5" y="442" type="curve" smooth="yes"/>
      <point x="229.5" y="430"/>
      <point x="215" y="418"/>
      <point x="203" y="418.5" type="curve" smooth="yes"/>
      <point x="191" y="419"/>
      <point x="182.5" y="430"/>
      <point x="183.5" y="442.5" type="curve" smooth="yes"/>
      <point x="184.5" y="454.5"/>
      <point x="198.5" y="466.5"/>
      <point x="210.5" y="466" type="curve" smooth="yes"/>
      <point x="222.5" y="465.5"/>
      <point x="231.5" y="454.5"/>
    </contour>
  </outline>
</glyph>
<glyph name="cent" format="2">
  <advance width="562"/>
  <unicode hex="00A2"/>
  <outline>
    <contour>
      <point x="271" y="8" type="line"/>
      <point x="293" y="8" type="line"/>
      <point x="274" y="-112" type="line"/>
      <point x="246" y="-112" type="line"/>
    </contour>
    <contour>
      <point x="125" y="230" type="curve" smooth="yes"/>
      <point x="108" y="122"/>
      <point x="170" y="21"/>
      <point x="285" y="20" type="curve" smooth="yes"/>
      <point x="354" y="20"/>
      <point x="413" y="54"/>
      <point x="449" y="87" type="curve"/>
      <point x="443" y="48" type="line"/>
      <point x="405" y="17"/>
      <point x="347" y="-10"/>
      <point x="282" y="-10" type="curve" smooth="yes"/>
      <point x="149" y="-10"/>
      <point x="76" y="104"/>
      <point x="94" y="230" type="curve" smooth="yes"/>
      <point x="115" y="362"/>
      <point x="226" y="470"/>
      <point x="361" y="470" type="curve" smooth="yes"/>
      <point x="422" y="470"/>
      <point x="475" y="445"/>
      <point x="505" y="412" type="curve"/>
      <point x="499" y="372" type="line"/>
      <point x="475" y="410"/>
      <point x="423" y="440"/>
      <point x="359" y="440" type="curve" smooth="yes"/>
      <point x="242" y="440"/>
      <point x="144" y="344"/>
    </contour>
    <contour>
      <point x="365" y="578" type="line"/>
      <point x="393" y="578" type="line"/>
      <point x="367" y="453" type="line"/>
      <point x="345" y="453" type="line"/>
    </contour>
  </outline>
</glyph>
<glyph name="sterling" format="2">
  <advance width="562"/>
  <unicode hex="00A3"/>
  <outline>
    <contour>
      <point x="106" y="325" type="line"/>
      <point x="423" y="325" type="line"/>
      <point x="418" y="295" type="line"/>
      <point x="101" y="295" type="line"/>
    </contour>
    <contour>
      <point x="514" y="492" type="line"/>
      <point x="521" y="568"/>
      <point x="501" y="676"/>
      <point x="395" y="677" type="curve" smooth="yes"/>
      <point x="308" y="678"/>
      <point x="236" y="611"/>
      <point x="222" y="533" type="curve" smooth="yes"/>
      <point x="206" y="427"/>
      <point x="302" y="364"/>
      <point x="288" y="264" type="curve" smooth="yes"/>
      <point x="271" y="156"/>
      <point x="156" y="69"/>
      <point x="93" y="16" type="curve"/>
      <point x="94" y="32" type="line"/>
      <point x="467" y="31" type="line"/>
      <point x="461" y="0" type="line"/>
      <point x="55" y="0" type="line"/>
      <point x="139" y="89"/>
      <point x="237" y="158"/>
      <point x="255" y="259" type="curve" smooth="yes"/>
      <point x="270" y="356"/>
      <point x="174" y="421"/>
      <point x="189" y="532" type="curve" smooth="yes"/>
      <point x="204" y="629"/>
      <point x="291" y="711"/>
      <point x="398" y="710" type="curve" smooth="yes"/>
      <point x="523" y="709"/>
      <point x="551" y="585"/>
      <point x="544" y="501" type="curve"/>
    </contour>
  </outline>
</glyph>
<glyph name="currency" format="2">
  <advance width="548"/>
  <unicode hex="00A4"/>
  <outline>
    <contour>
      <point x="110" y="517" type="line"/>
      <point x="135" y="539" type="line"/>
      <point x="194" y="465" type="line"/>
      <point x="170" y="445" type="line"/>
    </contour>
    <contour>
      <point x="54" y="61" type="line"/>
      <point x="36" y="84" type="line"/>
      <point x="120" y="155" type="line"/>
      <point x="137" y="133" type="line"/>
    </contour>
    <contour>
      <point x="485" y="445" type="line"/>
      <point x="466" y="467" type="line"/>
      <point x="550" y="539" type="line"/>
      <point x="567" y="516" type="line"/>
    </contour>
    <contour>
      <point x="410" y="135" type="line"/>
      <point x="434" y="155" type="line"/>
      <point x="493" y="83" type="line"/>
      <point x="469" y="61" type="line"/>
    </contour>
    <contour>
      <point x="74" y="300" type="curve" smooth="yes"/>
      <point x="94" y="431"/>
      <point x="207" y="540"/>
      <point x="338" y="540" type="curve" smooth="yes"/>
      <point x="468" y="540"/>
      <point x="542" y="425"/>
      <point x="524" y="300" type="curve" smooth="yes"/>
      <point x="504" y="169"/>
      <point x="390" y="60"/>
      <point x="259" y="60" type="curve" smooth="yes"/>
      <point x="129" y="60"/>
      <point x="56" y="175"/>
    </contour>
    <contour>
      <point x="105" y="300" type="curve" smooth="yes"/>
      <point x="89" y="193"/>
      <point x="149" y="90"/>
      <point x="262" y="90" type="curve" smooth="yes"/>
      <point x="376" y="90"/>
      <point x="474" y="187"/>
      <point x="492" y="300" type="curve" smooth="yes"/>
      <point x="508" y="407"/>
      <point x="449" y="510"/>
      <point x="336" y="510" type="curve" smooth="yes"/>
      <point x="222" y="510"/>
      <point x="123" y="413"/>
    </contour>
  </outline>
</glyph>
<glyph name="yen" format="1">
  <advance width="552"/>
  <unicode hex="00A5"/>
  <outline>
    <contour>
      <point x="53" y="276" type="line"/>
      <point x="58" y="305.5" type="line"/>
      <point x="524" y="305.5" type="line"/>
      <point x="519" y="276" type="line"/>
    </contour>
    <contour>
      <point x="30.5" y="144" type="line"/>
      <point x="35.5" y="172.5" type="line"/>
      <point x="501.5" y="172.5" type="line"/>
      <point x="497" y="144" type="line"/>
    </contour>
    <contour>
      <point x="565" y="699" type="line"/>
      <point x="602" y="699" type="line"/>
      <point x="299.5" y="276" type="line"/>
      <point x="252" y="0" type="line"/>
      <point x="219.5" y="0" type="line"/>
      <point x="268.5" y="279" type="line"/>
      <point x="118" y="700" type="line"/>
      <point x="153" y="700" type="line"/>
      <point x="288.5" y="310" type="line"/>
    </contour>
  </outline>
</glyph>
<glyph name="brokenbar" format="1">
  <advance width="221"/>
  <unicode hex="00A6"/>
  <outline>
    <contour>
      <point x="189" y="694.5" type="line"/>
      <point x="217.5" y="694.5" type="line"/>
      <point x="175" y="455.5" type="line"/>
      <point x="146.5" y="455.5" type="line"/>
    </contour>
    <contour>
      <point x="140.5" y="244.5" type="line"/>
      <point x="98" y="5.5" type="line"/>
      <point x="69.5" y="5.5" type="line"/>
      <point x="112" y="244.5" type="line"/>
    </contour>
  </outline>
</glyph>
<glyph name="section" format="1">
  <advance width="388"/>
  <unicode hex="00A7"/>
  <outline>
    <contour>
      <point x="410" y="605.5" type="line"/>
      <point x="391" y="652.5"/>
      <point x="343" y="680"/>
      <point x="289" y="680" type="curve" smooth="yes"/>
      <point x="236" y="680"/>
      <point x="170" y="652.5"/>
      <point x="161.5" y="596" type="curve" smooth="yes"/>
      <point x="152" y="536"/>
      <point x="234" y="511"/>
      <point x="280" y="490" type="curve" smooth="yes"/>
      <point x="338" y="464"/>
      <point x="405" y="429"/>
      <point x="395.5" y="362.5" type="curve" smooth="yes"/>
      <point x="383" y="274.5"/>
      <point x="303" y="244"/>
      <point x="214" y="240.5" type="curve"/>
      <point x="215.5" y="250.5" type="line"/>
      <point x="285.5" y="266.5"/>
      <point x="354.5" y="296"/>
      <point x="364" y="361.5" type="curve" smooth="yes"/>
      <point x="371.5" y="419"/>
      <point x="304" y="448"/>
      <point x="256" y="469" type="curve" smooth="yes"/>
      <point x="198.5" y="494"/>
      <point x="120.5" y="521.5"/>
      <point x="131.5" y="596" type="curve" smooth="yes"/>
      <point x="142.5" y="669.5"/>
      <point x="219" y="709.5"/>
      <point x="291" y="709.5" type="curve" smooth="yes"/>
      <point x="359" y="709.5"/>
      <point x="417" y="675"/>
      <point x="435" y="619.5" type="curve"/>
    </contour>
    <contour>
      <point x="49" y="137" type="line"/>
      <point x="57" y="72"/>
      <point x="109" y="20.5"/>
      <point x="183.5" y="19.5" type="curve" smooth="yes"/>
      <point x="241" y="18.5"/>
      <point x="310" y="43.5"/>
      <point x="320.5" y="107" type="curve" smooth="yes"/>
      <point x="332" y="175"/>
      <point x="264.5" y="203"/>
      <point x="210.5" y="228" type="curve" smooth="yes"/>
      <point x="154" y="254.5"/>
      <point x="81" y="290.5"/>
      <point x="91" y="359.5" type="curve" smooth="yes"/>
      <point x="104.5" y="435"/>
      <point x="177" y="475.5"/>
      <point x="272.5" y="479.5" type="curve"/>
      <point x="271.5" y="471.5" type="line"/>
      <point x="197" y="454"/>
      <point x="131.5" y="420"/>
      <point x="121.5" y="361.5" type="curve" smooth="yes"/>
      <point x="112.5" y="298.5"/>
      <point x="186" y="270"/>
      <point x="234" y="248" type="curve" smooth="yes"/>
      <point x="294.5" y="220"/>
      <point x="363.5" y="185"/>
      <point x="352" y="108.5" type="curve" smooth="yes"/>
      <point x="340" y="27.5"/>
      <point x="260.5" y="-10"/>
      <point x="180" y="-9.5" type="curve" smooth="yes"/>
      <point x="97" y="-9"/>
      <point x="31.5" y="46.5"/>
      <point x="23" y="123" type="curve"/>
    </contour>
  </outline>
</glyph>
<glyph name="dieresis" format="1">
  <advance width="423"/>
  <unicode hex="00A8"/>
  <outline>
    <contour>
      <point x="373" y="680.5" type="curve" smooth="yes"/>
      <point x="374" y="692.5"/>
      <point x="387.5" y="704.5"/>
      <point x="399.5" y="704" type="curve" smooth="yes"/>
      <point x="411.5" y="703.5"/>
      <point x="420.5" y="692.5"/>
      <point x="419.5" y="680" type="curve" smooth="yes"/>
      <point x="418.5" y="668"/>
      <point x="405" y="656"/>
      <point x="393" y="656.5" type="curve" smooth="yes"/>
      <point x="381" y="657"/>
      <point x="372" y="668"/>
    </contour>
    <contour>
      <point x="179" y="680.5" type="curve" smooth="yes"/>
      <point x="180" y="692.5"/>
      <point x="193.5" y="704.5"/>
      <point x="205.5" y="704" type="curve" smooth="yes"/>
      <point x="217.5" y="703.5"/>
      <point x="226.5" y="692.5"/>
      <point x="225.5" y="680" type="curve" smooth="yes"/>
      <point x="224.5" y="668"/>
      <point x="211" y="656"/>
      <point x="199" y="656.5" type="curve" smooth="yes"/>
      <point x="187" y="657"/>
      <point x="178" y="668"/>
    </contour>
  </outline>
</glyph>
<glyph name="copyright" format="1">
  <advance width="776"/>
  <unicode hex="00A9"/>
  <outline>
    <contour>
      <point x="240.5" y="350" type="curve" smooth="yes"/>
      <point x="226.5" y="249.5"/>
      <point x="279" y="156"/>
      <point x="385" y="155" type="curve" smooth="yes"/>
      <point x="441.5" y="154.5"/>
      <point x="487" y="177"/>
      <point x="525.5" y="208" type="curve"/>
      <point x="521.5" y="181.5" type="line"/>
      <point x="482" y="153.5"/>
      <point x="440.5" y="135"/>
      <point x="384" y="135.5" type="curve" smooth="yes"/>
      <point x="267" y="136.5"/>
      <point x="204.5" y="238"/>
      <point x="219.5" y="350" type="curve" smooth="yes"/>
      <point x="236" y="467.5"/>
      <point x="331" y="564"/>
      <point x="448.5" y="564.5" type="curve" smooth="yes"/>
      <point x="502" y="565"/>
      <point x="539" y="548.5"/>
      <point x="573.5" y="518" type="curve"/>
      <point x="569.5" y="492.5" type="line"/>
      <point x="538.5" y="527"/>
      <point x="499.5" y="545"/>
      <point x="447.5" y="545" type="curve" smooth="yes"/>
      <point x="340.5" y="544.5"/>
      <point x="256" y="457"/>
    </contour>
    <contour>
      <point x="98.5" y="350" type="curve" smooth="yes"/>
      <point x="73" y="171.5"/>
      <point x="185" y="12.5"/>
      <point x="371.5" y="12" type="curve" smooth="yes"/>
      <point x="561" y="11.5"/>
      <point x="723.5" y="163.5"/>
      <point x="751.5" y="350" type="curve" smooth="yes"/>
      <point x="777" y="528.5"/>
      <point x="665" y="687.5"/>
      <point x="478.5" y="688" type="curve" smooth="yes"/>
      <point x="289" y="688.5"/>
      <point x="126.5" y="536.5"/>
    </contour>
    <contour>
      <point x="75" y="350" type="curve" smooth="yes"/>
      <point x="103.5" y="549.5"/>
      <point x="274" y="710.5"/>
      <point x="479" y="710" type="curve" smooth="yes"/>
      <point x="680.5" y="709.5"/>
      <point x="800.5" y="542"/>
      <point x="774.5" y="350" type="curve" smooth="yes"/>
      <point x="746" y="150.5"/>
      <point x="575.5" y="-10.5"/>
      <point x="370.5" y="-10" type="curve" smooth="yes"/>
      <point x="169" y="-9.5"/>
      <point x="49" y="158"/>
    </contour>
  </outline>
</glyph>
<glyph name="ordfeminine" format="1">
  <advance width="230"/>
  <unicode hex="00AA"/>
  <outline>
    <contour>
      <point x="101" y="529" type="curve" smooth="yes"/>
      <point x="96.5" y="493.5"/>
      <point x="119.5" y="470.5"/>
      <point x="153" y="469.5" type="curve" smooth="yes"/>
      <point x="196.5" y="468"/>
      <point x="230.5" y="504.5"/>
      <point x="242" y="542.5" type="curve"/>
      <point x="245.5" y="535" type="line"/>
      <point x="233.5" y="494.5"/>
      <point x="199" y="454.5"/>
      <point x="149" y="455.5" type="curve" smooth="yes"/>
      <point x="109" y="456.5"/>
      <point x="80" y="485"/>
      <point x="86.5" y="529.5" type="curve" smooth="yes"/>
      <point x="93.5" y="575"/>
      <point x="144" y="604"/>
      <point x="189" y="603.5" type="curve" smooth="yes"/>
      <point x="221" y="603"/>
      <point x="239.5" y="590.5"/>
      <point x="253.5" y="579.5" type="curve"/>
      <point x="252" y="568" type="line"/>
      <point x="235.5" y="580"/>
      <point x="216" y="592"/>
      <point x="188.5" y="592" type="curve" smooth="yes"/>
      <point x="150.5" y="592.5"/>
      <point x="106.5" y="568"/>
    </contour>
    <contour>
      <point x="135.5" y="657.5" type="curve"/>
      <point x="129" y="669.5" type="line"/>
      <point x="149.5" y="684"/>
      <point x="178.5" y="702.5"/>
      <point x="212.5" y="701.5" type="curve" smooth="yes"/>
      <point x="256.5" y="699.5"/>
      <point x="275.5" y="668.5"/>
      <point x="271.5" y="628" type="curve"/>
      <point x="242" y="460.5" type="line"/>
      <point x="227" y="460.5" type="line"/>
      <point x="257" y="628" type="line"/>
      <point x="259" y="660.5"/>
      <point x="247" y="685"/>
      <point x="211.5" y="687" type="curve" smooth="yes"/>
      <point x="181" y="688.5"/>
      <point x="155" y="671.5"/>
    </contour>
  </outline>
</glyph>
<glyph name="guillemotleft" format="1">
  <advance width="477"/>
  <unicode hex="00AB"/>
  <outline>
    <contour>
      <point x="243" y="256" type="line"/>
      <point x="389.5" y="37.5" type="line"/>
      <point x="368" y="20" type="line"/>
      <point x="210" y="256.5" type="line"/>
      <point x="447" y="489" type="line"/>
      <point x="463.5" y="471" type="line"/>
    </contour>
    <contour>
      <point x="87.5" y="256" type="line"/>
      <point x="234" y="37.5" type="line"/>
      <point x="213" y="20" type="line"/>
      <point x="55" y="256.5" type="line"/>
      <point x="292" y="489" type="line"/>
      <point x="308.5" y="471" type="line"/>
    </contour>
  </outline>
</glyph>
<glyph name="logicalnot" format="1">
  <advance width="601"/>
  <unicode hex="00AC"/>
  <outline>
    <contour>
      <point x="94.5" y="346" type="line"/>
      <point x="100" y="375" type="line"/>
      <point x="576.5" y="375" type="line"/>
      <point x="541" y="175.5" type="line"/>
      <point x="512" y="175.5" type="line"/>
      <point x="542.5" y="346" type="line"/>
    </contour>
  </outline>
</glyph>
<glyph name="uni00AD" format="1">
  <advance width="203"/>
  <unicode hex="00AD"/>
  <outline>
    <contour>
      <point x="20" y="246" type="line"/>
      <point x="24.5" y="275" type="line"/>
      <point x="219.5" y="275" type="line"/>
      <point x="214" y="246" type="line"/>
    </contour>
  </outline>
</glyph>
<glyph name="registered" format="1">
  <advance width="776"/>
  <unicode hex="00AE"/>
  <outline>
    <contour>
      <point x="385" y="345" type="line"/>
      <point x="407" y="345" type="line"/>
      <point x="512" y="150" type="line"/>
      <point x="487.5" y="150" type="line"/>
    </contour>
    <contour>
      <point x="354.5" y="570" type="line"/>
      <point x="374.5" y="570" type="line"/>
      <point x="309" y="150" type="line"/>
      <point x="289" y="150" type="line"/>
    </contour>
    <contour>
      <point x="360" y="552" type="line"/>
      <point x="362.5" y="570" type="line"/>
      <point x="433.5" y="570" type="line"/>
      <point x="508" y="568"/>
      <point x="565" y="525.5"/>
      <point x="554.5" y="450.5" type="curve" smooth="yes"/>
      <point x="543.5" y="375"/>
      <point x="475" y="334.5"/>
      <point x="398" y="332.5" type="curve"/>
      <point x="326" y="332" type="line"/>
      <point x="328.5" y="349.5" type="line"/>
      <point x="399.5" y="350" type="line"/>
      <point x="467" y="352"/>
      <point x="525" y="385"/>
      <point x="534.5" y="451" type="curve" smooth="yes"/>
      <point x="544" y="515.5"/>
      <point x="496.5" y="549.5"/>
      <point x="432" y="551.5" type="curve"/>
    </contour>
    <contour>
      <point x="98.5" y="350" type="curve" smooth="yes"/>
      <point x="73" y="171.5"/>
      <point x="185" y="12.5"/>
      <point x="371.5" y="12" type="curve" smooth="yes"/>
      <point x="561" y="11.5"/>
      <point x="723.5" y="163.5"/>
      <point x="751.5" y="350" type="curve" smooth="yes"/>
      <point x="777" y="528.5"/>
      <point x="665" y="687.5"/>
      <point x="478.5" y="688" type="curve" smooth="yes"/>
      <point x="289" y="688.5"/>
      <point x="126.5" y="536.5"/>
    </contour>
    <contour>
      <point x="75" y="350" type="curve" smooth="yes"/>
      <point x="103.5" y="549.5"/>
      <point x="274" y="710.5"/>
      <point x="479" y="710" type="curve" smooth="yes"/>
      <point x="680.5" y="709.5"/>
      <point x="800.5" y="542"/>
      <point x="774.5" y="350" type="curve" smooth="yes"/>
      <point x="746" y="150.5"/>
      <point x="575.5" y="-10.5"/>
      <point x="370.5" y="-10" type="curve" smooth="yes"/>
      <point x="169" y="-9.5"/>
      <point x="49" y="158"/>
    </contour>
  </outline>
</glyph>
<glyph name="macron" format="1">
  <advance width="494"/>
  <unicode hex="00AF"/>
  <outline>
    <contour>
      <point x="160" y="646" type="line"/>
      <point x="164.5" y="675" type="line"/>
      <point x="504.5" y="675" type="line"/>
      <point x="500" y="646" type="line"/>
    </contour>
  </outline>
</glyph>
<glyph name="degree" format="1">
  <advance width="269"/>
  <unicode hex="00B0"/>
  <outline>
    <contour>
      <point x="94" y="600.5" type="curve" smooth="yes"/>
      <point x="104" y="666"/>
      <point x="162.5" y="720"/>
      <point x="230" y="719.5" type="curve" smooth="yes"/>
      <point x="297" y="719"/>
      <point x="335.5" y="663.5"/>
      <point x="326" y="599.5" type="curve" smooth="yes"/>
      <point x="316" y="534"/>
      <point x="258" y="480"/>
      <point x="190.5" y="480.5" type="curve" smooth="yes"/>
      <point x="123.5" y="481"/>
      <point x="84.5" y="536.5"/>
    </contour>
    <contour>
      <point x="112.5" y="600" type="curve" smooth="yes"/>
      <point x="104" y="547"/>
      <point x="136" y="499.5"/>
      <point x="191.5" y="498.5" type="curve" smooth="yes"/>
      <point x="247.5" y="497.5"/>
      <point x="298.5" y="544.5"/>
      <point x="307.5" y="600" type="curve" smooth="yes"/>
      <point x="316" y="653"/>
      <point x="284" y="700.5"/>
      <point x="228.5" y="701.5" type="curve" smooth="yes"/>
      <point x="172.5" y="702.5"/>
      <point x="121.5" y="655.5"/>
    </contour>
  </outline>
</glyph>
<glyph name="plusminus" format="1">
  <advance width="592"/>
  <unicode hex="00B1"/>
  <outline>
    <contour>
      <point x="46" y="0" type="line"/>
      <point x="50.5" y="30.5" type="line"/>
      <point x="518" y="30.5" type="line"/>
      <point x="513.5" y="0" type="line"/>
    </contour>
    <contour>
      <point x="103" y="370" type="line"/>
      <point x="107.5" y="400" type="line"/>
      <point x="575" y="400" type="line"/>
      <point x="570.5" y="370" type="line"/>
    </contour>
    <contour>
      <point x="359.5" y="620" type="line"/>
      <point x="391.5" y="620" type="line"/>
      <point x="318" y="150" type="line"/>
      <point x="287" y="150" type="line"/>
    </contour>
  </outline>
</glyph>
<glyph name="uni00B2" format="1">
  <advance width="325"/>
  <unicode hex="00B2"/>
  <outline>
    <contour>
      <point x="48.5" y="282.5" type="line"/>
      <point x="270.5" y="486" type="line" smooth="yes"/>
      <point x="302" y="515"/>
      <point x="333.5" y="547.5"/>
      <point x="341" y="592" type="curve" smooth="yes"/>
      <point x="349" y="637"/>
      <point x="326.5" y="688.5"/>
      <point x="264.5" y="690" type="curve" smooth="yes"/>
      <point x="193.5" y="692"/>
      <point x="148" y="627"/>
      <point x="133.5" y="559" type="curve"/>
      <point x="114" y="559" type="line"/>
      <point x="130.5" y="637.5"/>
      <point x="183" y="710"/>
      <point x="265.5" y="708.5" type="curve" smooth="yes"/>
      <point x="340" y="707.5"/>
      <point x="369.5" y="645"/>
      <point x="360" y="590" type="curve" smooth="yes"/>
      <point x="352.5" y="543"/>
      <point x="320" y="506.5"/>
      <point x="286" y="475" type="curve" smooth="yes"/>
      <point x="93" y="301" type="line"/>
      <point x="323" y="300.5" type="line"/>
      <point x="320" y="282" type="line"/>
    </contour>
  </outline>
</glyph>
<glyph name="uni00B3" format="2">
  <advance width="299"/>
  <unicode hex="00B3"/>
  <outline>
    <contour>
      <point x="193" y="495" type="curve"/>
      <point x="195" y="508" type="line"/>
      <point x="250" y="513"/>
      <point x="310" y="541"/>
      <point x="321" y="598" type="curve" smooth="yes"/>
      <point x="329" y="643"/>
      <point x="301" y="686"/>
      <point x="248" y="687" type="curve" smooth="yes"/>
      <point x="191" y="688"/>
      <point x="152" y="646"/>
      <point x="138" y="597" type="curve"/>
      <point x="119" y="597" type="line"/>
      <point x="134" y="657"/>
      <point x="180" y="707"/>
      <point x="249" y="706" type="curve" smooth="yes"/>
      <point x="315" y="705"/>
      <point x="350" y="653"/>
      <point x="340" y="598" type="curve" smooth="yes"/>
      <point x="328" y="532"/>
      <point x="260" y="499"/>
    </contour>
    <contour>
      <point x="174" y="274" type="curve" smooth="yes"/>
      <point x="97" y="274"/>
      <point x="62" y="327"/>
      <point x="67" y="391" type="curve"/>
      <point x="87" y="391" type="line"/>
      <point x="84" y="336"/>
      <point x="109" y="294"/>
      <point x="175" y="293" type="curve" smooth="yes"/>
      <point x="235" y="292"/>
      <point x="287" y="334"/>
      <point x="296" y="389" type="curve" smooth="yes"/>
      <point x="306" y="455"/>
      <point x="246" y="484"/>
      <point x="192" y="489" type="curve"/>
      <point x="194" y="503" type="line"/>
      <point x="260" y="498"/>
      <point x="328" y="463"/>
      <point x="316" y="386" type="curve" smooth="yes"/>
      <point x="306" y="321"/>
      <point x="244" y="274"/>
    </contour>
  </outline>
</glyph>
<glyph name="acute" format="1">
  <advance width="348"/>
  <unicode hex="00B4"/>
  <outline>
    <contour>
      <point x="347.5" y="681" type="line"/>
      <point x="153.5" y="529" type="line"/>
      <point x="138" y="541" type="line"/>
      <point x="322" y="699" type="line"/>
    </contour>
  </outline>
</glyph>
<glyph name="paragraph" format="2">
  <advance width="472"/>
  <unicode hex="00B6"/>
  <outline>
    <contour>
      <point x="367" y="673" type="line"/>
      <point x="371" y="700" type="line"/>
      <point x="499" y="700" type="line"/>
      <point x="494" y="673" type="line"/>
    </contour>
    <contour>
      <point x="480" y="700" type="line"/>
      <point x="508" y="700" type="line"/>
      <point x="350" y="-220" type="line"/>
      <point x="322" y="-220" type="line"/>
    </contour>
    <contour>
      <point x="371" y="700" type="line"/>
      <point x="400" y="700" type="line"/>
      <point x="242" y="-220" type="line"/>
      <point x="214" y="-220" type="line"/>
    </contour>
    <contour>
      <point x="299" y="270" type="line"/>
      <point x="176" y="277"/>
      <point x="93" y="356"/>
      <point x="113" y="485" type="curve" smooth="yes"/>
      <point x="134" y="619"/>
      <point x="243" y="700"/>
      <point x="371" y="700" type="curve"/>
    </contour>
  </outline>
</glyph>
<glyph name="periodcentered" format="1">
  <advance width="250"/>
  <unicode hex="00B7"/>
  <outline>
    <contour>
      <point x="114" y="227" type="curve" smooth="yes"/>
      <point x="115" y="239"/>
      <point x="129" y="251"/>
      <point x="141" y="250.5" type="curve" smooth="yes"/>
      <point x="153" y="250"/>
      <point x="162" y="239"/>
      <point x="161" y="226.5" type="curve" smooth="yes"/>
      <point x="160" y="214.5"/>
      <point x="146" y="202"/>
      <point x="134" y="202.5" type="curve" smooth="yes"/>
      <point x="122" y="203"/>
      <point x="113" y="214.5"/>
    </contour>
  </outline>
</glyph>
<glyph name="cedilla" format="1">
  <advance width="339"/>
  <unicode hex="00B8"/>
  <outline>
    <contour>
      <point x="152" y="17.5" type="line"/>
      <point x="179" y="17.5" type="line"/>
      <point x="106" y="-68.5" type="line"/>
      <point x="123.5" y="-59.5"/>
      <point x="138" y="-51.5"/>
      <point x="159" y="-52.5" type="curve" smooth="yes"/>
      <point x="195" y="-55"/>
      <point x="223.5" y="-83.5"/>
      <point x="218.5" y="-126.5" type="curve" smooth="yes"/>
      <point x="211.5" y="-183.5"/>
      <point x="153" y="-220"/>
      <point x="99" y="-219.5" type="curve" smooth="yes"/>
      <point x="64" y="-219.5"/>
      <point x="42.5" y="-206.5"/>
      <point x="18" y="-181.5" type="curve"/>
      <point x="34.5" y="-166" type="line"/>
      <point x="55.5" y="-185"/>
      <point x="73" y="-197"/>
      <point x="101" y="-197" type="curve" smooth="yes"/>
      <point x="142.5" y="-197"/>
      <point x="189.5" y="-169"/>
      <point x="195.5" y="-126" type="curve" smooth="yes"/>
      <point x="199.5" y="-93.5"/>
      <point x="177.5" y="-72"/>
      <point x="148" y="-70.5" type="curve" smooth="yes"/>
      <point x="122.5" y="-69"/>
      <point x="94" y="-81"/>
      <point x="71" y="-93.5" type="curve"/>
    </contour>
  </outline>
</glyph>
<glyph name="uni00B9" format="1">
  <advance width="456"/>
  <unicode hex="00B9"/>
  <outline>
    <contour>
      <point x="225.5" y="650.5" type="line"/>
      <point x="228.5" y="670.5" type="line"/>
      <point x="349.5" y="698" type="line"/>
      <point x="275.5" y="274.5" type="line"/>
      <point x="256.5" y="274.5" type="line"/>
      <point x="325" y="673.5" type="line"/>
    </contour>
  </outline>
</glyph>
<glyph name="ordmasculine" format="1">
  <advance width="269"/>
  <unicode hex="00BA"/>
  <outline>
    <contour>
      <point x="91" y="580.5" type="curve" smooth="yes"/>
      <point x="101" y="646"/>
      <point x="159" y="700"/>
      <point x="226.5" y="699.5" type="curve" smooth="yes"/>
      <point x="293.5" y="699"/>
      <point x="332" y="643.5"/>
      <point x="322.5" y="579.5" type="curve" smooth="yes"/>
      <point x="312.5" y="514"/>
      <point x="254.5" y="460"/>
      <point x="187" y="460.5" type="curve" smooth="yes"/>
      <point x="120" y="461"/>
      <point x="81.5" y="516.5"/>
    </contour>
    <contour>
      <point x="109" y="580" type="curve" smooth="yes"/>
      <point x="100.5" y="527"/>
      <point x="132.5" y="479.5"/>
      <point x="188" y="478.5" type="curve" smooth="yes"/>
      <point x="244" y="477.5"/>
      <point x="295.5" y="524.5"/>
      <point x="304.5" y="580" type="curve" smooth="yes"/>
      <point x="313" y="633"/>
      <point x="281" y="680.5"/>
      <point x="225.5" y="681.5" type="curve" smooth="yes"/>
      <point x="169.5" y="682.5"/>
      <point x="118" y="635.5"/>
    </contour>
  </outline>
</glyph>
<glyph name="guillemotright" format="1">
  <advance width="477"/>
  <unicode hex="00BB"/>
  <outline>
    <contour>
      <point x="267" y="254" type="line"/>
      <point x="121" y="472.5" type="line"/>
      <point x="142.5" y="490" type="line"/>
      <point x="300.5" y="253.5" type="line"/>
      <point x="63.5" y="21" type="line"/>
      <point x="46.5" y="39" type="line"/>
    </contour>
    <contour>
      <point x="422.5" y="254" type="line"/>
      <point x="276.5" y="472.5" type="line"/>
      <point x="298" y="490" type="line"/>
      <point x="455.5" y="253.5" type="line"/>
      <point x="219" y="21" type="line"/>
      <point x="202" y="39" type="line"/>
    </contour>
  </outline>
</glyph>
<glyph name="onequarter" format="1">
  <advance width="731"/>
  <unicode hex="00BC"/>
  <outline>
    <contour>
      <point x="727.5" y="699" type="line"/>
      <point x="755.5" y="699" type="line"/>
      <point x="95.5" y="0" type="line"/>
      <point x="67.5" y="0" type="line"/>
    </contour>
    <contour>
      <point x="107" y="650.5" type="line"/>
      <point x="110" y="670.5" type="line"/>
      <point x="231" y="698" type="line"/>
      <point x="157" y="274.5" type="line"/>
      <point x="138" y="274.5" type="line"/>
      <point x="206.5" y="673.5" type="line"/>
    </contour>
    <contour>
      <point x="375.5" y="84.5" type="line"/>
      <point x="394" y="101.5" type="line"/>
      <point x="596.5" y="101.5" type="line"/>
      <point x="600.5" y="101.5" type="line"/>
      <point x="672.5" y="101.5" type="line"/>
      <point x="670" y="84" type="line"/>
    </contour>
    <contour>
      <point x="395.5" y="85" type="line"/>
      <point x="374.5" y="85" type="line"/>
      <point x="656.5" y="418.5" type="line"/>
      <point x="662.5" y="419.5" type="line"/>
      <point x="591" y="0" type="line"/>
      <point x="572" y="0" type="line"/>
      <point x="588" y="91" type="line"/>
      <point x="588.5" y="95" type="line"/>
      <point x="636" y="370" type="line"/>
    </contour>
  </outline>
</glyph>
<glyph name="onehalf" format="1">
  <advance width="794"/>
  <unicode hex="00BD"/>
  <outline>
    <contour>
      <point x="727.5" y="699" type="line"/>
      <point x="755.5" y="699" type="line"/>
      <point x="95.5" y="0" type="line"/>
      <point x="67.5" y="0" type="line"/>
    </contour>
    <contour>
      <point x="107" y="650.5" type="line"/>
      <point x="110" y="670.5" type="line"/>
      <point x="231" y="698" type="line"/>
      <point x="157" y="274.5" type="line"/>
      <point x="138" y="274.5" type="line"/>
      <point x="206.5" y="673.5" type="line"/>
    </contour>
    <contour>
      <point x="453.5" y="2.5" type="line"/>
      <point x="675.5" y="205.5" type="line" smooth="yes"/>
      <point x="707" y="234.5"/>
      <point x="739" y="266.5"/>
      <point x="746.5" y="311" type="curve" smooth="yes"/>
      <point x="754.5" y="356"/>
      <point x="731.5" y="408.5"/>
      <point x="669.5" y="410" type="curve" smooth="yes"/>
      <point x="598.5" y="412"/>
      <point x="552.5" y="347"/>
      <point x="538" y="279" type="curve"/>
      <point x="519" y="279" type="line"/>
      <point x="535.5" y="357.5"/>
      <point x="587.5" y="430"/>
      <point x="670" y="428.5" type="curve" smooth="yes"/>
      <point x="744.5" y="427.5"/>
      <point x="775.5" y="365"/>
      <point x="766" y="310" type="curve" smooth="yes"/>
      <point x="758.5" y="263"/>
      <point x="724" y="226.5"/>
      <point x="690" y="195" type="curve" smooth="yes"/>
      <point x="498" y="21" type="line"/>
      <point x="727.5" y="20.5" type="line"/>
      <point x="724.5" y="2" type="line"/>
    </contour>
  </outline>
</glyph>
<glyph name="threequarters" format="1">
  <advance width="795"/>
  <unicode hex="00BE"/>
  <outline>
    <contour>
      <point x="792.5" y="699" type="line"/>
      <point x="821" y="699" type="line"/>
      <point x="160.5" y="0" type="line"/>
      <point x="132.5" y="0" type="line"/>
    </contour>
    <contour>
      <point x="197.5" y="494.5" type="curve"/>
      <point x="200" y="507.5" type="line"/>
      <point x="254.5" y="512.5"/>
      <point x="315.5" y="541.5"/>
      <point x="326" y="598" type="curve" smooth="yes"/>
      <point x="334" y="643"/>
      <point x="306.5" y="686.5"/>
      <point x="252.5" y="687.5" type="curve" smooth="yes"/>
      <point x="195" y="689"/>
      <point x="155.5" y="646"/>
      <point x="142" y="597" type="curve"/>
      <point x="124" y="597" type="line"/>
      <point x="139.5" y="657"/>
      <point x="185" y="706.5"/>
      <point x="254" y="705.5" type="curve" smooth="yes"/>
      <point x="319.5" y="704.5"/>
      <point x="354.5" y="652"/>
      <point x="345" y="597.5" type="curve" smooth="yes"/>
      <point x="333" y="532"/>
      <point x="264" y="499"/>
    </contour>
    <contour>
      <point x="179" y="274.5" type="curve" smooth="yes"/>
      <point x="102" y="275"/>
      <point x="67.5" y="326.5"/>
      <point x="72" y="391" type="curve"/>
      <point x="91" y="391" type="line"/>
      <point x="88" y="336"/>
      <point x="113.5" y="293.5"/>
      <point x="179.5" y="293" type="curve" smooth="yes"/>
      <point x="240" y="292.5"/>
      <point x="293" y="334"/>
      <point x="301.5" y="389" type="curve" smooth="yes"/>
      <point x="312" y="455"/>
      <point x="251" y="484.5"/>
      <point x="197" y="489.5" type="curve"/>
      <point x="199.5" y="502.5" type="line"/>
      <point x="265.5" y="497.5"/>
      <point x="332.5" y="463.5"/>
      <point x="321" y="386.5" type="curve" smooth="yes"/>
      <point x="311" y="321"/>
      <point x="249.5" y="274"/>
    </contour>
    <contour>
      <point x="440.5" y="84.5" type="line"/>
      <point x="459" y="101.5" type="line"/>
      <point x="661" y="101.5" type="line"/>
      <point x="665.5" y="101.5" type="line"/>
      <point x="737.5" y="101.5" type="line"/>
      <point x="735" y="84" type="line"/>
    </contour>
    <contour>
      <point x="461" y="85" type="line"/>
      <point x="439.5" y="85" type="line"/>
      <point x="721.5" y="418.5" type="line"/>
      <point x="727.5" y="419.5" type="line"/>
      <point x="656" y="0" type="line"/>
      <point x="637" y="0" type="line"/>
      <point x="653" y="91" type="line"/>
      <point x="653.5" y="95" type="line"/>
      <point x="701" y="370" type="line"/>
    </contour>
  </outline>
</glyph>
<glyph name="questiondown" format="1">
  <advance width="529"/>
  <unicode hex="00BF"/>
  <outline>
    <contour>
      <point x="106.5" y="185.5" type="curve" smooth="yes"/>
      <point x="89" y="95"/>
      <point x="146" y="20.5"/>
      <point x="247.5" y="20" type="curve" smooth="yes"/>
      <point x="330" y="19.5"/>
      <point x="388.5" y="65"/>
      <point x="437" y="122.5" type="curve"/>
      <point x="461" y="106" type="line"/>
      <point x="406" y="41.5"/>
      <point x="340.5" y="-10"/>
      <point x="242" y="-9.5" type="curve" smooth="yes"/>
      <point x="124.5" y="-8.5"/>
      <point x="59" y="79.5"/>
      <point x="76" y="186" type="curve" smooth="yes"/>
      <point x="95.5" y="295.5"/>
      <point x="206" y="367.5"/>
      <point x="324" y="377" type="curve"/>
      <point x="353.5" y="530" type="line"/>
      <point x="376" y="530" type="line"/>
      <point x="356.5" y="355" type="line"/>
      <point x="349" y="355.5" type="line"/>
      <point x="206" y="347"/>
      <point x="121" y="266"/>
    </contour>
    <contour>
      <point x="418.5" y="687" type="curve" smooth="yes"/>
      <point x="417.5" y="675"/>
      <point x="403.5" y="663"/>
      <point x="391.5" y="663.5" type="curve" smooth="yes"/>
      <point x="379.5" y="664"/>
      <point x="370.5" y="675"/>
      <point x="371.5" y="687.5" type="curve" smooth="yes"/>
      <point x="372.5" y="699.5"/>
      <point x="386.5" y="712"/>
      <point x="398.5" y="711.5" type="curve" smooth="yes"/>
      <point x="410.5" y="711"/>
      <point x="419.5" y="699.5"/>
    </contour>
  </outline>
</glyph>
<glyph name="Agrave" format="1">
  <advance width="599"/>
  <unicode hex="00C0"/>
  <outline>
    <contour>
      <point x="145" y="254" type="line"/>
      <point x="158.5" y="284" type="line"/>
      <point x="483.5" y="284" type="line"/>
      <point x="488" y="253.5" type="line"/>
    </contour>
    <contour>
      <point x="384" y="645" type="line"/>
      <point x="174" y="273" type="line"/>
      <point x="170" y="265" type="line"/>
      <point x="20" y="0" type="line"/>
      <point x="-17" y="0" type="line"/>
      <point x="396" y="721.5" type="line"/>
      <point x="560.5" y="0" type="line"/>
      <point x="525" y="0" type="line"/>
      <point x="468" y="263" type="line"/>
      <point x="466" y="271" type="line"/>
    </contour>
    <contour>
      <point x="301.5" y="936" type="line"/>
      <point x="331" y="953" type="line"/>
      <point x="464.5" y="793" type="line"/>
      <point x="447.5" y="781.5" type="line"/>
    </contour>
  </outline>
</glyph>
<glyph name="Aacute" format="1">
  <advance width="599"/>
  <unicode hex="00C1"/>
  <outline>
    <contour>
      <point x="145" y="254" type="line"/>
      <point x="158.5" y="284" type="line"/>
      <point x="483.5" y="284" type="line"/>
      <point x="488" y="253.5" type="line"/>
    </contour>
    <contour>
      <point x="384" y="645" type="line"/>
      <point x="174" y="273" type="line"/>
      <point x="170" y="265" type="line"/>
      <point x="20" y="0" type="line"/>
      <point x="-17" y="0" type="line"/>
      <point x="396" y="721.5" type="line"/>
      <point x="560.5" y="0" type="line"/>
      <point x="525" y="0" type="line"/>
      <point x="468" y="263" type="line"/>
      <point x="466" y="271" type="line"/>
    </contour>
    <contour>
      <point x="563" y="934.5" type="line"/>
      <point x="365.5" y="782" type="line"/>
      <point x="351.5" y="794.5" type="line"/>
      <point x="538" y="952.5" type="line"/>
    </contour>
  </outline>
</glyph>
<glyph name="Acircumflex" format="1">
  <advance width="599"/>
  <unicode hex="00C2"/>
  <outline>
    <contour>
      <point x="145" y="254" type="line"/>
      <point x="158.5" y="284" type="line"/>
      <point x="483.5" y="284" type="line"/>
      <point x="488" y="253.5" type="line"/>
    </contour>
    <contour>
      <point x="384" y="645" type="line"/>
      <point x="174" y="273" type="line"/>
      <point x="170" y="265" type="line"/>
      <point x="20" y="0" type="line"/>
      <point x="-17" y="0" type="line"/>
      <point x="396" y="721.5" type="line"/>
      <point x="560.5" y="0" type="line"/>
      <point x="525" y="0" type="line"/>
      <point x="468" y="263" type="line"/>
      <point x="466" y="271" type="line"/>
    </contour>
    <contour>
      <point x="426" y="892" type="line"/>
      <point x="268" y="770" type="line"/>
      <point x="250.5" y="787" type="line"/>
      <point x="430" y="925.5" type="line"/>
      <point x="562.5" y="785.5" type="line"/>
      <point x="541" y="769" type="line"/>
    </contour>
  </outline>
</glyph>
<glyph name="Atilde" format="1">
  <advance width="599"/>
  <unicode hex="00C3"/>
  <outline>
    <contour>
      <point x="145" y="254" type="line"/>
      <point x="158.5" y="284" type="line"/>
      <point x="483.5" y="284" type="line"/>
      <point x="488" y="253.5" type="line"/>
    </contour>
    <contour>
      <point x="384" y="645" type="line"/>
      <point x="174" y="273" type="line"/>
      <point x="170" y="265" type="line"/>
      <point x="20" y="0" type="line"/>
      <point x="-17" y="0" type="line"/>
      <point x="396" y="721.5" type="line"/>
      <point x="560.5" y="0" type="line"/>
      <point x="525" y="0" type="line"/>
      <point x="468" y="263" type="line"/>
      <point x="466" y="271" type="line"/>
    </contour>
    <contour>
      <point x="275" y="801.5" type="line"/>
      <point x="287.5" y="834"/>
      <point x="315" y="866"/>
      <point x="358" y="865.5" type="curve" smooth="yes"/>
      <point x="410.5" y="865"/>
      <point x="423.5" y="818.5"/>
      <point x="470.5" y="819.5" type="curve" smooth="yes"/>
      <point x="498" y="820"/>
      <point x="516" y="841.5"/>
      <point x="533.5" y="866.5" type="curve"/>
      <point x="552.5" y="851" type="line"/>
      <point x="532.5" y="820"/>
      <point x="503.5" y="793"/>
      <point x="467" y="793.5" type="curve" smooth="yes"/>
      <point x="416.5" y="794"/>
      <point x="399" y="840"/>
      <point x="357" y="839.5" type="curve" smooth="yes"/>
      <point x="321" y="839"/>
      <point x="305" y="811.5"/>
      <point x="296" y="789.5" type="curve"/>
    </contour>
  </outline>
</glyph>
<glyph name="Adieresis" format="1">
  <advance width="599"/>
  <unicode hex="00C4"/>
  <outline>
    <contour>
      <point x="145" y="254" type="line"/>
      <point x="158.5" y="284" type="line"/>
      <point x="483.5" y="284" type="line"/>
      <point x="488" y="253.5" type="line"/>
    </contour>
    <contour>
      <point x="384" y="645" type="line"/>
      <point x="174" y="273" type="line"/>
      <point x="170" y="265" type="line"/>
      <point x="20" y="0" type="line"/>
      <point x="-17" y="0" type="line"/>
      <point x="396" y="721.5" type="line"/>
      <point x="560.5" y="0" type="line"/>
      <point x="525" y="0" type="line"/>
      <point x="468" y="263" type="line"/>
      <point x="466" y="271" type="line"/>
    </contour>
    <contour>
      <point x="486" y="819" type="curve" smooth="yes"/>
      <point x="487" y="831"/>
      <point x="501" y="843"/>
      <point x="513" y="842.5" type="curve" smooth="yes"/>
      <point x="525" y="842"/>
      <point x="534" y="831"/>
      <point x="533" y="818.5" type="curve" smooth="yes"/>
      <point x="532" y="806.5"/>
      <point x="518" y="794.5"/>
      <point x="506" y="795" type="curve" smooth="yes"/>
      <point x="494" y="795.5"/>
      <point x="485" y="806.5"/>
    </contour>
    <contour>
      <point x="291.5" y="819" type="curve" smooth="yes"/>
      <point x="292.5" y="831"/>
      <point x="307" y="843"/>
      <point x="319" y="842.5" type="curve" smooth="yes"/>
      <point x="331" y="842"/>
      <point x="340" y="831"/>
      <point x="339" y="818.5" type="curve" smooth="yes"/>
      <point x="338" y="806.5"/>
      <point x="324" y="794.5"/>
      <point x="312" y="795" type="curve" smooth="yes"/>
      <point x="300" y="795.5"/>
      <point x="290.5" y="806.5"/>
    </contour>
  </outline>
</glyph>
<glyph name="Aring" format="1">
  <advance width="599"/>
  <unicode hex="00C5"/>
  <outline>
    <contour>
      <point x="145" y="254" type="line"/>
      <point x="158.5" y="284" type="line"/>
      <point x="483.5" y="284" type="line"/>
      <point x="488" y="253.5" type="line"/>
    </contour>
    <contour>
      <point x="384" y="645" type="line"/>
      <point x="174" y="273" type="line"/>
      <point x="170" y="265" type="line"/>
      <point x="20" y="0" type="line"/>
      <point x="-17" y="0" type="line"/>
      <point x="396" y="721.5" type="line"/>
      <point x="560.5" y="0" type="line"/>
      <point x="525" y="0" type="line"/>
      <point x="468" y="263" type="line"/>
      <point x="466" y="271" type="line"/>
    </contour>
    <contour>
      <point x="310.5" y="805.5" type="curve" smooth="yes"/>
      <point x="318.5" y="861"/>
      <point x="373" y="905"/>
      <point x="426.5" y="904.5" type="curve" smooth="yes"/>
      <point x="479.5" y="904"/>
      <point x="517.5" y="858.5"/>
      <point x="509.5" y="804.5" type="curve" smooth="yes"/>
      <point x="501.5" y="749"/>
      <point x="447" y="705"/>
      <point x="393.5" y="705.5" type="curve" smooth="yes"/>
      <point x="340.5" y="706"/>
      <point x="302.5" y="751.5"/>
    </contour>
    <contour>
      <point x="332" y="805" type="curve" smooth="yes"/>
      <point x="326" y="763.5"/>
      <point x="354.5" y="727.5"/>
      <point x="395.5" y="726.5" type="curve" smooth="yes"/>
      <point x="437" y="725"/>
      <point x="482" y="762.5"/>
      <point x="488" y="805" type="curve" smooth="yes"/>
      <point x="494" y="846.5"/>
      <point x="465.5" y="882.5"/>
      <point x="424.5" y="883.5" type="curve" smooth="yes"/>
      <point x="383" y="885"/>
      <point x="338" y="847.5"/>
    </contour>
  </outline>
</glyph>
<glyph name="AE" format="1">
  <advance width="887"/>
  <unicode hex="00C6"/>
  <outline>
    <contour>
      <point x="221" y="259.5" type="line"/>
      <point x="226" y="290" type="line"/>
      <point x="511" y="290" type="line"/>
      <point x="505.5" y="259.5" type="line"/>
    </contour>
    <contour>
      <point x="549.5" y="700" type="line"/>
      <point x="576.5" y="687" type="line"/>
      <point x="14" y="0" type="line"/>
      <point x="-23" y="0" type="line"/>
    </contour>
    <contour>
      <point x="466.5" y="0" type="line"/>
      <point x="472" y="30.5" type="line"/>
      <point x="791.5" y="30.5" type="line"/>
      <point x="786.5" y="0" type="line"/>
    </contour>
    <contour>
      <point x="587" y="669.5" type="line"/>
      <point x="549.5" y="700" type="line"/>
      <point x="906" y="700" type="line"/>
      <point x="900.5" y="669.5" type="line"/>
    </contour>
    <contour>
      <point x="530" y="371.5" type="line"/>
      <point x="535" y="402" type="line"/>
      <point x="835.5" y="402" type="line"/>
      <point x="830.5" y="371" type="line"/>
    </contour>
    <contour>
      <point x="568" y="699.5" type="line"/>
      <point x="601" y="699.5" type="line"/>
      <point x="480" y="0" type="line"/>
      <point x="448" y="0" type="line"/>
    </contour>
  </outline>
</glyph>
<glyph name="Ccedilla" format="1">
  <advance width="664"/>
  <unicode hex="00C7"/>
  <outline>
    <contour>
      <point x="112.5" y="350" type="curve" smooth="yes"/>
      <point x="88" y="183.5"/>
      <point x="172" y="27"/>
      <point x="347.5" y="25.5" type="curve" smooth="yes"/>
      <point x="442" y="25"/>
      <point x="518.5" y="60"/>
      <point x="582.5" y="113.5" type="curve"/>
      <point x="575.5" y="70" type="line"/>
      <point x="510" y="21.5"/>
      <point x="439" y="-9"/>
      <point x="344.5" y="-8.5" type="curve" smooth="yes"/>
      <point x="148.5" y="-7.5"/>
      <point x="51" y="164.5"/>
      <point x="78" y="350" type="curve" smooth="yes"/>
      <point x="108.5" y="546"/>
      <point x="265.5" y="708"/>
      <point x="464" y="709" type="curve" smooth="yes"/>
      <point x="552.5" y="709.5"/>
      <point x="615" y="683"/>
      <point x="670.5" y="630" type="curve"/>
      <point x="663.5" y="586" type="line"/>
      <point x="614.5" y="645.5"/>
      <point x="546.5" y="675.5"/>
      <point x="461" y="675" type="curve" smooth="yes"/>
      <point x="283" y="674"/>
      <point x="141" y="528"/>
    </contour>
    <contour>
      <point x="340" y="16" type="line"/>
      <point x="366.5" y="16" type="line"/>
      <point x="294" y="-69.5" type="line"/>
      <point x="311.5" y="-60.5"/>
      <point x="326" y="-52.5"/>
      <point x="347" y="-53.5" type="curve" smooth="yes"/>
      <point x="383" y="-56"/>
      <point x="411" y="-84.5"/>
      <point x="406" y="-127.5" type="curve" smooth="yes"/>
      <point x="399" y="-184.5"/>
      <point x="341" y="-221"/>
      <point x="287" y="-220.5" type="curve" smooth="yes"/>
      <point x="252" y="-220.5"/>
      <point x="230.5" y="-207"/>
      <point x="205.5" y="-182.5" type="curve"/>
      <point x="222.5" y="-167" type="line"/>
      <point x="243.5" y="-186"/>
      <point x="261.5" y="-198"/>
      <point x="289.5" y="-198" type="curve" smooth="yes"/>
      <point x="331" y="-198"/>
      <point x="377" y="-170"/>
      <point x="383" y="-127" type="curve" smooth="yes"/>
      <point x="387" y="-94.5"/>
      <point x="365.5" y="-73"/>
      <point x="336" y="-71.5" type="curve" smooth="yes"/>
      <point x="310.5" y="-70"/>
      <point x="282" y="-82"/>
      <point x="259" y="-94.5" type="curve"/>
    </contour>
  </outline>
</glyph>
<glyph name="Egrave" format="1">
  <advance width="506"/>
  <unicode hex="00C8"/>
  <outline>
    <contour>
      <point x="72" y="0" type="line"/>
      <point x="77" y="30.5" type="line"/>
      <point x="410" y="30.5" type="line"/>
      <point x="405.5" y="0" type="line"/>
    </contour>
    <contour>
      <point x="186.5" y="669.5" type="line"/>
      <point x="191.5" y="700" type="line"/>
      <point x="524.5" y="700" type="line"/>
      <point x="519.5" y="669.5" type="line"/>
    </contour>
    <contour>
      <point x="135.5" y="371.5" type="line"/>
      <point x="140.5" y="402" type="line"/>
      <point x="454" y="402" type="line"/>
      <point x="449" y="371" type="line"/>
    </contour>
    <contour>
      <point x="176.5" y="699.5" type="line"/>
      <point x="209.5" y="699.5" type="line"/>
      <point x="89" y="0" type="line"/>
      <point x="57" y="0" type="line"/>
    </contour>
    <contour>
      <point x="244.5" y="924" type="line"/>
      <point x="273.5" y="940.5" type="line"/>
      <point x="407" y="780.5" type="line"/>
      <point x="390" y="769" type="line"/>
    </contour>
  </outline>
</glyph>
<glyph name="Eacute" format="1">
  <advance width="506"/>
  <unicode hex="00C9"/>
  <outline>
    <contour>
      <point x="72" y="0" type="line"/>
      <point x="77" y="30.5" type="line"/>
      <point x="410" y="30.5" type="line"/>
      <point x="405.5" y="0" type="line"/>
    </contour>
    <contour>
      <point x="186.5" y="669.5" type="line"/>
      <point x="191.5" y="700" type="line"/>
      <point x="524.5" y="700" type="line"/>
      <point x="519.5" y="669.5" type="line"/>
    </contour>
    <contour>
      <point x="135.5" y="371.5" type="line"/>
      <point x="140.5" y="402" type="line"/>
      <point x="454" y="402" type="line"/>
      <point x="449" y="371" type="line"/>
    </contour>
    <contour>
      <point x="176.5" y="699.5" type="line"/>
      <point x="209.5" y="699.5" type="line"/>
      <point x="89" y="0" type="line"/>
      <point x="57" y="0" type="line"/>
    </contour>
    <contour>
      <point x="533" y="922.5" type="line"/>
      <point x="335.5" y="770" type="line"/>
      <point x="321" y="782" type="line"/>
      <point x="508" y="940" type="line"/>
    </contour>
  </outline>
</glyph>
<glyph name="Ecircumflex" format="2">
  <advance width="505"/>
  <unicode hex="00CA"/>
  <outline>
    <contour>
      <point x="73" y="0" type="line"/>
      <point x="78" y="31" type="line"/>
      <point x="411" y="31" type="line"/>
      <point x="406" y="0" type="line"/>
    </contour>
    <contour>
      <point x="187" y="669" type="line"/>
      <point x="192" y="700" type="line"/>
      <point x="525" y="700" type="line"/>
      <point x="520" y="669" type="line"/>
    </contour>
    <contour>
      <point x="136" y="371" type="line"/>
      <point x="141" y="402" type="line"/>
      <point x="455" y="402" type="line"/>
      <point x="449" y="371" type="line"/>
    </contour>
    <contour>
      <point x="176" y="700" type="line"/>
      <point x="210" y="700" type="line"/>
      <point x="90" y="0" type="line"/>
      <point x="57" y="0" type="line"/>
    </contour>
    <contour>
      <point x="387" y="891" type="line"/>
      <point x="230" y="769" type="line"/>
      <point x="212" y="787" type="line"/>
      <point x="391" y="925" type="line"/>
      <point x="524" y="785" type="line"/>
      <point x="502" y="769" type="line"/>
    </contour>
  </outline>
</glyph>
<glyph name="Edieresis" format="1">
  <advance width="506"/>
  <unicode hex="00CB"/>
  <outline>
    <contour>
      <point x="72" y="0" type="line"/>
      <point x="77" y="30.5" type="line"/>
      <point x="410" y="30.5" type="line"/>
      <point x="405.5" y="0" type="line"/>
    </contour>
    <contour>
      <point x="186.5" y="669.5" type="line"/>
      <point x="191.5" y="700" type="line"/>
      <point x="524.5" y="700" type="line"/>
      <point x="519.5" y="669.5" type="line"/>
    </contour>
    <contour>
      <point x="135.5" y="371.5" type="line"/>
      <point x="140.5" y="402" type="line"/>
      <point x="454" y="402" type="line"/>
      <point x="449" y="371" type="line"/>
    </contour>
    <contour>
      <point x="176.5" y="699.5" type="line"/>
      <point x="209.5" y="699.5" type="line"/>
      <point x="89" y="0" type="line"/>
      <point x="57" y="0" type="line"/>
    </contour>
    <contour>
      <point x="446" y="813" type="curve" smooth="yes"/>
      <point x="447" y="825"/>
      <point x="461.5" y="837"/>
      <point x="473.5" y="836.5" type="curve" smooth="yes"/>
      <point x="485.5" y="836"/>
      <point x="494" y="825"/>
      <point x="493" y="812.5" type="curve" smooth="yes"/>
      <point x="492" y="800.5"/>
      <point x="478" y="788.5"/>
      <point x="466" y="789" type="curve" smooth="yes"/>
      <point x="454" y="789.5"/>
      <point x="445" y="800.5"/>
    </contour>
    <contour>
      <point x="252" y="813" type="curve" smooth="yes"/>
      <point x="253" y="825"/>
      <point x="267" y="837"/>
      <point x="279" y="836.5" type="curve" smooth="yes"/>
      <point x="291" y="836"/>
      <point x="300" y="825"/>
      <point x="299" y="812.5" type="curve" smooth="yes"/>
      <point x="298" y="800.5"/>
      <point x="284" y="788.5"/>
      <point x="272" y="789" type="curve" smooth="yes"/>
      <point x="260" y="789.5"/>
      <point x="251" y="800.5"/>
    </contour>
  </outline>
</glyph>
<glyph name="Igrave" format="1">
  <advance width="192"/>
  <unicode hex="00CC"/>
  <outline>
    <contour>
      <point x="173.5" y="699.5" type="line"/>
      <point x="205.5" y="699.5" type="line"/>
      <point x="84.5" y="0" type="line"/>
      <point x="53.5" y="0" type="line"/>
    </contour>
    <contour>
      <point x="82.5" y="924" type="line"/>
      <point x="112.5" y="940.5" type="line"/>
      <point x="246" y="780.5" type="line"/>
      <point x="228.5" y="769" type="line"/>
    </contour>
  </outline>
</glyph>
<glyph name="Iacute" format="1">
  <advance width="192"/>
  <unicode hex="00CD"/>
  <outline>
    <contour>
      <point x="173.5" y="699.5" type="line"/>
      <point x="205.5" y="699.5" type="line"/>
      <point x="84.5" y="0" type="line"/>
      <point x="53.5" y="0" type="line"/>
    </contour>
    <contour>
      <point x="371.5" y="922.5" type="line"/>
      <point x="174" y="769.5" type="line"/>
      <point x="160" y="782" type="line"/>
      <point x="347" y="940" type="line"/>
    </contour>
  </outline>
</glyph>
<glyph name="Icircumflex" format="1">
  <advance width="192"/>
  <unicode hex="00CE"/>
  <outline>
    <contour>
      <point x="173.5" y="699.5" type="line"/>
      <point x="205.5" y="699.5" type="line"/>
      <point x="84.5" y="0" type="line"/>
      <point x="53.5" y="0" type="line"/>
    </contour>
    <contour>
      <point x="223" y="891.5" type="line"/>
      <point x="65" y="769.5" type="line"/>
      <point x="47.5" y="786.5" type="line"/>
      <point x="226.5" y="925" type="line"/>
      <point x="359" y="785.5" type="line"/>
      <point x="338" y="769" type="line"/>
    </contour>
  </outline>
</glyph>
<glyph name="Idieresis" format="1">
  <advance width="192"/>
  <unicode hex="00CF"/>
  <outline>
    <contour>
      <point x="173.5" y="699.5" type="line"/>
      <point x="205.5" y="699.5" type="line"/>
      <point x="84.5" y="0" type="line"/>
      <point x="53.5" y="0" type="line"/>
    </contour>
    <contour>
      <point x="260.5" y="807" type="curve" smooth="yes"/>
      <point x="261.5" y="819"/>
      <point x="275" y="831"/>
      <point x="287" y="830.5" type="curve" smooth="yes"/>
      <point x="299" y="830"/>
      <point x="308.5" y="819"/>
      <point x="307.5" y="806.5" type="curve" smooth="yes"/>
      <point x="306.5" y="794.5"/>
      <point x="292.5" y="782.5"/>
      <point x="280.5" y="783" type="curve" smooth="yes"/>
      <point x="268" y="783.5"/>
      <point x="259.5" y="794.5"/>
    </contour>
    <contour>
      <point x="107.5" y="807" type="curve" smooth="yes"/>
      <point x="108.5" y="819"/>
      <point x="122.5" y="831"/>
      <point x="134.5" y="830.5" type="curve" smooth="yes"/>
      <point x="146.5" y="830"/>
      <point x="155.5" y="819"/>
      <point x="154.5" y="806.5" type="curve" smooth="yes"/>
      <point x="153.5" y="794.5"/>
      <point x="139" y="782.5"/>
      <point x="127" y="783" type="curve" smooth="yes"/>
      <point x="114.5" y="783.5"/>
      <point x="106.5" y="794.5"/>
    </contour>
  </outline>
</glyph>
<glyph name="Eth" format="1">
  <advance width="659"/>
  <unicode hex="00D0"/>
  <outline>
    <contour>
      <point x="35" y="334.5" type="line"/>
      <point x="39.5" y="364" type="line"/>
      <point x="331.5" y="364" type="line"/>
      <point x="326.5" y="334.5" type="line"/>
    </contour>
    <contour>
      <point x="176.5" y="699.5" type="line"/>
      <point x="209.5" y="699.5" type="line"/>
      <point x="89" y="0" type="line"/>
      <point x="57" y="0" type="line"/>
    </contour>
    <contour>
      <point x="228" y="0" type="curve"/>
      <point x="74" y="0" type="line"/>
      <point x="80" y="32.5" type="line"/>
      <point x="231.5" y="32.5" type="line"/>
      <point x="417" y="36"/>
      <point x="554" y="169"/>
      <point x="583.5" y="350" type="curve" smooth="yes"/>
      <point x="610" y="522"/>
      <point x="525" y="663.5"/>
      <point x="342" y="667.5" type="curve"/>
      <point x="188" y="667.5" type="line"/>
      <point x="193.5" y="700" type="line"/>
      <point x="345" y="700" type="line"/>
      <point x="545.5" y="696.5"/>
      <point x="645" y="539.5"/>
      <point x="616.5" y="350" type="curve" smooth="yes"/>
      <point x="585" y="151.5"/>
      <point x="432" y="3"/>
    </contour>
  </outline>
</glyph>
<glyph name="Ntilde" format="1">
  <advance width="676"/>
  <unicode hex="00D1"/>
  <outline>
    <contour>
      <point x="667" y="699.5" type="line"/>
      <point x="699.5" y="699.5" type="line"/>
      <point x="575.5" y="-20.5" type="line"/>
      <point x="170.5" y="629.914" type="line"/>
      <point x="61.5" y="0" type="line"/>
      <point x="29" y="0" type="line"/>
      <point x="153" y="720.5" type="line"/>
      <point x="557.5" y="66.6714" type="line"/>
    </contour>
    <contour>
      <point x="306.25" y="770.5" type="line"/>
      <point x="318.75" y="803"/>
      <point x="346.25" y="834.5"/>
      <point x="389.25" y="834" type="curve" smooth="yes"/>
      <point x="438.25" y="833.5"/>
      <point x="454.75" y="787"/>
      <point x="501.75" y="788" type="curve" smooth="yes"/>
      <point x="529.25" y="788.5"/>
      <point x="547.25" y="810"/>
      <point x="564.75" y="835" type="curve"/>
      <point x="582.75" y="820" type="line"/>
      <point x="562.75" y="789"/>
      <point x="534.75" y="762"/>
      <point x="497.75" y="762.5" type="curve" smooth="yes"/>
      <point x="450.75" y="763"/>
      <point x="430.25" y="808.5"/>
      <point x="388.25" y="808.5" type="curve" smooth="yes"/>
      <point x="351.75" y="808.5"/>
      <point x="335.75" y="781"/>
      <point x="327.25" y="758.5" type="curve"/>
    </contour>
  </outline>
</glyph>
<glyph name="Ograve" format="2">
  <advance width="755"/>
  <unicode hex="00D2"/>
  <outline>
    <contour>
      <point x="113" y="350" type="curve" smooth="yes"/>
      <point x="88" y="183"/>
      <point x="174" y="26"/>
      <point x="354" y="25" type="curve" smooth="yes"/>
      <point x="536" y="24"/>
      <point x="681" y="174"/>
      <point x="709" y="350" type="curve" smooth="yes"/>
      <point x="734" y="517"/>
      <point x="647" y="674"/>
      <point x="467" y="675" type="curve" smooth="yes"/>
      <point x="285" y="676"/>
      <point x="141" y="526"/>
    </contour>
    <contour>
      <point x="78" y="350" type="curve" smooth="yes"/>
      <point x="108" y="546"/>
      <point x="270" y="709"/>
      <point x="470" y="709" type="curve" smooth="yes"/>
      <point x="668" y="709"/>
      <point x="770" y="536"/>
      <point x="743" y="350" type="curve" smooth="yes"/>
      <point x="713" y="154"/>
      <point x="551" y="-9"/>
      <point x="351" y="-9" type="curve" smooth="yes"/>
      <point x="153" y="-9"/>
      <point x="51" y="164"/>
    </contour>
    <contour>
      <point x="381" y="924" type="line"/>
      <point x="412" y="941" type="line"/>
      <point x="545" y="781" type="line"/>
      <point x="526" y="769" type="line"/>
    </contour>
  </outline>
</glyph>
<glyph name="Ocircumflex" format="1">
  <advance width="755"/>
  <unicode hex="00D4"/>
  <outline>
    <contour>
      <point x="112" y="350" type="curve" smooth="yes"/>
      <point x="87" y="182.5"/>
      <point x="173" y="25"/>
      <point x="353.5" y="24.5" type="curve" smooth="yes"/>
      <point x="536" y="24"/>
      <point x="680.5" y="173"/>
      <point x="709" y="350" type="curve" smooth="yes"/>
      <point x="734" y="517.5"/>
      <point x="648" y="675"/>
      <point x="467.5" y="675.5" type="curve" smooth="yes"/>
      <point x="285" y="676"/>
      <point x="140.5" y="527"/>
    </contour>
    <contour>
      <point x="78" y="350" type="curve" smooth="yes"/>
      <point x="108.5" y="546"/>
      <point x="270" y="709.5"/>
      <point x="470" y="709" type="curve" smooth="yes"/>
      <point x="667.5" y="708.5"/>
      <point x="770.5" y="536.5"/>
      <point x="743.5" y="350" type="curve" smooth="yes"/>
      <point x="713" y="154"/>
      <point x="550.5" y="-9.5"/>
      <point x="350.5" y="-9" type="curve" smooth="yes"/>
      <point x="153" y="-8.5"/>
      <point x="51" y="163.5"/>
    </contour>
    <contour>
      <point x="504" y="891.5" type="line"/>
      <point x="346" y="769.5" type="line"/>
      <point x="329" y="786.5" type="line"/>
      <point x="508" y="925" type="line"/>
      <point x="640.5" y="785.5" type="line"/>
      <point x="619.5" y="769" type="line"/>
    </contour>
  </outline>
</glyph>
<glyph name="Otilde" format="1">
  <advance width="755"/>
  <unicode hex="00D5"/>
  <outline>
    <contour>
      <point x="112" y="350" type="curve" smooth="yes"/>
      <point x="87" y="182.5"/>
      <point x="173" y="25"/>
      <point x="353.5" y="24.5" type="curve" smooth="yes"/>
      <point x="536" y="24"/>
      <point x="680.5" y="173"/>
      <point x="709" y="350" type="curve" smooth="yes"/>
      <point x="734" y="517.5"/>
      <point x="648" y="675"/>
      <point x="467.5" y="675.5" type="curve" smooth="yes"/>
      <point x="285" y="676"/>
      <point x="140.5" y="527"/>
    </contour>
    <contour>
      <point x="78" y="350" type="curve" smooth="yes"/>
      <point x="108.5" y="546"/>
      <point x="270" y="709.5"/>
      <point x="470" y="709" type="curve" smooth="yes"/>
      <point x="667.5" y="708.5"/>
      <point x="770.5" y="536.5"/>
      <point x="743.5" y="350" type="curve" smooth="yes"/>
      <point x="713" y="154"/>
      <point x="550.5" y="-9.5"/>
      <point x="350.5" y="-9" type="curve" smooth="yes"/>
      <point x="153" y="-8.5"/>
      <point x="51" y="163.5"/>
    </contour>
    <contour>
      <point x="352.5" y="795" type="line"/>
      <point x="359" y="827.5"/>
      <point x="396" y="859"/>
      <point x="436" y="859" type="curve" smooth="yes"/>
      <point x="485" y="858.5"/>
      <point x="501" y="812"/>
      <point x="548" y="813" type="curve" smooth="yes"/>
      <point x="575.5" y="813.5"/>
      <point x="594" y="835"/>
      <point x="611.5" y="860" type="curve"/>
      <point x="628" y="845" type="line"/>
      <point x="608" y="814"/>
      <point x="580.5" y="787"/>
      <point x="543.5" y="787.5" type="curve" smooth="yes"/>
      <point x="496.5" y="788"/>
      <point x="476" y="833.5"/>
      <point x="434.5" y="833.5" type="curve" smooth="yes"/>
      <point x="397.5" y="833.5"/>
      <point x="381.5" y="806"/>
      <point x="372.5" y="783.5" type="curve"/>
    </contour>
  </outline>
</glyph>
<glyph name="Odieresis" format="1">
  <advance width="755"/>
  <unicode hex="00D6"/>
  <outline>
    <contour>
      <point x="112" y="350" type="curve" smooth="yes"/>
      <point x="87" y="182.5"/>
      <point x="173" y="25"/>
      <point x="353.5" y="24.5" type="curve" smooth="yes"/>
      <point x="536" y="24"/>
      <point x="680.5" y="173"/>
      <point x="709" y="350" type="curve" smooth="yes"/>
      <point x="734" y="517.5"/>
      <point x="648" y="675"/>
      <point x="467.5" y="675.5" type="curve" smooth="yes"/>
      <point x="285" y="676"/>
      <point x="140.5" y="527"/>
    </contour>
    <contour>
      <point x="78" y="350" type="curve" smooth="yes"/>
      <point x="108.5" y="546"/>
      <point x="270" y="709.5"/>
      <point x="470" y="709" type="curve" smooth="yes"/>
      <point x="667.5" y="708.5"/>
      <point x="770.5" y="536.5"/>
      <point x="743.5" y="350" type="curve" smooth="yes"/>
      <point x="713" y="154"/>
      <point x="550.5" y="-9.5"/>
      <point x="350.5" y="-9" type="curve" smooth="yes"/>
      <point x="153" y="-8.5"/>
      <point x="51" y="163.5"/>
    </contour>
    <contour>
      <point x="570" y="814" type="curve" smooth="yes"/>
      <point x="571" y="826"/>
      <point x="585" y="838"/>
      <point x="597" y="837.5" type="curve" smooth="yes"/>
      <point x="609" y="837"/>
      <point x="618" y="826"/>
      <point x="617" y="813.5" type="curve" smooth="yes"/>
      <point x="616" y="801.5"/>
      <point x="601.5" y="789.5"/>
      <point x="589.5" y="790" type="curve" smooth="yes"/>
      <point x="577.5" y="790.5"/>
      <point x="569" y="801.5"/>
    </contour>
    <contour>
      <point x="362" y="814" type="curve" smooth="yes"/>
      <point x="363" y="826"/>
      <point x="377" y="838"/>
      <point x="389" y="837.5" type="curve" smooth="yes"/>
      <point x="401" y="837"/>
      <point x="410.5" y="826"/>
      <point x="409.5" y="813.5" type="curve" smooth="yes"/>
      <point x="408.5" y="801.5"/>
      <point x="394" y="789.5"/>
      <point x="382" y="790" type="curve" smooth="yes"/>
      <point x="370" y="790.5"/>
      <point x="361" y="801.5"/>
    </contour>
  </outline>
</glyph>
<glyph name="multiply" format="2">
  <advance width="565"/>
  <unicode hex="00D7"/>
  <outline>
    <contour>
      <point x="75" y="39" type="line"/>
      <point x="57" y="62" type="line"/>
      <point x="281" y="255" type="line"/>
      <point x="122" y="449" type="line"/>
      <point x="146" y="471" type="line"/>
      <point x="302" y="275" type="line"/>
      <point x="525" y="470" type="line"/>
      <point x="543" y="447" type="line"/>
      <point x="318" y="254" type="line"/>
      <point x="476" y="60" type="line"/>
      <point x="452" y="39" type="line"/>
      <point x="297" y="234" type="line"/>
    </contour>
  </outline>
</glyph>
<glyph name="Oslash" format="1">
  <advance width="766"/>
  <unicode hex="00D8"/>
  <outline>
    <contour>
      <point x="112" y="350" type="curve" smooth="yes"/>
      <point x="87" y="182.5"/>
      <point x="173" y="25"/>
      <point x="353.5" y="24.5" type="curve" smooth="yes"/>
      <point x="536" y="24"/>
      <point x="680.5" y="173"/>
      <point x="709" y="350" type="curve" smooth="yes"/>
      <point x="734" y="517.5"/>
      <point x="648" y="675"/>
      <point x="467.5" y="675.5" type="curve" smooth="yes"/>
      <point x="285" y="676"/>
      <point x="140.5" y="527"/>
    </contour>
    <contour>
      <point x="78" y="350" type="curve" smooth="yes"/>
      <point x="108.5" y="546"/>
      <point x="270" y="709.5"/>
      <point x="470" y="709" type="curve" smooth="yes"/>
      <point x="667.5" y="708.5"/>
      <point x="770.5" y="536.5"/>
      <point x="743.5" y="350" type="curve" smooth="yes"/>
      <point x="713" y="154"/>
      <point x="550.5" y="-9.5"/>
      <point x="350.5" y="-9" type="curve" smooth="yes"/>
      <point x="153" y="-8.5"/>
      <point x="51" y="163.5"/>
    </contour>
    <contour>
      <point x="782.5" y="737.5" type="line"/>
      <point x="805" y="721" type="line"/>
      <point x="45.5" y="-37.5" type="line"/>
      <point x="23.5" y="-21" type="line"/>
    </contour>
  </outline>
</glyph>
<glyph name="Ugrave" format="1">
  <advance width="572"/>
  <unicode hex="00D9"/>
  <outline>
    <contour>
      <point x="172.5" y="699.5" type="line"/>
      <point x="204.5" y="699.5" type="line"/>
      <point x="122.5" y="223" type="line" smooth="yes"/>
      <point x="108.5" y="116"/>
      <point x="146.5" y="22.5"/>
      <point x="262" y="22" type="curve" smooth="yes"/>
      <point x="377.5" y="21.5"/>
      <point x="453.5" y="110.5"/>
      <point x="472.5" y="223" type="curve" smooth="yes"/>
      <point x="554.5" y="699.5" type="line"/>
      <point x="587" y="699.5" type="line"/>
      <point x="505.5" y="223" type="line" smooth="yes"/>
      <point x="484" y="94"/>
      <point x="396.5" y="-10"/>
      <point x="259.5" y="-9.5" type="curve" smooth="yes"/>
      <point x="123" y="-9"/>
      <point x="74" y="99.5"/>
      <point x="90.5" y="223" type="curve"/>
    </contour>
    <contour>
      <point x="286.5" y="924" type="line"/>
      <point x="315.5" y="940.5" type="line"/>
      <point x="449" y="780.5" type="line"/>
      <point x="432" y="769" type="line"/>
    </contour>
  </outline>
</glyph>
<glyph name="Uacute" format="1">
  <advance width="572"/>
  <unicode hex="00DA"/>
  <outline>
    <contour>
      <point x="172.5" y="699.5" type="line"/>
      <point x="204.5" y="699.5" type="line"/>
      <point x="122.5" y="223" type="line" smooth="yes"/>
      <point x="108.5" y="116"/>
      <point x="146.5" y="22.5"/>
      <point x="262" y="22" type="curve" smooth="yes"/>
      <point x="377.5" y="21.5"/>
      <point x="453.5" y="110.5"/>
      <point x="472.5" y="223" type="curve" smooth="yes"/>
      <point x="554.5" y="699.5" type="line"/>
      <point x="587" y="699.5" type="line"/>
      <point x="505.5" y="223" type="line" smooth="yes"/>
      <point x="484" y="94"/>
      <point x="396.5" y="-10"/>
      <point x="259.5" y="-9.5" type="curve" smooth="yes"/>
      <point x="123" y="-9"/>
      <point x="74" y="99.5"/>
      <point x="90.5" y="223" type="curve"/>
    </contour>
    <contour>
      <point x="548.5" y="922.5" type="line"/>
      <point x="351" y="770" type="line"/>
      <point x="336.5" y="782" type="line"/>
      <point x="523" y="940" type="line"/>
    </contour>
  </outline>
</glyph>
<glyph name="Ucircumflex" format="1">
  <advance width="572"/>
  <unicode hex="00DB"/>
  <outline>
    <contour>
      <point x="172.5" y="699.5" type="line"/>
      <point x="204.5" y="699.5" type="line"/>
      <point x="122.5" y="223" type="line" smooth="yes"/>
      <point x="108.5" y="116"/>
      <point x="146.5" y="22.5"/>
      <point x="262" y="22" type="curve" smooth="yes"/>
      <point x="377.5" y="21.5"/>
      <point x="453.5" y="110.5"/>
      <point x="472.5" y="223" type="curve" smooth="yes"/>
      <point x="554.5" y="699.5" type="line"/>
      <point x="587" y="699.5" type="line"/>
      <point x="505.5" y="223" type="line" smooth="yes"/>
      <point x="484" y="94"/>
      <point x="396.5" y="-10"/>
      <point x="259.5" y="-9.5" type="curve" smooth="yes"/>
      <point x="123" y="-9"/>
      <point x="74" y="99.5"/>
      <point x="90.5" y="223" type="curve"/>
    </contour>
    <contour>
      <point x="413" y="891.5" type="line"/>
      <point x="254.5" y="769.5" type="line"/>
      <point x="238" y="786.5" type="line"/>
      <point x="417" y="925" type="line"/>
      <point x="549.5" y="785.5" type="line"/>
      <point x="528" y="769" type="line"/>
    </contour>
  </outline>
</glyph>
<glyph name="Udieresis" format="1">
  <advance width="572"/>
  <unicode hex="00DC"/>
  <outline>
    <contour>
      <point x="172.5" y="699.5" type="line"/>
      <point x="204.5" y="699.5" type="line"/>
      <point x="122.5" y="223" type="line" smooth="yes"/>
      <point x="108.5" y="116"/>
      <point x="146.5" y="22.5"/>
      <point x="262" y="22" type="curve" smooth="yes"/>
      <point x="377.5" y="21.5"/>
      <point x="453.5" y="110.5"/>
      <point x="472.5" y="223" type="curve" smooth="yes"/>
      <point x="554.5" y="699.5" type="line"/>
      <point x="587" y="699.5" type="line"/>
      <point x="505.5" y="223" type="line" smooth="yes"/>
      <point x="484" y="94"/>
      <point x="396.5" y="-10"/>
      <point x="259.5" y="-9.5" type="curve" smooth="yes"/>
      <point x="123" y="-9"/>
      <point x="74" y="99.5"/>
      <point x="90.5" y="223" type="curve"/>
    </contour>
    <contour>
      <point x="461.5" y="793" type="curve" smooth="yes"/>
      <point x="462.5" y="805"/>
      <point x="476.5" y="817"/>
      <point x="488.5" y="816.5" type="curve" smooth="yes"/>
      <point x="500.5" y="816"/>
      <point x="509.5" y="805"/>
      <point x="508.5" y="792.5" type="curve" smooth="yes"/>
      <point x="507.5" y="780.5"/>
      <point x="493" y="768.5"/>
      <point x="481" y="769" type="curve" smooth="yes"/>
      <point x="469" y="769.5"/>
      <point x="460.5" y="780.5"/>
    </contour>
    <contour>
      <point x="281" y="793" type="curve" smooth="yes"/>
      <point x="282" y="805"/>
      <point x="295.5" y="817"/>
      <point x="307.5" y="816.5" type="curve" smooth="yes"/>
      <point x="319.5" y="816"/>
      <point x="329.5" y="805"/>
      <point x="328.5" y="792.5" type="curve" smooth="yes"/>
      <point x="327.5" y="780.5"/>
      <point x="313" y="768.5"/>
      <point x="301" y="769" type="curve" smooth="yes"/>
      <point x="289" y="769.5"/>
      <point x="280" y="780.5"/>
    </contour>
  </outline>
</glyph>
<glyph name="Yacute" format="1">
  <advance width="507"/>
  <unicode hex="00DD"/>
  <outline>
    <contour>
      <point x="528.5" y="922.5" type="line"/>
      <point x="331.5" y="769.5" type="line"/>
      <point x="317" y="782" type="line"/>
      <point x="503.5" y="940" type="line"/>
    </contour>
    <contour>
      <point x="552" y="699" type="line"/>
      <point x="589.5" y="699" type="line"/>
      <point x="286.5" y="276.5" type="line"/>
      <point x="239" y="0" type="line"/>
      <point x="206.5" y="0" type="line"/>
      <point x="255" y="277.5" type="line"/>
      <point x="104.5" y="700" type="line"/>
      <point x="140" y="700" type="line"/>
      <point x="275" y="310" type="line"/>
    </contour>
  </outline>
</glyph>
<glyph name="Thorn" format="1">
  <advance width="513"/>
  <unicode hex="00DE"/>
  <outline>
    <contour>
      <point x="170" y="699.5" type="line"/>
      <point x="202" y="699.5" type="line"/>
      <point x="81" y="0" type="line"/>
      <point x="50.5" y="0" type="line"/>
    </contour>
    <contour>
      <point x="156.5" y="529.5" type="line"/>
      <point x="162" y="560" type="line"/>
      <point x="309" y="560" type="line"/>
      <point x="436" y="557.5"/>
      <point x="525" y="474"/>
      <point x="505.5" y="350" type="curve" smooth="yes"/>
      <point x="485" y="223.5"/>
      <point x="371" y="142.5"/>
      <point x="239.5" y="140" type="curve"/>
      <point x="90" y="140" type="line"/>
      <point x="95.5" y="170.5" type="line"/>
      <point x="242.5" y="170.5" type="line"/>
      <point x="354" y="173"/>
      <point x="455" y="243.5"/>
      <point x="473.5" y="350" type="curve" smooth="yes"/>
      <point x="491.5" y="458"/>
      <point x="414" y="526"/>
      <point x="306" y="529" type="curve"/>
    </contour>
  </outline>
</glyph>
<glyph name="germandbls" format="2">
  <advance width="525"/>
  <unicode hex="00DF"/>
  <outline>
    <contour>
      <point x="226" y="20" type="line"/>
      <point x="343" y="28"/>
      <point x="444" y="107"/>
      <point x="464" y="228" type="curve" smooth="yes"/>
      <point x="484" y="353"/>
      <point x="388" y="424"/>
      <point x="277" y="431" type="curve"/>
      <point x="281" y="452" type="line"/>
      <point x="422" y="446"/>
      <point x="516" y="357"/>
      <point x="494" y="225" type="curve" smooth="yes"/>
      <point x="472" y="88"/>
      <point x="357" y="-3"/>
      <point x="221" y="-10" type="curve"/>
    </contour>
    <contour>
      <point x="279" y="439" type="curve"/>
      <point x="282" y="461" type="line"/>
      <point x="385" y="465"/>
      <point x="471" y="505"/>
      <point x="489" y="603" type="curve" smooth="yes"/>
      <point x="504" y="687"/>
      <point x="464" y="760"/>
      <point x="359" y="760" type="curve" smooth="yes"/>
      <point x="270" y="760"/>
      <point x="200" y="691"/>
      <point x="185" y="606" type="curve" smooth="yes"/>
      <point x="81" y="0" type="line"/>
      <point x="50" y="0" type="line"/>
      <point x="153" y="606" type="line"/>
      <point x="171" y="709"/>
      <point x="254" y="790"/>
      <point x="362" y="790" type="curve" smooth="yes"/>
      <point x="485" y="790"/>
      <point x="538" y="710"/>
      <point x="521" y="606" type="curve" smooth="yes"/>
      <point x="501" y="494"/>
      <point x="414" y="443"/>
    </contour>
  </outline>
</glyph>
<glyph name="agrave" format="1">
  <advance width="532"/>
  <unicode hex="00E0"/>
  <outline>
    <contour>
      <point x="481.5" y="459.5" type="line"/>
      <point x="511" y="459.5" type="line"/>
      <point x="431" y="0" type="line"/>
      <point x="402.5" y="0" type="line"/>
    </contour>
    <contour>
      <point x="52.5" y="230" type="curve" smooth="yes"/>
      <point x="72" y="363"/>
      <point x="176" y="471"/>
      <point x="304" y="469.5" type="curve" smooth="yes"/>
      <point x="428.5" y="468"/>
      <point x="470.5" y="341.5"/>
      <point x="455" y="230" type="curve" smooth="yes"/>
      <point x="436.5" y="110.5"/>
      <point x="349" y="-9"/>
      <point x="224.5" y="-9.5" type="curve" smooth="yes"/>
      <point x="97" y="-10"/>
      <point x="35" y="103.5"/>
    </contour>
    <contour>
      <point x="83" y="230" type="curve" smooth="yes"/>
      <point x="67.5" y="120"/>
      <point x="119" y="19.5"/>
      <point x="231.5" y="20" type="curve" smooth="yes"/>
      <point x="335.5" y="20.5"/>
      <point x="424" y="125"/>
      <point x="441" y="230" type="curve" smooth="yes"/>
      <point x="455" y="327.5"/>
      <point x="409" y="438"/>
      <point x="306" y="440" type="curve" smooth="yes"/>
      <point x="194" y="442.5"/>
      <point x="101" y="346.5"/>
    </contour>
    <contour>
      <point x="233.5" y="692.5" type="line"/>
      <point x="263" y="709.5" type="line"/>
      <point x="396" y="549.5" type="line"/>
      <point x="379.5" y="537.5" type="line"/>
    </contour>
  </outline>
</glyph>
<glyph name="aacute" format="2">
  <advance width="533"/>
  <unicode hex="00E1"/>
  <outline>
    <contour>
      <point x="481" y="460" type="line"/>
      <point x="511" y="460" type="line"/>
      <point x="431" y="0" type="line"/>
      <point x="403" y="0" type="line"/>
    </contour>
    <contour>
      <point x="52" y="230" type="curve" smooth="yes"/>
      <point x="71" y="363"/>
      <point x="176" y="471"/>
      <point x="304" y="470" type="curve" smooth="yes"/>
      <point x="428" y="469"/>
      <point x="471" y="342"/>
      <point x="455" y="230" type="curve" smooth="yes"/>
      <point x="437" y="110"/>
      <point x="348" y="-10"/>
      <point x="224" y="-10" type="curve" smooth="yes"/>
      <point x="97" y="-10"/>
      <point x="35" y="104"/>
    </contour>
    <contour>
      <point x="84" y="230" type="curve" smooth="yes"/>
      <point x="68" y="120"/>
      <point x="120" y="19"/>
      <point x="232" y="20" type="curve" smooth="yes"/>
      <point x="336" y="21"/>
      <point x="424" y="125"/>
      <point x="441" y="230" type="curve" smooth="yes"/>
      <point x="455" y="327"/>
      <point x="409" y="438"/>
      <point x="306" y="440" type="curve" smooth="yes"/>
      <point x="194" y="442"/>
      <point x="102" y="346"/>
    </contour>
    <contour>
      <point x="447" y="690" type="line"/>
      <point x="249" y="538" type="line"/>
      <point x="234" y="551" type="line"/>
      <point x="421" y="709" type="line"/>
    </contour>
  </outline>
</glyph>
<glyph name="acircumflex" format="1">
  <advance width="532"/>
  <unicode hex="00E2"/>
  <outline>
    <contour>
      <point x="481.5" y="459.5" type="line"/>
      <point x="511" y="459.5" type="line"/>
      <point x="431" y="0" type="line"/>
      <point x="402.5" y="0" type="line"/>
    </contour>
    <contour>
      <point x="52.5" y="230" type="curve" smooth="yes"/>
      <point x="72" y="363"/>
      <point x="176" y="471"/>
      <point x="304" y="469.5" type="curve" smooth="yes"/>
      <point x="428.5" y="468"/>
      <point x="470.5" y="341.5"/>
      <point x="455" y="230" type="curve" smooth="yes"/>
      <point x="436.5" y="110.5"/>
      <point x="349" y="-9"/>
      <point x="224.5" y="-9.5" type="curve" smooth="yes"/>
      <point x="97" y="-10"/>
      <point x="35" y="103.5"/>
    </contour>
    <contour>
      <point x="83" y="230" type="curve" smooth="yes"/>
      <point x="67.5" y="120"/>
      <point x="119" y="19.5"/>
      <point x="231.5" y="20" type="curve" smooth="yes"/>
      <point x="335.5" y="20.5"/>
      <point x="424" y="125"/>
      <point x="441" y="230" type="curve" smooth="yes"/>
      <point x="455" y="327.5"/>
      <point x="409" y="438"/>
      <point x="306" y="440" type="curve" smooth="yes"/>
      <point x="194" y="442.5"/>
      <point x="101" y="346.5"/>
    </contour>
    <contour>
      <point x="345.5" y="667" type="line"/>
      <point x="187.5" y="545" type="line"/>
      <point x="170.5" y="562" type="line"/>
      <point x="349.5" y="700.5" type="line"/>
      <point x="482" y="560.5" type="line"/>
      <point x="461" y="544" type="line"/>
    </contour>
  </outline>
</glyph>
<glyph name="atilde" format="1">
  <advance width="532"/>
  <unicode hex="00E3"/>
  <outline>
    <contour>
      <point x="481.5" y="459.5" type="line"/>
      <point x="511" y="459.5" type="line"/>
      <point x="431" y="0" type="line"/>
      <point x="402.5" y="0" type="line"/>
    </contour>
    <contour>
      <point x="52.5" y="230" type="curve" smooth="yes"/>
      <point x="72" y="363"/>
      <point x="176" y="471"/>
      <point x="304" y="469.5" type="curve" smooth="yes"/>
      <point x="428.5" y="468"/>
      <point x="470.5" y="341.5"/>
      <point x="455" y="230" type="curve" smooth="yes"/>
      <point x="436.5" y="110.5"/>
      <point x="349" y="-9"/>
      <point x="224.5" y="-9.5" type="curve" smooth="yes"/>
      <point x="97" y="-10"/>
      <point x="35" y="103.5"/>
    </contour>
    <contour>
      <point x="83" y="230" type="curve" smooth="yes"/>
      <point x="67.5" y="120"/>
      <point x="119" y="19.5"/>
      <point x="231.5" y="20" type="curve" smooth="yes"/>
      <point x="335.5" y="20.5"/>
      <point x="424" y="125"/>
      <point x="441" y="230" type="curve" smooth="yes"/>
      <point x="455" y="327.5"/>
      <point x="409" y="438"/>
      <point x="306" y="440" type="curve" smooth="yes"/>
      <point x="194" y="442.5"/>
      <point x="101" y="346.5"/>
    </contour>
    <contour>
      <point x="191.5" y="556.5" type="line"/>
      <point x="192.5" y="588.5"/>
      <point x="238.5" y="620.5"/>
      <point x="273.5" y="620.5" type="curve" smooth="yes"/>
      <point x="322.5" y="621"/>
      <point x="339" y="573.5"/>
      <point x="386" y="574.5" type="curve" smooth="yes"/>
      <point x="413.5" y="575"/>
      <point x="432" y="596.5"/>
      <point x="449.5" y="621.5" type="curve"/>
      <point x="468" y="606" type="line"/>
      <point x="448" y="575"/>
      <point x="419.5" y="548"/>
      <point x="383" y="548.5" type="curve" smooth="yes"/>
      <point x="336" y="549"/>
      <point x="315" y="595"/>
      <point x="273" y="594.5" type="curve" smooth="yes"/>
      <point x="237" y="594"/>
      <point x="221.5" y="566.5"/>
      <point x="212.5" y="544.5" type="curve"/>
    </contour>
  </outline>
</glyph>
<glyph name="adieresis" format="1">
  <advance width="532"/>
  <unicode hex="00E4"/>
  <outline>
    <contour>
      <point x="481.5" y="459.5" type="line"/>
      <point x="511" y="459.5" type="line"/>
      <point x="431" y="0" type="line"/>
      <point x="402.5" y="0" type="line"/>
    </contour>
    <contour>
      <point x="52.5" y="230" type="curve" smooth="yes"/>
      <point x="72" y="363"/>
      <point x="176" y="471"/>
      <point x="304" y="469.5" type="curve" smooth="yes"/>
      <point x="428.5" y="468"/>
      <point x="470.5" y="341.5"/>
      <point x="455" y="230" type="curve" smooth="yes"/>
      <point x="436.5" y="110.5"/>
      <point x="349" y="-9"/>
      <point x="224.5" y="-9.5" type="curve" smooth="yes"/>
      <point x="97" y="-10"/>
      <point x="35" y="103.5"/>
    </contour>
    <contour>
      <point x="83" y="230" type="curve" smooth="yes"/>
      <point x="67.5" y="120"/>
      <point x="119" y="19.5"/>
      <point x="231.5" y="20" type="curve" smooth="yes"/>
      <point x="335.5" y="20.5"/>
      <point x="424" y="125"/>
      <point x="441" y="230" type="curve" smooth="yes"/>
      <point x="455" y="327.5"/>
      <point x="409" y="438"/>
      <point x="306" y="440" type="curve" smooth="yes"/>
      <point x="194" y="442.5"/>
      <point x="101" y="346.5"/>
    </contour>
    <contour>
      <point x="411" y="589.5" type="curve" smooth="yes"/>
      <point x="412" y="601.5"/>
      <point x="426" y="613.5"/>
      <point x="438" y="613" type="curve" smooth="yes"/>
      <point x="450" y="612.5"/>
      <point x="459.5" y="601.5"/>
      <point x="458.5" y="589" type="curve" smooth="yes"/>
      <point x="457.5" y="577"/>
      <point x="443" y="565"/>
      <point x="431" y="565.5" type="curve" smooth="yes"/>
      <point x="419" y="566"/>
      <point x="410" y="577"/>
    </contour>
    <contour>
      <point x="217" y="589.5" type="curve" smooth="yes"/>
      <point x="218" y="601.5"/>
      <point x="232" y="613.5"/>
      <point x="244" y="613" type="curve" smooth="yes"/>
      <point x="256" y="612.5"/>
      <point x="265.5" y="601.5"/>
      <point x="264.5" y="589" type="curve" smooth="yes"/>
      <point x="263.5" y="577"/>
      <point x="249" y="565"/>
      <point x="237" y="565.5" type="curve" smooth="yes"/>
      <point x="225" y="566"/>
      <point x="216" y="577"/>
    </contour>
  </outline>
</glyph>
<glyph name="aring" format="1">
  <advance width="532"/>
  <unicode hex="00E5"/>
  <outline>
    <contour>
      <point x="481.5" y="459.5" type="line"/>
      <point x="511" y="459.5" type="line"/>
      <point x="431" y="0" type="line"/>
      <point x="402.5" y="0" type="line"/>
    </contour>
    <contour>
      <point x="52.5" y="230" type="curve" smooth="yes"/>
      <point x="72" y="363"/>
      <point x="176" y="471"/>
      <point x="304" y="469.5" type="curve" smooth="yes"/>
      <point x="428.5" y="468"/>
      <point x="470.5" y="341.5"/>
      <point x="455" y="230" type="curve" smooth="yes"/>
      <point x="436.5" y="110.5"/>
      <point x="349" y="-9"/>
      <point x="224.5" y="-9.5" type="curve" smooth="yes"/>
      <point x="97" y="-10"/>
      <point x="35" y="103.5"/>
    </contour>
    <contour>
      <point x="83" y="230" type="curve" smooth="yes"/>
      <point x="67.5" y="120"/>
      <point x="119" y="19.5"/>
      <point x="231.5" y="20" type="curve" smooth="yes"/>
      <point x="335.5" y="20.5"/>
      <point x="424" y="125"/>
      <point x="441" y="230" type="curve" smooth="yes"/>
      <point x="455" y="327.5"/>
      <point x="409" y="438"/>
      <point x="306" y="440" type="curve" smooth="yes"/>
      <point x="194" y="442.5"/>
      <point x="101" y="346.5"/>
    </contour>
    <contour>
      <point x="231" y="630.5" type="curve" smooth="yes"/>
      <point x="239" y="686"/>
      <point x="293" y="730"/>
      <point x="346.5" y="729.5" type="curve" smooth="yes"/>
      <point x="399.5" y="729"/>
      <point x="438" y="683"/>
      <point x="430" y="629" type="curve" smooth="yes"/>
      <point x="422" y="573.5"/>
      <point x="367.5" y="530"/>
      <point x="314" y="530.5" type="curve" smooth="yes"/>
      <point x="261" y="531"/>
      <point x="223" y="576.5"/>
    </contour>
    <contour>
      <point x="252.5" y="629.5" type="curve" smooth="yes"/>
      <point x="246.5" y="588"/>
      <point x="275" y="551.5"/>
      <point x="316" y="551" type="curve" smooth="yes"/>
      <point x="357.5" y="550.5"/>
      <point x="402" y="587.5"/>
      <point x="408" y="630" type="curve" smooth="yes"/>
      <point x="414" y="671.5"/>
      <point x="386" y="708"/>
      <point x="345" y="708.5" type="curve" smooth="yes"/>
      <point x="303.5" y="709"/>
      <point x="258.5" y="672"/>
    </contour>
  </outline>
</glyph>
<glyph name="ae" format="1">
  <advance width="800"/>
  <unicode hex="00E6"/>
  <outline>
    <contour>
      <point x="61" y="133" type="curve" smooth="yes"/>
      <point x="50" y="69.5"/>
      <point x="89.5" y="19"/>
      <point x="167" y="18.5" type="curve" smooth="yes"/>
      <point x="256.5" y="18"/>
      <point x="329" y="89.5"/>
      <point x="344" y="170" type="curve"/>
      <point x="360.5" y="154" type="line"/>
      <point x="344.5" y="67.5"/>
      <point x="264" y="-9.5"/>
      <point x="164.5" y="-9.5" type="curve" smooth="yes"/>
      <point x="70.5" y="-9.5"/>
      <point x="17.5" y="50.5"/>
      <point x="30.5" y="130.5" type="curve" smooth="yes"/>
      <point x="45.5" y="226.5"/>
      <point x="137" y="282"/>
      <point x="238.5" y="281.5" type="curve" smooth="yes"/>
      <point x="302.5" y="281.5"/>
      <point x="343" y="255.5"/>
      <point x="366.5" y="232" type="curve"/>
      <point x="362.5" y="211.5" type="line"/>
      <point x="333.5" y="237.5"/>
      <point x="292.5" y="257"/>
      <point x="237.5" y="257" type="curve" smooth="yes"/>
      <point x="150" y="257"/>
      <point x="74.5" y="210.5"/>
    </contour>
    <contour>
      <point x="128" y="382.5" type="curve"/>
      <point x="115.5" y="407" type="line"/>
      <point x="158" y="437"/>
      <point x="212.5" y="471"/>
      <point x="285.5" y="469.5" type="curve" smooth="yes"/>
      <point x="371.5" y="467.5"/>
      <point x="403.5" y="404"/>
      <point x="393.5" y="330" type="curve"/>
      <point x="364.5" y="152" type="line"/>
      <point x="341.5" y="152.5" type="line"/>
      <point x="369.5" y="320" type="line"/>
      <point x="378" y="380.5"/>
      <point x="356" y="439.5"/>
      <point x="281.5" y="441.5" type="curve" smooth="yes"/>
      <point x="216.5" y="443"/>
      <point x="166" y="409"/>
    </contour>
    <contour>
      <point x="374.5" y="223" type="line"/>
      <point x="379" y="249.5" type="line"/>
      <point x="768.5" y="250" type="line"/>
      <point x="774" y="223" type="line"/>
    </contour>
    <contour>
      <point x="748" y="250" type="line"/>
      <point x="763" y="352"/>
      <point x="708" y="441"/>
      <point x="610" y="442" type="curve" smooth="yes"/>
      <point x="493" y="443"/>
      <point x="409.5" y="347"/>
      <point x="387" y="242" type="curve"/>
      <point x="384.5" y="234" type="line"/>
      <point x="372" y="126.5"/>
      <point x="412.5" y="22"/>
      <point x="524" y="20" type="curve" smooth="yes"/>
      <point x="617.5" y="18.5"/>
      <point x="678" y="67"/>
      <point x="726.5" y="122.5" type="curve"/>
      <point x="749" y="106" type="line"/>
      <point x="692.5" y="40"/>
      <point x="626" y="-11"/>
      <point x="518.5" y="-9.5" type="curve" smooth="yes"/>
      <point x="396.5" y="-7.5"/>
      <point x="337" y="110"/>
      <point x="356" y="230" type="curve" smooth="yes"/>
      <point x="359.5" y="247"/>
      <point x="366" y="263"/>
      <point x="372" y="279" type="curve" smooth="yes"/>
      <point x="409" y="384.5"/>
      <point x="496" y="471"/>
      <point x="618" y="469.5" type="curve" smooth="yes"/>
      <point x="722" y="468"/>
      <point x="795.5" y="368"/>
      <point x="780" y="247" type="curve" smooth="yes"/>
      <point x="778.5" y="239"/>
      <point x="776.5" y="231"/>
      <point x="774" y="223" type="curve"/>
      <point x="744.5" y="230.5" type="line"/>
    </contour>
  </outline>
</glyph>
<glyph name="ccedilla" format="1">
  <advance width="470"/>
  <unicode hex="00E7"/>
  <outline>
    <contour>
      <point x="78" y="230" type="curve" smooth="yes"/>
      <point x="61.5" y="120.5"/>
      <point x="124" y="21"/>
      <point x="239" y="20" type="curve" smooth="yes"/>
      <point x="308" y="19.5"/>
      <point x="367" y="53.5"/>
      <point x="403" y="86" type="curve"/>
      <point x="397.5" y="47.5" type="line"/>
      <point x="360" y="16.5"/>
      <point x="301.5" y="-9.5"/>
      <point x="236" y="-9.5" type="curve" smooth="yes"/>
      <point x="103" y="-9.5"/>
      <point x="29" y="104.5"/>
      <point x="47.5" y="230" type="curve" smooth="yes"/>
      <point x="68" y="362"/>
      <point x="181" y="469.5"/>
      <point x="315.5" y="469.5" type="curve" smooth="yes"/>
      <point x="376.5" y="469.5"/>
      <point x="429" y="445"/>
      <point x="459" y="411.5" type="curve"/>
      <point x="453" y="373.5" type="line"/>
      <point x="428.5" y="410.5"/>
      <point x="377" y="440"/>
      <point x="313.5" y="440" type="curve" smooth="yes"/>
      <point x="197" y="440"/>
      <point x="97" y="345.5"/>
    </contour>
    <contour>
      <point x="231.5" y="15" type="line"/>
      <point x="258.5" y="15" type="line"/>
      <point x="186" y="-71" type="line"/>
      <point x="203.5" y="-62"/>
      <point x="217.5" y="-53.5"/>
      <point x="238.5" y="-54.5" type="curve" smooth="yes"/>
      <point x="274.5" y="-57"/>
      <point x="303" y="-86"/>
      <point x="298" y="-129" type="curve" smooth="yes"/>
      <point x="291" y="-186"/>
      <point x="232.5" y="-222"/>
      <point x="178.5" y="-221.5" type="curve" smooth="yes"/>
      <point x="143.5" y="-221.5"/>
      <point x="122.5" y="-208.5"/>
      <point x="97.5" y="-184" type="curve"/>
      <point x="114" y="-168.5" type="line"/>
      <point x="135" y="-187.5"/>
      <point x="153" y="-199"/>
      <point x="181" y="-199" type="curve" smooth="yes"/>
      <point x="222.5" y="-199"/>
      <point x="268.5" y="-171"/>
      <point x="274.5" y="-128" type="curve" smooth="yes"/>
      <point x="278.5" y="-95.5"/>
      <point x="257" y="-74.5"/>
      <point x="227.5" y="-73" type="curve" smooth="yes"/>
      <point x="202" y="-71.5"/>
      <point x="173.5" y="-83"/>
      <point x="150.5" y="-95.5" type="curve"/>
    </contour>
  </outline>
</glyph>
<glyph name="egrave" format="1">
  <advance width="490"/>
  <unicode hex="00E8"/>
  <outline>
    <contour>
      <point x="77.5" y="223" type="line"/>
      <point x="81" y="250" type="line"/>
      <point x="438" y="250" type="line"/>
      <point x="455" y="344"/>
      <point x="405.5" y="440.5"/>
      <point x="302" y="441.5" type="curve" smooth="yes"/>
      <point x="196.5" y="442.5"/>
      <point x="109" y="352"/>
      <point x="91" y="241" type="curve"/>
      <point x="89.5" y="231.5" type="line"/>
      <point x="78" y="125"/>
      <point x="122" y="21"/>
      <point x="231" y="20" type="curve" smooth="yes"/>
      <point x="321" y="19.5"/>
      <point x="377" y="72.5"/>
      <point x="419.5" y="123.5" type="curve"/>
      <point x="442.5" y="106" type="line"/>
      <point x="394" y="47.5"/>
      <point x="333" y="-10"/>
      <point x="226" y="-9.5" type="curve" smooth="yes"/>
      <point x="102.5" y="-8.5"/>
      <point x="44.5" y="110"/>
      <point x="59" y="231" type="curve" smooth="yes"/>
      <point x="62.5" y="254.5"/>
      <point x="68" y="277.5"/>
      <point x="77" y="299.5" type="curve" smooth="yes"/>
      <point x="113.5" y="393.5"/>
      <point x="198.5" y="470"/>
      <point x="303.5" y="469.5" type="curve" smooth="yes"/>
      <point x="420" y="468.5"/>
      <point x="485.5" y="364"/>
      <point x="471.5" y="248" type="curve" smooth="yes"/>
      <point x="470" y="239.5"/>
      <point x="468" y="231"/>
      <point x="466" y="223" type="curve"/>
    </contour>
    <contour>
      <point x="176.398" y="685.505" type="line"/>
      <point x="205.398" y="702.505" type="line"/>
      <point x="341.398" y="542.505" type="line"/>
      <point x="323.898" y="531.005" type="line"/>
    </contour>
  </outline>
</glyph>
<glyph name="ecircumflex" format="1">
  <advance width="490"/>
  <unicode hex="00EA"/>
  <outline>
    <contour>
      <point x="75.5" y="223" type="line"/>
      <point x="79.5" y="249.5" type="line"/>
      <point x="436.5" y="250" type="line"/>
      <point x="452.5" y="344"/>
      <point x="404.5" y="440.5"/>
      <point x="301" y="441.5" type="curve" smooth="yes"/>
      <point x="195.5" y="442.5"/>
      <point x="107.5" y="352"/>
      <point x="89.5" y="241" type="curve"/>
      <point x="87.5" y="231.5" type="line"/>
      <point x="75.5" y="125"/>
      <point x="119.5" y="21"/>
      <point x="228.5" y="20" type="curve" smooth="yes"/>
      <point x="318.5" y="19"/>
      <point x="375" y="72"/>
      <point x="417.5" y="123" type="curve"/>
      <point x="440" y="106" type="line"/>
      <point x="391" y="47.5"/>
      <point x="330" y="-10"/>
      <point x="223" y="-9.5" type="curve" smooth="yes"/>
      <point x="99.5" y="-8.5"/>
      <point x="42" y="110.5"/>
      <point x="57" y="231" type="curve" smooth="yes"/>
      <point x="60.5" y="254.5"/>
      <point x="66.5" y="277.5"/>
      <point x="75.5" y="299.5" type="curve" smooth="yes"/>
      <point x="112.5" y="393.5"/>
      <point x="198" y="470"/>
      <point x="303" y="469.5" type="curve" smooth="yes"/>
      <point x="419.5" y="468.5"/>
      <point x="484" y="363.5"/>
      <point x="469.5" y="248" type="curve" smooth="yes"/>
      <point x="468" y="239.5"/>
      <point x="466" y="231"/>
      <point x="464" y="223" type="curve"/>
    </contour>
    <contour>
      <point x="332.5" y="652.5" type="line"/>
      <point x="174" y="530.5" type="line"/>
      <point x="157" y="547.5" type="line"/>
      <point x="336" y="686" type="line"/>
      <point x="468.5" y="546" type="line"/>
      <point x="447.5" y="530" type="line"/>
    </contour>
  </outline>
</glyph>
<glyph name="edieresis" format="1">
  <advance width="490"/>
  <unicode hex="00EB"/>
  <outline>
    <contour>
      <point x="75.5" y="223" type="line"/>
      <point x="79.5" y="249.5" type="line"/>
      <point x="436.5" y="250" type="line"/>
      <point x="452.5" y="344"/>
      <point x="404.5" y="440.5"/>
      <point x="301" y="441.5" type="curve" smooth="yes"/>
      <point x="195.5" y="442.5"/>
      <point x="107.5" y="352"/>
      <point x="89.5" y="241" type="curve"/>
      <point x="87.5" y="231.5" type="line"/>
      <point x="75.5" y="125"/>
      <point x="119.5" y="21"/>
      <point x="228.5" y="20" type="curve" smooth="yes"/>
      <point x="318.5" y="19"/>
      <point x="375" y="72"/>
      <point x="417.5" y="123" type="curve"/>
      <point x="440" y="106" type="line"/>
      <point x="391" y="47.5"/>
      <point x="330" y="-10"/>
      <point x="223" y="-9.5" type="curve" smooth="yes"/>
      <point x="99.5" y="-8.5"/>
      <point x="42" y="110.5"/>
      <point x="57" y="231" type="curve" smooth="yes"/>
      <point x="60.5" y="254.5"/>
      <point x="66.5" y="277.5"/>
      <point x="75.5" y="299.5" type="curve" smooth="yes"/>
      <point x="112.5" y="393.5"/>
      <point x="198" y="470"/>
      <point x="303" y="469.5" type="curve" smooth="yes"/>
      <point x="419.5" y="468.5"/>
      <point x="484" y="363.5"/>
      <point x="469.5" y="248" type="curve" smooth="yes"/>
      <point x="468" y="239.5"/>
      <point x="466" y="231"/>
      <point x="464" y="223" type="curve"/>
    </contour>
    <contour>
      <point x="387" y="554" type="curve" smooth="yes"/>
      <point x="388" y="566"/>
      <point x="402" y="578"/>
      <point x="414" y="577.5" type="curve" smooth="yes"/>
      <point x="426" y="577"/>
      <point x="435.5" y="565.5"/>
      <point x="434.5" y="553" type="curve" smooth="yes"/>
      <point x="433.5" y="541"/>
      <point x="419" y="529.5"/>
      <point x="407" y="530" type="curve" smooth="yes"/>
      <point x="395" y="530.5"/>
      <point x="386" y="541.5"/>
    </contour>
    <contour>
      <point x="193" y="554" type="curve" smooth="yes"/>
      <point x="194" y="566"/>
      <point x="208" y="578"/>
      <point x="220" y="577.5" type="curve" smooth="yes"/>
      <point x="232" y="577"/>
      <point x="241.5" y="565.5"/>
      <point x="240.5" y="553" type="curve" smooth="yes"/>
      <point x="239.5" y="541"/>
      <point x="225" y="529.5"/>
      <point x="213" y="530" type="curve" smooth="yes"/>
      <point x="201" y="530.5"/>
      <point x="192" y="541.5"/>
    </contour>
  </outline>
</glyph>
<glyph name="igrave" format="1">
  <advance width="204"/>
  <unicode hex="00EC"/>
  <outline>
    <contour>
      <point x="139" y="459.5" type="line"/>
      <point x="169.5" y="459.5" type="line"/>
      <point x="89.5" y="0" type="line"/>
      <point x="60" y="0" type="line"/>
    </contour>
    <contour>
      <point x="40.5" y="691" type="line"/>
      <point x="70" y="707.5" type="line"/>
      <point x="203.5" y="547.5" type="line"/>
      <point x="184.5" y="536.5" type="line"/>
    </contour>
  </outline>
</glyph>
<glyph name="iacute" format="1">
  <advance width="204"/>
  <unicode hex="00ED"/>
  <outline>
    <contour>
      <point x="139" y="459.5" type="line"/>
      <point x="169.5" y="459.5" type="line"/>
      <point x="89.5" y="0" type="line"/>
      <point x="60" y="0" type="line"/>
    </contour>
    <contour>
      <point x="345.5" y="689.5" type="line"/>
      <point x="150" y="537" type="line"/>
      <point x="133.5" y="549" type="line"/>
      <point x="320.5" y="707" type="line"/>
    </contour>
  </outline>
</glyph>
<glyph name="icircumflex" format="1">
  <advance width="204"/>
  <unicode hex="00EE"/>
  <outline>
    <contour>
      <point x="139" y="459.5" type="line"/>
      <point x="169.5" y="459.5" type="line"/>
      <point x="89.5" y="0" type="line"/>
      <point x="60" y="0" type="line"/>
    </contour>
    <contour>
      <point x="188.5" y="655.5" type="line"/>
      <point x="30" y="534" type="line"/>
      <point x="13.5" y="551" type="line"/>
      <point x="192.5" y="689.5" type="line"/>
      <point x="325" y="549.5" type="line"/>
      <point x="303.5" y="533" type="line"/>
    </contour>
  </outline>
</glyph>
<glyph name="idieresis" format="1">
  <advance width="204"/>
  <unicode hex="00EF"/>
  <outline>
    <contour>
      <point x="139" y="459.5" type="line"/>
      <point x="169.5" y="459.5" type="line"/>
      <point x="89.5" y="0" type="line"/>
      <point x="60" y="0" type="line"/>
    </contour>
    <contour>
      <point x="231" y="563" type="curve" smooth="yes"/>
      <point x="232" y="575"/>
      <point x="246" y="587"/>
      <point x="258" y="586.5" type="curve" smooth="yes"/>
      <point x="270" y="586"/>
      <point x="279.5" y="575"/>
      <point x="278.5" y="562.5" type="curve" smooth="yes"/>
      <point x="277.5" y="550.5"/>
      <point x="263.5" y="538.5"/>
      <point x="251.5" y="539" type="curve" smooth="yes"/>
      <point x="239.5" y="539.5"/>
      <point x="230" y="550.5"/>
    </contour>
    <contour>
      <point x="64" y="563" type="curve" smooth="yes"/>
      <point x="65" y="575"/>
      <point x="79.5" y="587"/>
      <point x="91.5" y="586.5" type="curve" smooth="yes"/>
      <point x="103.5" y="586"/>
      <point x="112.5" y="575"/>
      <point x="111.5" y="562.5" type="curve" smooth="yes"/>
      <point x="110.5" y="550.5"/>
      <point x="96.5" y="538.5"/>
      <point x="84.5" y="539" type="curve" smooth="yes"/>
      <point x="72.5" y="539.5"/>
      <point x="63" y="550.5"/>
    </contour>
  </outline>
</glyph>
<glyph name="eth" format="1">
  <advance width="531"/>
  <unicode hex="00F0"/>
  <outline>
    <contour>
      <point x="464" y="223" type="curve" smooth="yes"/>
      <point x="480" y="322"/>
      <point x="420.5" y="417"/>
      <point x="303.5" y="417" type="curve" smooth="yes"/>
      <point x="199.5" y="417"/>
      <point x="106.5" y="326.5"/>
      <point x="89.5" y="223" type="curve" smooth="yes"/>
      <point x="73" y="118.5"/>
      <point x="127.5" y="20.5"/>
      <point x="241" y="20" type="curve" smooth="yes"/>
      <point x="357.5" y="19.5"/>
      <point x="446.5" y="115"/>
    </contour>
    <contour>
      <point x="303" y="700" type="line"/>
      <point x="469.5" y="378" type="line" smooth="yes"/>
      <point x="490.5" y="334"/>
      <point x="502.5" y="277"/>
      <point x="494.5" y="223" type="curve" smooth="yes"/>
      <point x="475" y="94"/>
      <point x="372.5" y="-10"/>
      <point x="238.5" y="-9.5" type="curve" smooth="yes"/>
      <point x="105.5" y="-9"/>
      <point x="40.5" y="100"/>
      <point x="59" y="223.5" type="curve" smooth="yes"/>
      <point x="77.5" y="339.5"/>
      <point x="179" y="442.5"/>
      <point x="297" y="442.5" type="curve" smooth="yes"/>
      <point x="358" y="442.5"/>
      <point x="404" y="417.5"/>
      <point x="438.5" y="372" type="curve"/>
      <point x="437.5" y="371.5" type="line"/>
      <point x="265.5" y="700" type="line"/>
    </contour>
    <contour>
      <point x="211.5" y="558.5" type="line"/>
      <point x="216" y="585" type="line"/>
      <point x="487" y="585" type="line"/>
      <point x="483" y="558.5" type="line"/>
    </contour>
  </outline>
</glyph>
<glyph name="ntilde" format="2">
  <advance width="474"/>
  <unicode hex="00F1"/>
  <outline>
    <contour>
      <point x="162" y="460" type="line"/>
      <point x="83" y="0" type="line"/>
      <point x="51" y="0" type="line"/>
      <point x="131" y="460" type="line"/>
    </contour>
    <contour>
      <point x="391" y="308" type="line" smooth="yes"/>
      <point x="400" y="377"/>
      <point x="383" y="439"/>
      <point x="303" y="440" type="curve" smooth="yes"/>
      <point x="214" y="441"/>
      <point x="149" y="361"/>
      <point x="130" y="281" type="curve"/>
      <point x="116" y="281" type="line"/>
      <point x="136" y="379"/>
      <point x="211" y="470"/>
      <point x="312" y="470" type="curve" smooth="yes"/>
      <point x="406" y="470"/>
      <point x="434" y="397"/>
      <point x="423" y="311" type="curve"/>
      <point x="369" y="0" type="line"/>
      <point x="338" y="0" type="line"/>
    </contour>
    <contour>
      <point x="172" y="557" type="line"/>
      <point x="185" y="589"/>
      <point x="212" y="621"/>
      <point x="255" y="621" type="curve" smooth="yes"/>
      <point x="304" y="621"/>
      <point x="320" y="574"/>
      <point x="367" y="575" type="curve" smooth="yes"/>
      <point x="394" y="576"/>
      <point x="412" y="597"/>
      <point x="430" y="622" type="curve"/>
      <point x="449" y="606" type="line"/>
      <point x="429" y="575"/>
      <point x="400" y="547"/>
      <point x="363" y="548" type="curve" smooth="yes"/>
      <point x="316" y="548"/>
      <point x="296" y="594"/>
      <point x="254" y="594" type="curve" smooth="yes"/>
      <point x="217" y="594"/>
      <point x="200" y="567"/>
      <point x="192" y="544" type="curve"/>
    </contour>
  </outline>
</glyph>
<glyph name="ocircumflex" format="1">
  <advance width="536"/>
  <unicode hex="00F4"/>
  <outline>
    <contour>
      <point x="52.5" y="230" type="curve" smooth="yes"/>
      <point x="73" y="361.5"/>
      <point x="185" y="470"/>
      <point x="319.5" y="469.5" type="curve" smooth="yes"/>
      <point x="452.5" y="469"/>
      <point x="527" y="355.5"/>
      <point x="508.5" y="230" type="curve" smooth="yes"/>
      <point x="488" y="98.5"/>
      <point x="375" y="-10"/>
      <point x="240.5" y="-9.5" type="curve" smooth="yes"/>
      <point x="107.5" y="-9"/>
      <point x="34" y="104.5"/>
    </contour>
    <contour>
      <point x="83" y="230" type="curve" smooth="yes"/>
      <point x="66.5" y="120.5"/>
      <point x="127.5" y="20.5"/>
      <point x="243" y="20" type="curve" smooth="yes"/>
      <point x="359.5" y="19.5"/>
      <point x="459.5" y="114.5"/>
      <point x="478" y="230" type="curve" smooth="yes"/>
      <point x="494.5" y="339.5"/>
      <point x="433" y="439.5"/>
      <point x="317.5" y="440" type="curve" smooth="yes"/>
      <point x="201" y="440.5"/>
      <point x="101.5" y="345.5"/>
    </contour>
    <contour>
      <point x="357" y="672.5" type="line"/>
      <point x="199" y="551" type="line"/>
      <point x="182" y="568" type="line"/>
      <point x="361" y="706.5" type="line"/>
      <point x="493.5" y="566.5" type="line"/>
      <point x="472.5" y="550" type="line"/>
    </contour>
  </outline>
</glyph>
<glyph name="otilde" format="1">
  <advance width="536"/>
  <unicode hex="00F5"/>
  <outline>
    <contour>
      <point x="52.5" y="230" type="curve" smooth="yes"/>
      <point x="73" y="361.5"/>
      <point x="185" y="470"/>
      <point x="319.5" y="469.5" type="curve" smooth="yes"/>
      <point x="452.5" y="469"/>
      <point x="527" y="355.5"/>
      <point x="508.5" y="230" type="curve" smooth="yes"/>
      <point x="488" y="98.5"/>
      <point x="375" y="-10"/>
      <point x="240.5" y="-9.5" type="curve" smooth="yes"/>
      <point x="107.5" y="-9"/>
      <point x="34" y="104.5"/>
    </contour>
    <contour>
      <point x="83" y="230" type="curve" smooth="yes"/>
      <point x="66.5" y="120.5"/>
      <point x="127.5" y="20.5"/>
      <point x="243" y="20" type="curve" smooth="yes"/>
      <point x="359.5" y="19.5"/>
      <point x="459.5" y="114.5"/>
      <point x="478" y="230" type="curve" smooth="yes"/>
      <point x="494.5" y="339.5"/>
      <point x="433" y="439.5"/>
      <point x="317.5" y="440" type="curve" smooth="yes"/>
      <point x="201" y="440.5"/>
      <point x="101.5" y="345.5"/>
    </contour>
    <contour>
      <point x="202" y="556.5" type="line"/>
      <point x="197" y="588.5"/>
      <point x="252.5" y="620.5"/>
      <point x="284.5" y="620.5" type="curve" smooth="yes"/>
      <point x="333.5" y="620.5"/>
      <point x="350" y="573.5"/>
      <point x="397" y="574.5" type="curve" smooth="yes"/>
      <point x="424.5" y="575"/>
      <point x="442.5" y="596.5"/>
      <point x="460" y="621.5" type="curve"/>
      <point x="479" y="606" type="line"/>
      <point x="459" y="575"/>
      <point x="430.5" y="548"/>
      <point x="394" y="548.5" type="curve" smooth="yes"/>
      <point x="347" y="549"/>
      <point x="325.5" y="595"/>
      <point x="283.5" y="594.5" type="curve" smooth="yes"/>
      <point x="247.5" y="594"/>
      <point x="232" y="566.5"/>
      <point x="223" y="544.5" type="curve"/>
    </contour>
  </outline>
</glyph>
